<?xml version="1.0" encoding="UTF-8" standalone="no"?>
<svg
   xmlns:dc="http://purl.org/dc/elements/1.1/"
   xmlns:cc="http://creativecommons.org/ns#"
   xmlns:rdf="http://www.w3.org/1999/02/22-rdf-syntax-ns#"
   xmlns:svg="http://www.w3.org/2000/svg"
   xmlns="http://www.w3.org/2000/svg"
   xmlns:sodipodi="http://sodipodi.sourceforge.net/DTD/sodipodi-0.dtd"
   xmlns:inkscape="http://www.inkscape.org/namespaces/inkscape"
   viewBox="0 0 640 480"
   version="1.1"
   id="svg4588"
   sodipodi:docname="out_of_order.svg"
   width="640"
   height="480"
   inkscape:version="1.0.2-2 (e86c870879, 2021-01-15)"
   inkscape:export-xdpi="960"
   inkscape:export-ydpi="960">
  <metadata
     id="metadata4592">
    <rdf:RDF>
      <cc:Work
         rdf:about="">
        <dc:format>image/svg+xml</dc:format>
        <dc:type
           rdf:resource="http://purl.org/dc/dcmitype/StillImage" />
        <dc:title>Out Of Order</dc:title>
      </cc:Work>
    </rdf:RDF>
  </metadata>
  <sodipodi:namedview
     pagecolor="#ffffff"
     bordercolor="#666666"
     borderopacity="1"
     objecttolerance="10"
     gridtolerance="10"
     guidetolerance="10"
     inkscape:pageopacity="0"
     inkscape:pageshadow="2"
     inkscape:window-width="1500"
     inkscape:window-height="938"
     id="namedview4590"
     showgrid="false"
     units="px"
     width="640px"
     fit-margin-top="2"
     fit-margin-left="2"
     fit-margin-right="2"
     fit-margin-bottom="2"
     inkscape:zoom="0.69595348"
     inkscape:cx="229.14972"
     inkscape:cy="254.07079"
     inkscape:window-x="-6"
     inkscape:window-y="-6"
     inkscape:window-maximized="1"
     inkscape:current-layer="g999"
     inkscape:document-rotation="0" />
  <defs
     id="defs4558">
    <style
       id="style4556">.a{fill:#4a4b4c;}.b{fill:#f8c811;}</style>
  </defs>
  <title
     id="title4560">MAKE NTNU logo</title>
  <g
     inkscape:groupmode="layer"
     id="layer1"
     inkscape:label="Background"
     transform="translate(21.266984,154.53796)" />
  <g
     inkscape:groupmode="layer"
     id="layer2"
     inkscape:label="Crane"
     transform="translate(21.266984,154.53796)" />
  <g
     inkscape:groupmode="layer"
     id="layer3"
     inkscape:label="Camera">
    <g
       inkscape:groupmode="layer"
       id="layer5"
       inkscape:label="Rendered Gears">
      <g
         inkscape:label="Rendered Gears"
         transform="matrix(2.2512755,0,0,2.2512755,148.48543,330.89193)"
         id="g999">
        <path
           style="fill:#f8c811;stroke:#f8c811;stroke-width:1;fill-opacity:1;stroke-opacity:1"
           d="m 69.8022,-5.62101 1.7534,-0.14119 4.6752,0.76577 6.4984,2.71905 v 4.55476 l -6.4984,2.71905 -4.6752,0.76577 -1.7534,-0.14119 -0.9236,7.01569 1.7302,0.3174 4.3177,1.9497 5.5732,4.3083 -1.1788,4.3996 -6.9808,0.9445 -4.7141,-0.4704 -1.6571,-0.5902 -2.7079,6.5376 1.5891,0.7544 3.6659,3.0008 4.2683,5.604 -2.2774,3.9445 -6.9873,-0.8945 -4.4317,-1.6744 -1.4479,-0.999 -4.3077,5.614 1.3396,1.14 2.7644,3.8473 2.6725,6.5177 -3.2208,3.2208 -6.5177,-2.6725 -3.8473,-2.7644 -1.14,-1.3396 -5.614,4.3077 0.999,1.4479 1.6744,4.4317 0.8945,6.9873 -3.9445,2.2774 -5.604,-4.2683 -3.0008,-3.6659 -0.7544,-1.5891 -6.5376,2.7079 0.5902,1.6571 0.4704,4.7141 -0.9445,6.9808 -4.3996,1.1788 -4.3083,-5.5732 -1.9497,-4.3177 -0.3174,-1.7302 -7.01569,0.9236 0.14119,1.7534 -0.76577,4.6752 -2.71905,6.4984 h -4.55476 l -2.71905,-6.4984 -0.76577,-4.6752 0.14119,-1.7534 -7.01569,-0.9236 -0.3174,1.7302 -1.9497,4.3177 -4.3083,5.5732 -4.3996,-1.1788 -0.9445,-6.9808 0.4704,-4.7141 0.5902,-1.6571 -6.5376,-2.7079 -0.7544,1.5891 -3.0008,3.6659 -5.604,4.2683 -3.9445,-2.2774 0.8945,-6.9873 1.6744,-4.4317 0.999,-1.4479 -5.614,-4.3077 -1.14,1.3396 -3.8473,2.7644 -6.5177,2.6725 -3.2208,-3.2208 2.6725,-6.5177 2.7644,-3.8473 1.3396,-1.14 -4.3077,-5.614 -1.4479,0.999 -4.4317,1.6744 -6.9873,0.8945 -2.2774,-3.9445 4.2683,-5.604 3.6659,-3.0008 1.5891,-0.7544 -2.7079,-6.5376 -1.6571,0.5902 -4.7141,0.4704 -6.9808,-0.9445 -1.1788,-4.3996 5.5732,-4.3083 4.3177,-1.9497 1.7302,-0.3174 -0.9236,-7.01569 -1.7534,0.14119 -4.6752,-0.76577 -6.4984,-2.71905 v -4.55476 l 6.4984,-2.71905 4.6752,-0.76577 1.7534,0.14119 0.9236,-7.01569 -1.7302,-0.3174 -4.3177,-1.9497 -5.5732,-4.3083 1.1788,-4.3996 6.9808,-0.9445 4.7141,0.4704 1.6571,0.5902 2.7079,-6.5376 -1.5891,-0.7544 -3.6659,-3.0008 -4.2683,-5.604 2.2774,-3.9445 6.9873,0.8945 4.4317,1.6744 1.4479,0.999 4.3077,-5.614 -1.3396,-1.14 -2.7644,-3.8473 -2.6725,-6.5177 3.2208,-3.2208 6.5177,2.6725 3.8473,2.7644 1.14,1.3396 5.614,-4.3077 -0.999,-1.4479 -1.6744,-4.4317 -0.8945,-6.9873 3.9445,-2.2774 5.604,4.2683 3.0008,3.6659 0.7544,1.5891 6.5376,-2.7079 -0.5902,-1.6571 -0.4704,-4.7141 0.9445,-6.9808 4.3996,-1.1788 4.3083,5.5732 1.9497,4.3177 0.3174,1.7302 7.01569,-0.9236 -0.14119,-1.7534 0.76577,-4.6752 2.71905,-6.4984 h 4.55476 l 2.71905,6.4984 0.76577,4.6752 -0.14119,1.7534 7.01569,0.9236 0.3174,-1.7302 1.9497,-4.3177 4.3083,-5.5732 4.3996,1.1788 0.9445,6.9808 -0.4704,4.7141 -0.5902,1.6571 6.5376,2.7079 0.7544,-1.5891 3.0008,-3.6659 5.604,-4.2683 3.9445,2.2774 -0.8945,6.9873 -1.6744,4.4317 -0.999,1.4479 5.614,4.3077 1.14,-1.3396 3.8473,-2.7644 6.5177,-2.6725 3.2208,3.2208 -2.6725,6.5177 -2.7644,3.8473 -1.3396,1.14 4.3077,5.614 1.4479,-0.999 4.4317,-1.6744 6.9873,-0.8945 2.2774,3.9445 -4.2683,5.604 -3.6659,3.0008 -1.5891,0.7544 2.7079,6.5376 1.6571,-0.5902 4.7141,-0.4704 6.9808,0.9445 1.1788,4.3996 -5.5732,4.3083 -4.3177,1.9497 -1.7302,0.3174 z"
           id="path995" />
        <circle
           style="fill:none;stroke:#000000;stroke-width:1"
           id="path997"
           cx="0"
           cy="0"
           r="10" />
        <path
           style="fill:#00ebb3;fill-opacity:1;stroke:none;stroke-width:1;stroke-opacity:1"
           d="m 220.6787,-34.994905 1.7534,-0.14119 4.6752,0.76577 6.4984,2.71905 v 4.554755 l -6.4984,2.71906 -4.6752,0.76576 -1.7534,-0.14119 -0.9236,7.0157 1.7302,0.31739 4.3177,1.94971 5.5732,4.3083 -1.1788,4.39959 -6.9808,0.94451 -4.7141,-0.47041 -1.6571,-0.5902 -2.7079,6.5376 1.5891,0.7544 3.6659,3.0008 4.2683,5.604 -2.2774,3.9445 -6.9873,-0.8945 -4.4317,-1.6744 -1.4479,-0.999 -4.3077,5.614 1.3396,1.14 2.7644,3.8473 2.6725,6.5177 -3.2208,3.2208 -6.5177,-2.6725 -3.8473,-2.7644 -1.14,-1.3396 -5.614,4.3077 0.999,1.4479 1.6744,4.4317 0.8945,6.9873 -3.9445,2.2774 -5.604,-4.2683 -3.0008,-3.6659 -0.7544,-1.5891 -6.5376,2.7079 0.5902,1.6571 0.4704,4.7141 -0.9445,6.9808 -4.3996,1.1788 -4.3083,-5.5732 -1.9497,-4.3177 -0.3174,-1.7302 -7.01569,0.9236 0.14119,1.7534 -0.76577,4.6752 -2.71905,6.4984 h -4.55476 l -2.71905,-6.4984 -0.76577,-4.6752 0.14119,-1.7534 -7.01569,-0.9236 -0.3174,1.7302 -1.9497,4.3177 -4.3083,5.5732 -4.3996,-1.1788 -0.9445,-6.9808 0.4704,-4.7141 0.5902,-1.6571 -6.5376,-2.7079 -0.7544,1.5891 -3.0008,3.6659 -5.604,4.2683 -3.9445,-2.2774 0.8945,-6.9873 1.6744,-4.4317 0.999,-1.4479 -5.614,-4.3077 -1.14,1.3396 -3.8473,2.7644 -6.5177,2.6725 -3.2208,-3.2208 2.6725,-6.5177 2.7644,-3.8473 1.3396,-1.14 -4.3077,-5.614 -1.4479,0.999 -4.4317,1.6744 -6.9873,0.8945 -2.2774,-3.9445 4.2683,-5.604 3.6659,-3.0008 1.5891,-0.7544 -2.7079,-6.5376 -1.6571,0.5902 -4.7141,0.47041 -6.9808,-0.94451 -1.1788,-4.3996 5.5732,-4.30829 4.3177,-1.94971 1.7302,-0.31739 -0.9236,-7.0157 -1.7534,0.14119 -4.6752,-0.76576 -6.4984,-2.71906 v -4.554755 l 6.4984,-2.71905 4.6752,-0.76577 1.7534,0.14119 0.9236,-7.01569 -1.7302,-0.3174 -4.3177,-1.9497 -5.5732,-4.3083 1.1788,-4.3996 6.9808,-0.9445 4.7141,0.4704 1.6571,0.5902 2.7079,-6.5376 -1.5891,-0.7544 -3.6659,-3.0008 -4.2683,-5.604 2.2774,-3.9445 6.9873,0.8945 4.4317,1.6744 1.4479,0.999 4.3077,-5.614 -1.3396,-1.14 -2.7644,-3.8473 -2.6725,-6.5177 3.2208,-3.2208 6.5177,2.6725 3.8473,2.7644 1.14,1.3396 5.614,-4.3077 -0.999,-1.4479 -1.6744,-4.4317 -0.8945,-6.9873 3.9445,-2.277405 5.604,4.268305 3.0008,3.6659 0.7544,1.5891 6.5376,-2.7079 -0.5902,-1.6571 -0.4704,-4.714105 0.9445,-6.9808 4.3996,-1.1788 4.3083,5.5732 1.9497,4.317705 0.3174,1.7302 7.01569,-0.9236 -0.14119,-1.753405 0.76577,-4.6752 2.71905,-6.4984 h 4.55476 l 2.71905,6.4984 0.76577,4.6752 -0.14119,1.753405 7.01569,0.9236 0.3174,-1.7302 1.9497,-4.317705 4.3083,-5.5732 4.3996,1.1788 0.9445,6.9808 -0.4704,4.714105 -0.5902,1.6571 6.5376,2.7079 0.7544,-1.5891 3.0008,-3.6659 5.604,-4.268305 3.9445,2.277405 -0.8945,6.9873 -1.6744,4.4317 -0.999,1.4479 5.614,4.3077 1.14,-1.3396 3.8473,-2.7644 6.5177,-2.6725 3.2208,3.2208 -2.6725,6.5177 -2.7644,3.8473 -1.3396,1.14 4.3077,5.614 1.4479,-0.999 4.4317,-1.6744 6.9873,-0.8945 2.2774,3.9445 -4.2683,5.604 -3.6659,3.0008 -1.5891,0.7544 2.7079,6.5376 1.6571,-0.5902 4.7141,-0.4704 6.9808,0.9445 1.1788,4.3996 -5.5732,4.3083 -4.3177,1.9497 -1.7302,0.3174 z"
           id="path995-4" />
        <circle
           style="fill:none;stroke:#000000;stroke-width:1"
           id="path997-5"
           cx="150.8765"
           cy="-29.373898"
           r="10" />
      </g>
    </g>
    <g
       inkscape:groupmode="layer"
       id="layer6"
       inkscape:label="Smoke">
      <ellipse
         style="fill:#3e3f40;fill-opacity:1;stroke:none;stroke-width:2.60902;stroke-opacity:1"
         id="path1064"
         cx="318.36191"
         cy="236.51929"
         rx="43.679001"
         ry="40.471992" />
      <ellipse
         style="fill:#4a4b4c;fill-opacity:1;stroke:none;stroke-width:3.94615;stroke-opacity:1"
         id="path1064-2"
         cx="264.92874"
         cy="112.51762"
         rx="66.793594"
         ry="60.545765" />
      <ellipse
         style="fill:#505152;fill-opacity:1;stroke:none;stroke-width:3.94615;stroke-opacity:1"
         id="path1064-2-6"
         cx="349.51294"
         cy="174.75645"
         rx="66.793594"
         ry="60.545765" />
      <ellipse
         style="fill:#5c5d5f;fill-opacity:1;stroke:none;stroke-width:6.04417;stroke-opacity:1"
         id="path1064-2-3"
         cx="368.81744"
         cy="19.304501"
         rx="105.40258"
         ry="90.010513" />
      <ellipse
         style="fill:#343535;fill-opacity:1;stroke:none;stroke-width:1.94773;stroke-opacity:1"
         id="path1064-7"
         cx="305.82382"
         cy="280.42316"
         rx="32.502716"
         ry="30.311733" />
    </g>
  </g>
  <g
     inkscape:groupmode="layer"
     id="layer4"
     inkscape:label="Cross" />
</svg>
