<svg version="1" xmlns="http://www.w3.org/2000/svg" width="933.333" height="933.333" viewBox="0 0 700.000000 700.000000"><path d="M0 350v350h700V0H0v350zm290.8-194.6c1.5.8 3.7 2.5 4.9 3.8 1.5 1.6 14 40.1 43.5 134 22.7 72.5 41.6 131.8 41.9 131.8.3 0 19.1-59.1 41.7-131.3 22.7-72.1 42-132.3 43-133.7 1-1.4 3.4-3.3 5.3-4.2 3.1-1.7 8.2-1.8 62.1-1.8 43.4 0 59.4.3 61.3 1.2 5.9 2.6 5.5-9.8 5.5 195.4v188.6l-3.4 3.4-3.4 3.4h-35.6c-38.7 0-40-.2-42.4-5.5-.9-2-1.2-35.2-1.3-137.8 0-86.7-.4-134.5-1-133.2-.5 1.1-20.5 62.1-44.5 135.5-30.5 93.6-44.1 134.2-45.7 135.8-4.8 5.1-5.2 5.2-41.4 5.2-36.9 0-38.3-.2-42.4-6-1.4-1.9-72.6-218-86.6-262.5-1.4-4.4-2.9-8.4-3.4-9-.5-.5-.9 54.2-.9 135.2v136.2l-2.4 2.8-2.4 2.8-28 .3-28 .3-.7-3.8c-2.2-11.8-10.5-19-23.6-20.4-9-1-13.9-3.1-18.6-8.1-4.4-4.5-6.3-9.6-6.3-16.8 0-6.6 2.8-13.7 7.2-17.7 3.1-2.9 10.6-6.3 14.1-6.3h2.7v-32.5c0-25.2.3-32.7 1.3-33 .6-.2 2.9-.6 4.9-1 5.8-.9 12.7-6.2 16.2-12.5 7.1-12.6 2.3-28.4-10.6-35.1-2-1-5.5-2.1-7.7-2.5l-4.1-.7V260h2.3c1.3 0 4.6-.7 7.3-1.5C182 255.4 190 244.8 190 234c0-15.4-9.2-25.3-25.8-27.9-11.5-1.8-19.4-8.8-22.3-19.6-3.6-13.1 4.6-27.5 18.1-31.6 1.4-.4 30.8-.8 65.3-.8 52.1-.1 63.3.1 65.5 1.3zm-157.2 53.5c13.4 6.1 19.2 21.3 13.4 34.9-6.9 15.9-29.1 20.5-41.4 8.5-14.3-13.9-9.7-37 8.8-44 4.8-1.8 14.5-1.5 19.2.6zm-17 73.8c19.5 6.6 31.2 27 27 47.3-7.3 35-52.1 44.7-73.7 16-7.6-10.1-9.9-25.1-5.8-37.2 7.4-22.1 30.5-33.6 52.5-26.1zm18.1 111.1c5.5 2.9 11.8 10.2 13.3 15.7 4.9 17.4-7.6 33.9-25.5 33.8-14.2-.1-25.4-11.3-25.5-25.3 0-12.8 5.8-21.1 17.9-25.7 4.9-1.8 14.6-1.1 19.8 1.5zM108.6 511c2.4 1.2 5.4 3.9 7 6.2 2.5 3.5 2.9 5.1 2.9 10.8 0 5.6-.4 7.3-2.8 10.8-3.4 5.3-9 8.2-15.7 8.2-11.1 0-19-7.9-19-19 0-14.4 14.5-23.3 27.6-17z"/></svg>