<?xml version="1.0" standalone="no"?>
<!DOCTYPE svg PUBLIC "-//W3C//DTD SVG 20010904//EN"
 "http://www.w3.org/TR/2001/REC-SVG-20010904/DTD/svg10.dtd">
<svg version="1.0" xmlns="http://www.w3.org/2000/svg"
 width="700.000000pt" height="700.000000pt" viewBox="0 0 700.000000 700.000000"
 preserveAspectRatio="xMidYMid meet">
<metadata>
Created by potrace 1.14, written by Peter Selinger 2001-2017
</metadata>
<g transform="translate(0.000000,700.000000) scale(0.100000,-0.100000)"
fill="#000000" stroke="none">
<path d="M1561 5453 c-26 -9 -65 -36 -91 -62 -100 -100 -106 -252 -14 -359 42
-49 102 -80 184 -93 75 -12 124 -36 167 -81 150 -156 56 -420 -158 -445 l-49
-6 2 -481 3 -480 44 -8 c92 -16 170 -84 197 -174 18 -60 18 -88 -2 -153 -27
-92 -101 -152 -216 -176 l-28 -5 0 -324 0 -324 -37 -7 c-85 -16 -172 -90 -193
-164 -15 -55 -11 -132 9 -176 35 -78 136 -145 218 -145 61 0 134 -30 177 -74
41 -40 76 -114 76 -158 0 -17 15 -18 260 -18 281 0 315 5 342 52 11 19 14 275
18 1373 l5 1349 435 -1334 c239 -733 444 -1347 455 -1363 11 -17 33 -40 48
-51 27 -20 42 -21 360 -24 364 -3 392 0 439 57 16 18 163 457 463 1376 l440
1349 5 -1361 c5 -1319 6 -1362 24 -1382 10 -11 35 -25 55 -31 48 -13 655 -13
703 0 20 6 46 22 58 37 20 26 20 27 20 1920 0 1280 -3 1901 -10 1914 -27 49
-28 49 -657 49 l-588 0 -39 -23 c-21 -12 -46 -36 -55 -52 -9 -17 -201 -619
-426 -1338 -269 -859 -413 -1301 -417 -1289 -4 9 -190 600 -413 1312 -223 712
-414 1306 -424 1320 -10 14 -33 35 -51 48 l-33 22 -631 -1 c-546 0 -637 -3
-675 -16z"/>
<path d="M1110 4920 c-174 -81 -214 -297 -80 -431 166 -166 450 -43 450 194 0
85 -64 188 -144 229 -61 31 -167 35 -226 8z"/>
<path d="M893 4186 c-102 -33 -204 -120 -249 -212 -101 -208 -14 -459 195
-558 61 -29 74 -31 176 -31 104 0 114 2 175 32 167 82 263 265 231 440 -24
133 -119 255 -238 311 -48 21 -75 27 -153 29 -61 2 -110 -2 -137 -11z"/>
<path d="M1116 3080 c-129 -52 -195 -194 -154 -332 16 -55 83 -126 143 -154
87 -41 201 -26 276 35 116 96 125 283 19 389 -75 75 -190 100 -284 62z"/>
<path d="M905 1907 c-70 -33 -115 -103 -115 -182 0 -60 19 -103 63 -142 96
-84 235 -61 297 50 48 85 21 200 -61 254 -49 32 -136 41 -184 20z"/>
</g>
</svg>
