<svg xmlns="http://www.w3.org/2000/svg" data-name="Icon Set" viewBox="0 0 24 24" x="0px" y="0px"><title>Skills</title><path d="M21.27,17.73,15.46,12,19.71,7.7a1,1,0,0,0,.18-.26l2-4a1,1,0,0,0-1.34-1.34l-4,2a1,1,0,0,0-.26.18L12,8.56l-.78-.77a1,1,0,0,0-.7-.29h-.06C9.91,3.25,5.81,4.81,3,2c0,2.79,0,7.8,4.51,8.43a1,1,0,0,0,.28.77l.76.77L2.74,17.73a2.5,2.5,0,1,0,3.53,3.54L12,15.47l5.72,5.79a2.5,2.5,0,1,0,3.54-3.53ZM4.05,4a13.84,13.84,0,0,0,2.41.91c1.85.57,2.92.9,3,3.19L8.1,9.49C5,9.3,4.24,6.87,4.05,4ZM8.5,10.5l2-2,.78.77-2,2ZM5.56,20.56a1.5,1.5,0,0,1-2.12-2.12L5.09,16.8,7.2,18.91ZM7.9,18.2,5.8,16.1,17,5l4-2L19,7Zm12.66,2.36a1.5,1.5,0,0,1-2.12,0l-5.73-5.8,2-2.06,5.81,5.74A1.5,1.5,0,0,1,20.56,20.56Z"/><text x="0" y="39" fill="#000000" font-size="5px" font-weight="bold" font-family="'Helvetica Neue', Helvetica, Arial-Unicode, Arial, Sans-serif">Created by Nathan Gathright</text><text x="0" y="44" fill="#000000" font-size="5px" font-weight="bold" font-family="'Helvetica Neue', Helvetica, Arial-Unicode, Arial, Sans-serif">from the Noun Project</text></svg>
