<?xml version="1.0" standalone="no"?>
<!DOCTYPE svg PUBLIC "-//W3C//DTD SVG 20010904//EN"
 "http://www.w3.org/TR/2001/REC-SVG-20010904/DTD/svg10.dtd">
<svg version="1.0" xmlns="http://www.w3.org/2000/svg"
 width="712.000000pt" height="712.000000pt" viewBox="0 0 712.000000 712.000000"
 preserveAspectRatio="xMidYMid meet">
<metadata>
Created by potrace 1.14, written by Peter Selinger 2001-2017
</metadata>
<g transform="translate(0.000000,712.000000) scale(0.100000,-0.100000)"
fill="#000000" stroke="none">
<path d="M1306 6134 c-213 -66 -309 -302 -206 -504 44 -87 158 -164 260 -176
153 -18 267 -111 309 -250 48 -160 -29 -334 -182 -408 -31 -16 -78 -31 -102
-34 l-45 -5 2 -635 3 -636 35 -3 c91 -10 205 -95 248 -185 93 -193 -21 -427
-229 -470 l-59 -12 0 -428 c0 -335 -3 -428 -12 -429 -120 -8 -229 -72 -285
-169 -55 -93 -50 -233 12 -329 60 -95 138 -138 275 -151 60 -6 108 -17 144
-33 96 -44 169 -141 183 -242 5 -40 9 -45 32 -46 14 0 176 0 359 0 320 1 335
1 367 21 70 43 65 -106 66 1854 0 975 4 1760 9 1746 12 -36 156 -476 325 -995
81 -247 187 -571 235 -720 49 -148 123 -376 165 -505 42 -129 89 -273 105
-320 16 -47 88 -267 160 -490 154 -476 163 -500 198 -533 65 -60 55 -59 536
-59 422 -1 444 0 487 19 86 38 73 8 315 748 36 110 103 315 149 455 46 140
118 361 160 490 42 129 109 336 150 460 40 124 135 414 210 645 76 231 162
494 192 585 30 91 56 172 58 180 2 8 7 26 13 39 5 15 9 -659 9 -1746 0 -1737
0 -1771 19 -1804 11 -18 34 -42 53 -52 31 -19 57 -20 501 -19 l469 0 37 22
c69 43 64 -164 64 2561 0 2750 6 2515 -69 2557 l-39 22 -773 0 c-765 0 -773 0
-816 -21 -66 -32 -90 -72 -145 -246 -54 -173 -232 -738 -308 -983 -49 -158
-59 -191 -151 -480 -29 -91 -54 -169 -55 -175 -1 -5 -20 -66 -42 -135 -50
-155 -93 -292 -96 -305 -1 -5 -25 -82 -53 -170 -28 -88 -60 -189 -71 -225 -11
-36 -59 -189 -107 -340 -96 -303 -122 -386 -137 -443 -6 -20 -13 -37 -17 -37
-3 0 -17 35 -30 78 -14 42 -37 115 -52 162 -14 47 -45 144 -67 215 -23 72 -68
216 -101 320 -153 486 -202 641 -206 655 -2 8 -31 103 -65 210 -34 107 -106
337 -160 510 -54 173 -126 403 -160 510 -34 107 -79 251 -100 320 -21 69 -46
145 -54 170 -8 25 -34 105 -57 179 -35 114 -47 139 -80 172 -21 21 -55 42 -76
48 -25 7 -306 11 -848 10 -690 0 -817 -3 -859 -15z"/>
<path d="M754 5450 c-184 -41 -305 -228 -269 -415 11 -56 52 -131 95 -174 124
-123 313 -139 452 -39 161 116 194 344 72 503 -31 41 -113 97 -168 115 -46 15
-139 20 -182 10z"/>
<path d="M453 4474 c-204 -42 -380 -218 -422 -422 -44 -215 51 -445 234 -567
179 -119 420 -119 599 0 370 246 310 802 -104 965 -92 36 -205 45 -307 24z"/>
<path d="M740 3024 c-154 -41 -261 -174 -262 -329 -1 -77 5 -106 38 -172 85
-167 299 -237 467 -151 204 103 255 378 101 547 -86 96 -220 137 -344 105z"/>
<path d="M444 1471 c-102 -34 -169 -120 -178 -225 -9 -97 50 -203 138 -248 63
-32 165 -34 225 -3 105 53 160 151 147 263 -19 162 -180 265 -332 213z"/>
</g>
</svg>
