<?xml version="1.0" standalone="no"?>
<!DOCTYPE svg PUBLIC "-//W3C//DTD SVG 20010904//EN"
 "http://www.w3.org/TR/2001/REC-SVG-20010904/DTD/svg10.dtd">
<svg version="1.0" xmlns="http://www.w3.org/2000/svg"
 width="700.000000pt" height="700.000000pt" viewBox="0 0 700.000000 700.000000"
 preserveAspectRatio="xMidYMid meet">
<metadata>
Created by potrace 1.14, written by Peter Selinger 2001-2017
</metadata>
<g transform="translate(0.000000,700.000000) scale(0.100000,-0.100000)"
fill="#000000" stroke="none">
<path d="M1561 5453 c-61 -22 -133 -96 -154 -158 -43 -124 5 -254 116 -319 23
-14 73 -30 111 -36 80 -13 129 -36 173 -82 150 -156 56 -420 -158 -445 l-49
-6 2 -481 3 -480 44 -8 c184 -31 270 -252 157 -401 -33 -44 -116 -96 -153 -97
-55 0 -53 15 -53 -335 l0 -323 -37 -7 c-85 -16 -172 -90 -193 -164 -27 -98 -2
-190 69 -254 51 -46 76 -56 166 -68 130 -17 211 -83 236 -194 l12 -55 259 0
c201 0 266 3 293 14 70 29 65 -71 66 1418 l1 1343 78 -235 c43 -129 241 -732
439 -1340 198 -607 369 -1116 379 -1129 10 -14 31 -34 46 -45 26 -20 42 -21
359 -24 364 -3 392 0 439 57 16 18 163 456 463 1375 l440 1349 5 -1362 5
-1363 27 -23 c15 -13 47 -27 70 -30 24 -3 188 -5 365 -3 308 3 323 4 350 24
15 11 34 38 41 59 18 55 13 3760 -6 3792 -30 53 -24 53 -657 53 -644 0 -632 1
-675 -60 -10 -15 -205 -619 -432 -1343 -270 -860 -416 -1311 -420 -1299 -4 9
-190 600 -413 1312 -223 712 -414 1306 -424 1320 -10 14 -33 35 -51 48 l-33
22 -631 -1 c-546 0 -637 -3 -675 -16z"/>
<path d="M1110 4920 c-174 -81 -214 -297 -80 -431 164 -164 450 -45 450 186 0
93 -61 195 -144 237 -61 31 -167 35 -226 8z"/>
<path d="M893 4186 c-102 -33 -204 -120 -249 -212 -101 -208 -14 -459 195
-558 61 -29 74 -31 176 -31 105 0 114 2 177 33 123 60 204 169 229 306 24 130
-23 268 -125 364 -83 78 -149 106 -266 109 -61 2 -110 -2 -137 -11z"/>
<path d="M1116 3080 c-129 -52 -195 -194 -154 -332 6 -22 30 -60 52 -85 122
-139 335 -119 425 39 55 96 48 204 -18 294 -65 88 -202 126 -305 84z"/>
<path d="M905 1906 c-72 -33 -115 -100 -115 -181 0 -60 19 -103 63 -142 46
-40 98 -57 155 -49 174 24 228 256 81 353 -49 32 -137 41 -184 19z"/>
</g>
</svg>
