<svg version="1" xmlns="http://www.w3.org/2000/svg" width="1642.667" height="1642.667" viewBox="0 0 1232.000000 1232.000000"><path d="M227.5 167.6c-10.6 2.6-20.2 8.1-28.5 16.4-4.2 4.1-8.2 8.8-9 10.5-.8 1.6-1.9 3.7-2.6 4.5-1.1 1.4-4.5 10.9-4.3 12 0 .3-.5 1.8-1.1 3.5-.6 1.6-1.1 6.8-1.2 11.5-.1 24.5 14.1 46.6 36.3 56.4 4.8 2.1 14.7 4.8 16.7 4.5.4-.1.9 0 1.2.1.3.1 2.1.3 4 .5 7.1.6 14.5 3.2 23 8 3.2 1.8 14.9 11.8 14.9 12.8.1.4 1.2 2 2.6 3.5 1.4 1.5 2.8 3.6 3.1 4.7.4 1.1 1.2 2.7 1.9 3.5.7.8 2.3 4.4 3.5 8 2.8 7.8 3.6 26 1.6 33.7-1.4 5-5.6 15.4-6.6 16.3-.3.3-1.6 2.2-2.9 4.2-3.7 6.1-14.9 15.6-22.9 19.5-4 1.9-7.8 3.6-8.5 3.7-.7.1-2.2.6-3.5 1-1.3.4-5.3 1.1-9 1.4l-6.7.7-.1 110.2V629l3.5.1c2 .1 4.5.3 5.6.5 1.1.1 3.5.5 5.3.8 3.9.6 12.1 3.5 14.2 5.1.8.6 2.9 1.7 4.5 2.5 1.7.8 5.9 4.5 9.5 8.1 8 8.1 8.2 8.5 11.3 14.6 11.2 22 7.3 48.8-9.6 66.7-3.4 3.6-6.8 6.6-7.5 6.6-.6 0-1.2.4-1.2.8 0 1.4-14 7.8-19.9 9.2-4.5 1.1-8.2 1.6-14.7 1.9-.7.1-1 22.7-1 75.1.1 59.1-.2 75.1-1.1 75.5-.7.2-1.3 0-1.3-.6s-.3-.8-.7-.6c-.5.3-3 .8-5.6 1.1-26.1 3.5-47.2 27.9-47.1 54.6 0 4.7.4 10.1.8 12 .9 4.9 4.5 13.8 7.4 18.5 3.1 4.9 15.8 17.5 17.7 17.5.7 0 1.5.3 1.7.7 1 2.4 15.4 7.2 22.6 7.7 2.7.2 5.4.6 5.9.9.5.3 1.5.2 2.2-.2 1.1-.7 9.6 1 18.1 3.5 4.6 1.4 14.5 8.3 19.7 13.7 8.7 9.1 14.5 21.8 15.5 34.2.4 3.9.5 4 4.3 4.3 5 .3 4.1.3 16-.1 5.5-.2 10.6.1 11.3.6.7.6 1.2.6 1.2 0 0-.5.9-.9 2-.9s2 .4 2 .9c0 .6.5.6 1.3.1.6-.5 4.8-.8 9.2-.7 4.4.1 8.7.3 9.5.3.8 0 5.8-.1 11-.3 5.2-.1 10.1.1 10.8.6.6.5 1.2.6 1.2.1 0-1.1 30-1.1 31.8-.1.6.5 1.2.4 1.2 0 0-.5 2.1-.8 4.7-.7 2.6.1 6.7-.5 9-1.3 4.5-1.6 13.7-9.8 12.7-11.4-.3-.5-.2-.9.3-.9.4 0 1.3-1.5 1.8-3.3.7-2.1 1-107.3 1-310.4 0-169 .3-307.3.8-307.3.4 0 .7.8.7 1.8s.3 2.2.7 2.6c.4.3.8 1.2.9 1.9.1.7 1.5 5.3 3.2 10.2 1.6 5 4.4 13.5 6.1 19 1.8 5.5 3.5 10.7 3.8 11.5.3.8.7 1.9.8 2.5.6 2.3 6.7 21.2 7.5 23 .5 1.1 4.1 12.1 8 24.5 3.9 12.4 7.5 23.4 7.9 24.5.5 1.1 1.4 3.8 2 6 .7 2.2 1.6 4.9 2 6 1.9 4.7 8.5 26.1 8.3 26.7-.1.5.2.8.7.8.5 0 .8.6.7 1.2 0 .7 2.8 10.1 6.4 20.8 3.5 10.7 6.4 19.7 6.5 20 .2 1 20.8 63.6 21.5 65.5.5 1.1 2.3 6.5 4 12 1.7 5.5 3.5 10.9 4 12 1.1 2.6 7.1 21.2 7.4 22.8.1.7.4 1.6.8 2.2.5.9 7.1 21.2 7.3 22.5 0 .3.3.9.6 1.5.4.5 1 2.3 1.4 4 .5 1.6.9 3.2 1 3.5 2.6 8.6 4.9 15.7 5.4 16.5.3.5.6 1.2.7 1.5 0 .4 1.9 6.8 2.9 10 .1.3.4 1.2.8 2 .3.8 2.7 8 5.2 16 2.6 8 6.9 21 9.5 29 2.6 8 7.3 22.6 10.5 32.5 3.1 9.9 6.1 18.9 6.5 20 1.3 3 10.1 30.5 10.5 32.6.2 1.1.7 2.4 1 2.9.3.5.8 1.8 1 2.7.2 1 1.3 4.2 2.4 7.1 1.1 2.9 1.9 5.4 1.9 5.5-.2.3 2.3 8 3.2 10.2 1 2.2 9.4 28.6 9.5 29.7 0 .3.3 1 .8 1.4.4.4.7 1.6.7 2.6s.4 2.6.9 3.6c.6.9 3.7 10.2 7.1 20.5 6.9 21.6 7.6 23 12.7 28.4 6.2 6.4 13.4 10.4 19.9 10.8 1.2.1 2.8.5 3.7.8.9.3 1.9.2 2.2-.3.3-.5 1.8-.5 3.5 0 1.9.5 3 .5 3-.1s.6-.6 1.8 0c1 .6 2.4.6 3.2.1.8-.5 1.8-.6 2.4-.3 1.3.8 14.8.8 16.9 0 .9-.3 1.7-.2 1.7.3s1.3.5 3 0 3-.6 3-.2c0 .4 1.8.7 3.9.7 2.2 0 3.7-.3 3.4-.7-.2-.5.8-.3 2.2.2 1.8.7 3.3.7 4.6 0 1-.6 1.9-.7 1.9-.3 0 .9 19 .9 21.4 0 .8-.3 1.8-.2 2.1.3.3.5 1.8.5 3.5 0s3-.6 3-.2c0 .4 2.7.7 6 .7s6-.3 6-.7c0-.4 1.4-.3 3 .2 1.9.5 3 .5 3-.1s.7-.6 1.8-.1c1.9.9 5.4.8 7.1-.2.6-.4 1.1-.3 1.1.3s1.1.6 3 .1c1.6-.5 3-.6 3-.2 0 .4 1.8.7 3.9.7 2.2 0 3.7-.3 3.4-.7-.2-.5.8-.3 2.2.2 1.8.7 3.3.7 4.6 0 1.2-.7 1.9-.7 1.9-.1s1.1.6 3 .1 3-.5 3 .1.8.5 2.1-.1c1.1-.7 2.3-.9 2.6-.6.4.3 1.2.1 2-.5.7-.6 1.3-.9 1.3-.5 0 1.7 11.1-5.2 15.2-9.5 5.4-5.6 6.4-7.6 11.9-24.9 2.2-6.9 4.4-13.4 4.9-14.5 1.4-3.3 6-17.8 6.4-20.1.1-1.1.6-2.6 1-3.2.4-.7.9-2 1.1-2.9.3-1 1.6-5.2 3-9.3 1.5-4.1 2.7-8 2.9-8.5.3-1.3 4.6-14.5 5.3-16.5.3-.8.7-2 .8-2.5.2-1 5.2-16.5 6.3-19.5.3-.8.6-2.2.8-3 .2-.8.7-2.3 1.3-3.5 1.1-2.3 4.4-12.2 4.8-14.6.1-.9.8-2.9 1.5-4.5.6-1.6 1.2-3.4 1.3-3.9.1-.6 1-3.5 2-6.5 1.1-3 1.8-5.8 1.7-6.3-.1-.4.2-.7.6-.7.5 0 .9-.6.9-1.3 0-.7 5.2-17.4 11.7-37.2 14.1-43.3 14-42.9 14.1-43.5.1-.3.4-1.2.8-2 .3-.8 1.5-4.4 2.6-8 1.1-3.6 3.4-10.5 5.1-15.5 1.6-4.9 3-9.8 3-10.7 0-1 .5-1.8 1.2-1.8.6 0 .9-.3.6-.6-.3-.3 1.9-7.8 4.9-16.7 3-8.9 5.6-16.9 5.8-17.7.2-.8.4-1.5.5-1.5.1 0 .3-.7.5-1.5.1-.8 3.6-11.4 7.6-23.5 4-12.1 7.2-22.6 7.2-23.3 0-.6.4-1.2.9-1.2.4 0 .7-.3.6-.8-.2-.8 9.8-32.7 11.3-35.7.5-1.1 1.1-2.9 1.4-4 .2-1.1 1.3-4.9 2.5-8.5 1.2-3.6 2.3-7 2.5-7.5.1-.6.5-1.7.8-2.5.8-1.9 11.8-35.9 12.2-37.4.1-.6.5-1.8.8-2.6 1.1-2.5 10.9-32.9 11.1-34.3.1-.6.4-1.7.7-2.2.4-.6 1.4-3.5 2.3-6.5 1-3 2-6.2 2.3-7 .3-.8.8-2.4 1-3.4.2-1.1.8-2.5 1.4-3.3.6-.7.9-1.3.5-1.3-.3 0 .1-1.7.8-3.8 1.6-4.1 12.6-37.8 13.1-40.2.2-.8 1.8-5.3 3.4-10 1.7-4.7 3-8.5 2.9-8.5 0 0 2.3-7.2 5.2-16 2.9-8.8 5.3-16.6 5.3-17.2 0-.7.3-1 .6-.7.3.3.6 139 .6 308.2l.1 307.7 2 4.5c1.2 2.5 3.2 5.7 4.5 7.2 2.8 3 9.3 6.6 12.9 7 1.4.2 3 .7 3.6 1 .6.4 1.4.4 1.8 0 1.1-1 20.6-.9 20.6.2 0 .5.6.4 1.3-.1 1-.7 52.6-1 53.5-.3.3.3 4 .3 5 0 2.2-.7 20.2-.4 20.2.4 0 .5.6.4 1.3-.1 1-.8 20-1 21.7-.3.3.1 1 .1 1.5 0 .6-.1 7.3-.3 15-.4 7.7-.1 14.6-.5 15.3-.9.6-.5 1.2-.6 1.2-.2 0 .9 5.5-2.2 8.9-5.1 1.7-1.4 4.2-4.5 5.4-6.8l2.2-4.1.2-430.6c.2-374.1 0-430.9-1.3-433.3-.7-1.6-1.4-3.4-1.4-4 0-2.2-6.4-7.9-11.6-10.3l-5.1-2.3-134.4.2-134.4.3-5.7 2.7c-6.1 2.8-14.8 10.2-14.8 12.5 0 .7-.4 1.3-.9 1.3-.9 0-5.3 11.8-4.9 13 .1.3-.4 1.5-1.1 2.8-.7 1.3-1.4 3.3-1.6 4.4-.4 2.1-4.1 13.8-5.2 16.8-.4.8-.7 1.7-.8 2-2.3 8.8-3 11-3.5 11-.3 0-.6.9-.7 2.1-.2 1.8-4.3 15.3-6 19.9-.8 1.9-.7 1.8-1.7 6-.5 1.9-1.3 4.1-1.8 4.7-.6.7-.7 1.3-.4 1.3.4 0 .2.9-.4 2.1-.6 1.1-1.3 3-1.5 4.1-.3 1.2-2.4 8-4.7 15.2-2.3 7.2-4.3 13.3-4.3 13.6-.1.3-.5 1.6-.9 3-6.9 21.9-12.3 39.3-16.1 51.5-2.6 8.2-5.3 16.8-6 19-.8 2.2-3.7 11.4-6.5 20.5-8.1 26.1-15.1 48.3-16 51-.5 1.4-2.5 7.9-4.5 14.5s-3.9 12.7-4.2 13.5c-.2.8-.4 1.5-.3 1.5.1 0-.4 1.3-1 3-1.4 3.6-17 53.3-17.5 55.7-.2.9-.9 2.7-1.6 4-.7 1.3-1.2 2.4-1 2.6.2.2-2.7 10.9-3.6 13.2-.4.8-.7 1.7-.7 2-.1.3-.5 1.1-.9 1.7-.5.7-.5 1.7-.2 2.3.3.5.2 1-.3 1s-.9.6-.9 1.2c0 1.1-3.2 11.6-5.1 16.8-.3.8-.6 2-.8 2.7-.1.6-2.3 7.7-4.9 15.7-2.6 8-4.7 14.9-4.7 15.3 0 .5-.6 2.4-1.4 4.3-.7 1.9-2.9 8.9-4.9 15.5-2 6.6-3.9 12.7-4.2 13.5-.3.8-.7 2-.8 2.6-.4 1.5-4.5 14.3-5.7 17.6-.6 1.5-1 3-.9 3.2 0 .3-.6 2.3-1.4 4.5-.7 2.2-1.1 4.2-.8 4.5.4.3.1.6-.5.6-.7 0-1.2.9-1.2 2 0 1-.4 2.9-.9 4.2-.6 1.3-3.2 9.5-6 18.3-9.4 30.4-14.3 46-17.7 56.5-1.9 5.8-3.4 10.9-3.5 11.5 0 .5-.7 2.6-1.5 4.5s-1.5 3.7-1.5 4c.1.3-.4 2.1-1.1 4l-1.1 3.5-1.4-4c-.8-2.2-1.6-4.8-1.8-5.8-.2-1-1.3-4.4-2.3-7.5-1.1-3.1-2.5-7.7-3.2-10.2-.7-2.5-1.6-5.4-2-6.5-.5-1.1-1.7-4.9-2.8-8.5-1.1-3.6-3.9-12.6-6.2-19.9-2.3-7.4-4.3-14-4.5-14.5-.1-.6-.5-1.8-.8-2.6-.5-1.4-9-27.9-9.2-29-.1-.3-.8-2.5-1.5-5s-1.4-4.7-1.5-5c-.1-.7-7.3-23.2-10.2-32-1.4-4.1-2.5-8.3-2.6-9.3-.1-.9-.5-1.7-.9-1.7s-.8-.9-.8-2-.6-3.7-1.4-5.7c-.8-2.1-2.6-7.6-4-12.3-1.5-4.7-3-9.2-3.3-10-.3-.8-.7-2.2-.8-3-.1-.8-1.7-5.8-3.4-11-1.8-5.2-3.3-10.2-3.5-11-.2-.8-.6-2.2-.9-3-1.1-2.9-4.2-12.5-4.3-13.5-.1-.6-.3-1.3-.4-1.8-.1-.4-.3-1-.5-1.5-.1-.4-.4-1.4-.8-2.2-.9-2.5-4.9-15.4-5.2-17.2-.2-.9-.9-2.7-1.6-4-.7-1.3-1.2-2.5-1.1-2.8.2-.5-4.5-16.6-5.5-19-.4-.8-.8-2-.9-2.5-.1-.6-.3-1.2-.4-1.5-.1-.3-.3-1.2-.5-2s-1.3-4.1-2.4-7.3c-1.1-3.1-1.7-5.7-1.4-5.7.3 0 .1-.6-.5-1.3-.5-.6-1.5-3.2-2.1-5.7-.7-2.5-1.6-5.4-2-6.5-.5-1.1-1.9-5.4-3.1-9.5-1.2-4.1-3.5-11.3-5-16-4.1-12.7-9-28.6-9-29.3 0-.3-.5-1.8-1.2-3.4-.6-1.5-1.2-3.3-1.3-3.8 0-.6-.4-1.7-.7-2.5-.4-.8-2.1-6.2-3.8-12-1.8-5.8-3.8-12.3-4.5-14.5-.7-2.2-3.5-10.8-6-19-2.6-8.3-5.8-18.3-7.1-22.4-1.3-4.1-2.6-8.3-2.8-9.5-.5-2.1-2.1-7.1-3.7-11.1-1-2.6-3-9.3-3.3-10.8-.1-.7-1.6-5.5-3.3-10.7-1.7-5.2-4.3-13.6-5.8-18.5-1.5-5-3.2-10.4-3.8-12-.7-1.7-1.2-3.2-1.2-3.5-.1-.3-1.3-4.6-2.9-9.5-6.2-19.9-8.8-28.1-9.2-29.5-.3-.8-.5-1.5-.4-1.5 0 0-1.3-4.1-3-9-1.7-5-3.1-9.2-3.1-9.5-.2-.9-.7-2.5-3.9-12.8-1.8-5.6-3.6-10.2-4.1-10.2-.5 0-.9-.6-.9-1.4 0-2.6-8.5-10.2-14.6-13.2l-5.9-2.9-142.5-.2c-121.3-.1-143.4.1-148.5 1.3z"/><path d="M140.8 286.4c-.1.2-3.2.6-6.8.9-12.1 1.1-24.6 6.7-33.4 14.9-3.1 3-5.8 5.3-5.9 5.2-.8-.9-8.7 12.9-11 19.1-2.8 7.9-3.3 10.1-3.3 15.2.1 2.9-.2 5.3-.6 5.3-.4 0-.6.6-.3 1.2.2.7.6 3.5.9 6.3 1.5 12.1 6.1 22.9 13.8 32.2 6.9 8.2 20.8 17.3 28.6 18.8 1.2.2 2.5.6 3 .8 1.4.9 10.8 2 15.7 1.9 6.1-.2 10.7-.9 16-2.4 2.2-.6 4.2-1.2 4.5-1.3.3 0 2.9-1.3 5.9-2.8 11.5-5.9 20.7-14.9 26.1-25.6 4.2-8.2 6-13.7 6.6-20.1.3-3 .7-6.4.8-7.5.3-1.9-.7-10.1-1.8-15.4-3.9-17.5-18.3-34.5-35.1-41.3-8.2-3.3-8.5-3.4-16-4.3-2.7-.3-5.5-.7-6.2-.9-.6-.3-1.3-.3-1.5-.2zM86.5 455.9c-.3.2-1.8.5-3.3.6-4.9.4-11.6 1.6-13.4 2.6-1 .5-1.8.7-1.8.4 0-.3-1.3.1-3 1-1.6.9-3 1.3-3 .9s-.7 0-1.7.7c-.9.8-1.8 1.3-2 1.1-.6-.5-12.3 5.7-17.2 9.1-9.9 6.8-18.9 16-25.5 26-3.8 5.8-10.5 19.4-11.1 22.6-.1.9-.8 3.4-1.3 5.6C1 534.6.8 536.7.5 548.7c-.2 10.9.2 15.2 2.9 26.8.9 3.9 1.9 6.7 5.6 15 8.2 18.5 27.1 37.3 46 45.7 15.4 6.9 24.9 8.8 41.5 8.4 13.5-.4 15.4-.6 24.5-3.4 3-.9 5.8-1.5 6.3-1.4.4.1.7-.2.7-.6 0-.5.6-.9 1.4-.9 1.4 0 14.6-6.3 15.6-7.4.3-.3 3.2-2.5 6.5-4.9 6-4.4 19.5-17.7 19.5-19.3 0-.4.8-1.7 1.9-2.8 1-1.1 2.7-3.7 3.7-5.9s2.3-4 2.7-4c.5 0 .5-.5.2-1-.3-.6-.1-1 .5-1s.9-.4.5-.9c-.3-.5-.1-1.2.4-1.5.9-.6 3.9-8.6 4.6-12.4.2-.9.4-1.8.5-2 .2-.1.4-.7.5-1.2.1-.6.3-1.1.5-1.3.8-1 2.2-11.9 2.4-19.2.7-18-4.2-37.1-13.1-51.3-1.8-2.9-3.3-5.5-3.3-5.7 0-2.5-17.9-19.7-25.6-24.8-6.7-4.4-17.7-9.9-22.4-11.2-.3 0-3.1-.9-6.2-1.8-3.2-1-8.1-1.9-11-2.2-2.9-.2-5.3-.5-5.3-.5 0-.5-15.6-.6-16-.1zM127.1 709.6c-3.6.7-7.9 2-9.7 2.9-1.8.8-3.5 1.5-3.8 1.5-1.5 0-11.7 7.3-15.9 11.4-4.9 4.7-11.6 14.4-13.4 19.3-.6 1.5-1.5 3.7-1.9 4.8-3.2 8.4-3.9 23-1.5 33.5 4.7 20.5 24.7 40.8 43.9 44.5.9.2 1.7.4 1.7.6 0 1 17.4 1.7 21.9.7 2.2-.4 5.5-1 7.1-1.3 3.1-.4 16.1-6.2 18.1-8 .7-.6 2.4-1.9 4-3 4.4-3.2 11.9-11.6 14.1-16 .9-1.7 1.9-3.2 2.2-3.5.6-.5 4-9.5 4.6-12.1.2-.9.7-3.2 1.2-5 1.9-7.1.6-23.4-2.4-30.7-.7-1.7-1.1-3.2-.8-3.2.5 0-6.1-11.5-7.9-13.8-.6-.8-3.8-4-7-7.3-5.3-5.2-15.5-11.4-24.1-14.4-5.6-2-22.8-2.5-30.4-.9zM77.1 979.1c-9.6 2.4-14.4 5.1-21.1 11.8-14.9 14.7-17.6 36.6-6.7 54.6 3.2 5.4 12.3 14.5 14.4 14.5.7 0 1.3.4 1.3.8 0 .7 5.4 3.1 8.3 3.8.4.1.8.2 1 .4 1.7 1.3 19.1 1.9 23.6.7 5.8-1.5 9.1-2.9 9.1-3.8 0-.5.3-.8.8-.7 1 .3 7.2-3.5 7.2-4.4 0-.4.7-.8 1.5-.8s1.5-.4 1.5-.9c0-.4 1.5-2.4 3.3-4.4 6.7-7 10.7-18.6 10.1-29.3-.5-10.2-1-12.1-4.3-18.8-9.1-18.6-30.2-28.5-50-23.5z"/></svg>