<svg xmlns="http://www.w3.org/2000/svg" viewBox="0 0 200 200"><defs><style>.a{fill:#4a4b4c;}.b{fill:#f8c811;}.c{fill:#fff;}</style></defs><title>MAKE NTNU icon logo - dark, rounded border</title><rect class="a" width="200" height="200" rx="50"/><path class="b" d="M175.75,37.82H140.18A4.82,4.82,0,0,0,135.87,41l-26,82.81h0v0L83.9,41a4.82,4.82,0,0,0-4.31-3.16H42.39a8.38,8.38,0,0,0-1.82,16.57l1,.12h0a8.39,8.39,0,0,1-.83,16.73h0v30.48a8.06,8.06,0,0,1,0,16.11v20.7a7.75,7.75,0,1,1,0,15.49,7.76,7.76,0,0,1,7.75,7.75H64.77a3.32,3.32,0,0,0,3.31-3.31V77.82h0v-4h0v0l1,3.15h0L77,101.14h0l5.43,16.63,13.34,40.86a4.88,4.88,0,0,0,4.34,3.15h19.53a4.88,4.88,0,0,0,4.34-3.15l13.34-40.86,13.33-40.85h0l1-3.15v84.7a3.32,3.32,0,0,0,3.32,3.31h20.74a3.32,3.32,0,0,0,3.31-3.31V41.13A3.32,3.32,0,0,0,175.75,37.82Z" transform="translate(0 0)"/><circle class="b" cx="21.09" cy="156.03" r="6.17"/><path class="c" d="M40.71,138.54a7.75,7.75,0,1,0,0,15.49h0a7.75,7.75,0,1,0,0-15.49Z" transform="translate(0 0)"/><circle class="b" cx="28.38" cy="121.03" r="8.39"/><circle class="c" cx="22.15" cy="90.86" r="13.08"/><circle class="b" cx="28.46" cy="62.86" r="8.39" transform="translate(-13.68 8.22) rotate(-13.28)"/></svg>
