<svg xmlns="http://www.w3.org/2000/svg" viewBox="0 0 200 200"><defs><style>.a{fill:#fff;}.b{fill:#f8c811;}.c{fill:#4a4b4c;}</style></defs><title>MAKE NTNU icon logo - bordered</title><rect class="a" width="200" height="200"/><path class="b" d="M168,43.72H135.8a4.35,4.35,0,0,0-3.9,2.87l-23.52,74.94h0v0L84.86,46.58A4.34,4.34,0,0,0,81,43.71H47.3a7.59,7.59,0,0,0-1.65,15l.93.12h0A7.59,7.59,0,0,1,45.82,74h0v27.59a7.29,7.29,0,1,1,0,14.58v18.73a7,7,0,1,1,0,14,7,7,0,0,1,7,7H67.55a3,3,0,0,0,3-3v-73h0V76.26h0l.93,2.85h0L78.64,101h0l4.92,15.06,12.07,37a4.41,4.41,0,0,0,3.93,2.85h17.67a4.41,4.41,0,0,0,3.93-2.85l12.07-37,12.07-37h0l.93-2.85v76.65a3,3,0,0,0,3,3H168a3,3,0,0,0,3-3V46.72A3,3,0,0,0,168,43.72Z"/><circle class="b" cx="28.03" cy="150.7" r="5.58"/><path class="c" d="M45.78,134.88a7,7,0,1,0,0,14h0a7,7,0,0,0,0-14Z"/><circle class="b" cx="34.62" cy="119.03" r="7.59"/><circle class="c" cx="28.98" cy="91.73" r="11.84"/><circle class="b" cx="34.7" cy="66.39" r="7.59" transform="translate(-14.33 9.75) rotate(-13.28)"/></svg>
