<svg version="1" xmlns="http://www.w3.org/2000/svg" width="1642.667" height="1642.667" viewBox="0 0 1232.000000 1232.000000"><path d="M227.5 167.6c-10.6 2.6-20.2 8.1-28.5 16.4-4.2 4.1-8.2 8.8-9 10.5-.8 1.6-1.9 3.7-2.6 4.5-1.1 1.4-4.5 10.9-4.3 12 0 .3-.5 1.8-1.1 3.5-1.7 4.4-1.4 19.1.4 26.2 4.1 15.6 11.2 26 24.3 35.6 5.5 4 14.6 8.4 19 9.2 6.1 1 11 1.7 14.3 2.1 1.9.2 4.7.5 6.3.8 3.5.5 14.1 4.8 14.5 5.9.2.4.8.5 1.3.1.5-.3.9 0 .9.5 0 .6.5 1.1 1.1 1.1 3.3 0 20.5 17 19.9 19.6-.1.4.2 1 .7 1.3 1.9 1.4 5.6 10.5 8 20.1 1.6 6.3-.4 27.7-2.9 30.7-.6.7-.7 1.3-.4 1.3.4 0-.9 3.1-3 7-3.5 6.8-14.8 20-17.1 20-.6 0-1.4.7-1.7 1.6-.3.8-1 1.2-1.6.9-.5-.3-1-.2-1 .4 0 .6-1.1 1.3-2.5 1.7-1.4.3-2.5 1.1-2.5 1.7 0 .6-.3.7-.7.4-.3-.4-1.2-.2-1.9.3-2.1 1.8-15.7 5.2-21.6 5.3-3.2.1-5.8.4-5.9.7-.5 2.8-.2 218.5.3 219.3.4.6 2.6 1.3 5 1.4 12.7.7 25.4 6.8 35.8 17.3 4.1 4.2 8.3 9.2 9.2 11.1 5.3 11 7 16.5 7.2 24.6 0 2.9.5 5.3.9 5.3.5 0 .6.4.3.8-.3.5-.7 3-1.1 5.8-2 17.5-13.8 35.3-29.1 43.8-5.7 3.2-15.9 6.4-22.8 7.2-2.8.4-5.3.8-5.6.9-.3.2-.5 33.9-.4 74.9 0 52.3-.3 74.6-1 74.6-8.2.4-13.1 1.2-18.1 3-22.3 8.4-37 29-36.9 52 0 4.7.4 10.1.8 12 .9 4.9 4.5 13.8 7.4 18.5 3.1 4.9 15.8 17.5 17.7 17.5.7 0 1.5.3 1.7.7.2.5 1.9 1.6 3.8 2.5 7 3.3 14.5 5.1 22.9 5.3 4.7.2 9.3.5 10.1.8.8.2 4.4 1.3 8 2.3 7.4 2 17.8 8.2 23.5 14 5.6 5.7 12.5 17.1 13.9 22.9.6 2.2 2.2 12.5 2.5 15.8.1.5.7.7 1.4.4.6-.2 2 0 3 .5 1.1.5 1.7.5 1.7-.1 0-.7.8-.7 2.3-.2 1.3.5 3 .5 3.7.1.8-.5 2.2-.4 3.1.1 1.1.6 2 .5 2.4-.1.4-.6 1.5-.6 3 0 1.4.5 2.5.6 2.5.2 0-.9 6.9-.6 7.8.2.2.3 1.3.1 2.3-.4 1.2-.7 2-.7 2.4 0 .4.7 1.2.7 2.5 0 1.2-.6 2.1-.7 2.5 0 .4.6 1.5.6 3.1 0 1.7-.7 2.3-.7 1.9 0-.4.7.3.7 2 0 1.8-.7 3.3-.7 4.6 0 1.3.7 1.9.7 1.9.1 0-.7.8-.7 2.3-.2 1.3.5 3 .5 3.7.1.8-.5 2.1-.5 3 0 .9.5 2.2.5 3 0 .7-.4 2.4-.4 3.7.1 1.2.5 2.3.5 2.3.1s1.4-.7 3-.7c1.7 0 3 .3 3 .7 0 .4 1.2.3 2.8-.1 1.5-.5 3.7-.4 5 0 1.2.5 2.2.5 2.2.1s1.4-.7 3-.7c1.7 0 3 .2 3 .5 0 .7 5.9.4 6.6-.3.4-.3 1.5-.2 2.5.3 1.2.7 1.9.6 2.1-.2.3-.8 1-.8 2.6.1 1.2.6 2.2.8 2.2.4s1.8-.8 4-.8 4 .4 4 .8c0 .5.6.5 1.3 0 .6-.4 2.3-.9 3.6-1.1 6.5-.9 13.7-6.9 17-14.2 1.4-3.2 1.6-33.5 1.7-311.7 0-169.6.4-308.6.7-309 .4-.3.7 0 .7.9 0 1.5 3.3 12.5 4.9 16.3.5 1.1 1.4 4 2.1 6.5.7 2.5 1.6 5.4 2.1 6.5.9 2.3 6 17.5 6.3 19 .2 1.1 5.4 17.2 6.3 19.5.4.8.5 2.1.4 2.7-.1.7.3 1.3.9 1.3.5 0 1 .7 1 1.6 0 1.4 4 14.3 5.7 18.4.3.8.7 1.9.8 2.5 0 .5.4 1.7.7 2.5.4.8 2.1 6 3.8 11.5 1.7 5.5 3.4 10.7 3.7 11.5.3.8.7 1.9.9 2.5.1.5.9 2.9 1.8 5.2.8 2.4 1.3 4.3.9 4.3-.3 0-.1.6.5 1.3.6.7 1.3 2.4 1.5 3.7.3 1.4 1.1 3.8 1.7 5.5.7 1.6 1.4 3.7 1.5 4.5.2.8 1.2 3.9 2.3 6.8 1.1 2.9 2 5.4 2 5.5-.2.3 2.2 7.9 3.2 10.2.8 2.1 4.7 13.9 5.4 16.5.5 1.7 11.3 35 15.8 48.5 3.1 9.2 3.5 10.6 3.6 11.5 0 .3 1.5 4.5 3.3 9.5 1.7 4.9 3.2 9.4 3.4 10 .1.5.4 1.7.7 2.5.3.8 1.5 4.6 2.7 8.5 1.3 3.8 2.6 7.9 3.1 9 .4 1.1 1.8 5.4 3 9.5s2.6 8.4 3 9.5c.9 2 3.3 9.6 3.5 10.5 0 .3 1.5 4.8 3.3 10.1 1.8 5.2 3.4 10.4 3.7 11.5.6 2.6 12.4 38.4 13.5 40.9.5 1.1 2.5 7.4 4.6 14 2 6.6 3.9 12.4 4.2 13 .3.5.7 1.6.8 2.5.1.8 1.4 4.9 2.8 9 1.5 4.1 2.9 8.2 3.1 9 .2.8.4 1.7.6 2 .1.3.3.9.4 1.5.1.5.5 1.7.8 2.5.4.8 3.2 9.4 6.2 19 3.1 9.6 5.9 18.2 6.1 19 .3.8.5 1.6.4 1.8 0 .1.7 1.6 1.5 3.2s1.5 3.1 1.3 3.2c-.2.3 6 20.3 7.2 23.3 1 2.3 4.4 13 4.2 13-.1 0 1.9 5.8 4.4 13 2.5 7.1 4.7 13.7 4.9 14.6.2.9 1.8 6.1 3.6 11.5 1.8 5.5 3.4 10.1 3.4 10.4.1.4 1.4 4.6 3.1 10 .3.8.4 1.5.3 1.5-.1 0 .3 1.1 1 2.3.7 1.3 1.5 3.6 1.7 5 .3 1.5 1 3.2 1.6 3.9.6.7.8 1.3.5 1.3-.3 0 .3 2.6 1.4 5.7 1.1 3.2 2.2 6.5 2.4 7.3.2.8.4 1.6.5 1.7.2.2.3.7.4 1.2 0 .5.4 1.3.9 1.7.4.4.7 1.7.7 2.9s.3 2.5.8 2.9c.4.4.7 1.1.7 1.4.1.4.9 2.4 1.9 4.4 4.4 9 17.3 17.9 26.3 18.3 2.3 0 4.5.4 4.9.8.4.3 1.5.2 2.5-.3 1-.6 2-.6 2.3-.2.3.5 2.6.6 5.1.2 2.5-.4 4.7-.4 4.9-.1.5.8 6.4.6 7.2-.2.4-.3 1.6-.1 2.7.5 1.6.8 2.2.8 2.5 0 .2-.8.9-.9 2.2-.2 1 .6 2.1.7 2.3.3.6-.9 6.4-.9 7.3 0 .3.3 1.7.2 3-.3s2.5-.6 2.8-.2c.5.9 8.2.6 9.8-.4.7-.4.8-.3.4.4-.5.9-.1.9 1.6.3 1.4-.5 3.1-.5 4 0 1.1.6 1.9.5 2.3-.1.5-.8 1.1-.8 2 0 .9.7 1.5.8 1.9.1.4-.6 1.6-.7 2.8-.2 1.2.4 3.9.5 6 .1s3.8-.4 3.8.1 1.1.4 2.5-.1c1.3-.5 2.6-.6 2.9-.1.3.4 2.8.5 5.6.1 2.7-.4 5-.3 5 .2 0 .4 1.1.3 2.4-.2 1.3-.5 2.7-.6 3-.3.8.8 8.5.8 9.2 0 .4-.4 1.5-.2 2.5.4 1.3.7 1.9.6 1.9-.1s.6-.8 1.9 0c1.1.5 2.2.7 2.5.2.4-.6 4.9-.8 6.6-.2 1.5.6 5.8.4 7.8-.2 1.4-.5 2.1-.4 1.7.1-.3.6.6.6 2.5.1s3-.5 3 .1.6.7 1.3.2c.6-.4 1.7-.8 2.2-.9 5.3-1 7.1-1.6 11.2-3.9 10.5-5.7 13.4-9.9 19.4-27.8 1.7-5.1 3.2-9.7 3.3-10.2.5-2.1 1.8-6.1 2.6-8 .5-1.1 1.6-4.5 2.5-7.5.9-3 1.9-6.2 2.2-7 .4-.8.5-1.8.5-2.3-.1-.4.3-.7.9-.7.5 0 .8-.4.5-.9-.4-.5.5-4 1.8-7.8 4.4-12.3 16.9-50.8 16.9-52.1 0-.6.5-1.2 1-1.2.6 0 .8-.3.4-.6-.3-.4 0-2.1.7-3.8.7-1.7 1.3-3.3 1.4-3.6.1-.7.6-2.2 3.6-11.3 1.4-4.2 2.6-8.1 2.6-8.6 0-.6.5-2.2 1.2-3.8 1.4-3.4 1.3-3.1 2.3-6.8.4-1.7 1-3.5 1.4-4 .3-.6.7-1.6.8-2.2.5-2 .9-3.7 1.6-5.3.7-2 6.1-18.3 6.3-19.3.1-.4.2-.8.4-1 .1-.1.3-.9.5-1.7.2-.8 3.3-10.5 6.9-21.5 3.6-11 8.2-25 10.2-31 1.9-6.1 3.8-11.7 4.1-12.5.8-1.9.7-1.8 1.7-6 .5-1.9 1.2-4 1.6-4.5.4-.6 1.7-4.4 2.9-8.5 1.3-4.1 2.5-8.2 2.8-9 .4-.8.7-1.7.8-2 .1-.3.4-1.2.7-2 .3-.8 3.6-11 7.3-22.5 3.8-11.6 8.6-26.4 10.8-33 2.2-6.6 4-12.4 4.2-13 .1-.5.5-1.7.8-2.5.3-.8 2.9-8.7 5.8-17.5 2.8-8.8 6.5-20.1 8.1-25 1.7-5 3.1-9.5 3.2-10 .1-.6.4-1.5.8-2 .3-.6.9-2.6 1.3-4.5s1-4 1.4-4.5c.4-.6 1.6-3.9 2.6-7.5s2.2-7 2.7-7.6c.5-.7.8-1.6.7-2-.1-.5 0-1.6.4-2.4 1.2-3.1 4.9-14.3 5.1-15.4.1-.6 1.1-3.6 2.1-6.6 1.1-3 2-5.7 2-6 .1-.3.4-1.2.7-2 1.1-2.9 10-30.3 10.4-31.9.2-.9 1.8-5.9 3.5-11.1 3.5-10.7 3.8-11.8 3.9-12.5 0-.3.7-1.9 1.5-3.5s1.6-3.3 1.6-3.7c0-1.4 1.2-5.8 1.8-6.8.3-.6.6-1.5.7-2.2.1-.7 1.2-4.3 2.4-8 2.9-9.2 2.9-9.2 3.1-10.1 0-.4.4-1.2.8-1.7.7-.8 1.6-3.7 2.6-8 .2-.6 1.6-4.9 3.3-9.7 1.7-4.7 2.8-8.9 2.4-9.2-.3-.3 0-.6.7-.6s1-.3.8-.8c-.3-.4 0-1.8.6-3.2 1-2.4 1.4-3.7 2-6.3.2-.6 1.2-3.7 2.2-6.7 1.1-3 2-5.8 2.1-6.3.1-.4.2-.8.4-1 .1-.1.3-.9.5-1.7 3.2-12.8 3.2-15.6 3.2 298.7 0 169.3.3 309.1.7 310.7 1 5.5 6.7 12.4 12.5 15.3l5.4 2.8h80.1c75.7.1 80.3 0 84.5-1.7 4.7-2 11.1-7.4 11.1-9.6 0-.6.4-1.2.8-1.2 3.1 0 3.2-7.6 3.2-435.7 0-471.3.5-434.1-6.1-441.2-1.8-1.8-5.5-4.4-8.3-5.7l-5.1-2.4h-133.1c-121.2 0-133.5.2-138 1.7-2.7.9-6 2.3-7.4 3.2-3.5 2.1-15 14.1-13.5 14.1.3 0 .1.9-.5 2.1-.6 1.1-1.3 2.8-1.5 3.7-.2.9-1.3 4.2-2.4 7.3-1.1 3.1-2.2 6.8-2.5 8.2-.2 1.5-.7 3.1-1.1 3.7-.3.5-.8 1.8-1 2.7-.2 1-1.3 4.5-2.5 7.8-1.1 3.3-2.1 6.1-2.1 6.2 0 .3 0 .5-2 6.8-1.2 3.9-1.6 5-2.2 7.7-.1.7-.5 1.7-.8 2.3-.3.5-1.2 3.2-1.9 6-.7 2.7-1.7 5.6-2.3 6.2-.5.7-.6 1.3-.2 1.3.4 0 .2.7-.5 1.5s-1 1.5-.7 1.5c.3 0-.3 2.6-1.4 5.7-1.1 3.2-2 6-2.1 6.3 0 .3-.2.9-.4 1.5-.6 1.8-14.6 46.3-14.9 47.5-.5 2.1-2.8 9.8-3.3 11-.3.8-.6 1.7-.7 2-.1.3-.4 1.2-.8 2-.3.8-1.7 5.5-3.2 10.5-1.5 4.9-3.5 11.5-4.5 14.5-3.1 9.1-7.4 23.5-7.2 23.8.1.1-.5 1.6-1.3 3.2-.9 1.7-1.3 3-1 3 .3 0-.1 1.3-.9 2.9-.9 1.6-1.3 3.1-1 3.4.3.3.1 1.3-.5 2.4-.8 1.3-4.6 13-5.6 17.3-.1.3-.4 1.2-.7 2-.4.8-2.6 8-5.1 16-2.5 8-4.9 15.6-5.3 17-.4 1.4-.8 2.7-.9 3 0 .3-2 6.6-4.4 14-2.4 7.4-4.4 13.9-4.6 14.5-.1.5-.5 1.7-.8 2.5-1.2 3.1-6.9 21.6-7.3 24-.3 1.3-1.1 2.8-1.7 3.2-.7.4-.9.8-.5.8s.2 1.5-.3 3.2c-.6 1.8-1.2 4.1-1.4 5.1-.2.9-.7 2.2-1.1 2.8-.4.6-1 2.5-1.4 4.3-1.2 4.8-8.2 27-8.8 28.1-.4.5-.7 1.5-.8 2.1-.1.6-1.6 5.8-3.4 11.5-1.8 5.7-3.3 11-3.3 11.6 0 .7-.3 1.3-.7 1.3-.4 0-.7.6-.7 1.2 0 .7-1.6 6.2-3.5 12.3-2 6-5.5 17.1-7.8 24.5-2.3 7.4-4.8 15.5-5.7 18-.8 2.5-1.6 5.2-1.8 6-.2.8-1.2 4.2-2.3 7.5-2.1 6.3-11.3 35.1-11.9 37.2-.2.7-.4 1.9-.6 2.5-.2.7-2.5 8-5.1 16.3-2.6 8.2-5.2 16.6-5.7 18.5-.6 1.9-1.4 4.4-1.9 5.5-.5 1.1-1.8 5.4-3 9.5s-2.4 8.2-2.7 9c-.3.8-.7 1.9-.9 2.5-.1.5-1.9 6.2-3.9 12.5s-3.8 11.9-3.9 12.5c-.3 1-1 3-2.5 6.8-.4 1.3-1.9-2-4.5-10.5-2.1-6.8-5.2-16.4-6.8-21.3-1.6-5-3.1-9.7-3.3-10.5-.2-.8-.4-1.6-.5-1.8-.2-.1-.4-.7-.5-1.2-.1-.6-.3-1.1-.5-1.3-.1-.1-.3-.9-.5-1.8-.1-.9-2.2-7.7-4.5-15-2.3-7.4-4.9-15.7-5.7-18.4-.9-2.8-1.9-5.9-2.3-7-.9-2.6-2.9-8.7-8.5-27-2.6-8.3-5.2-16.4-5.8-18-.6-1.7-1.2-3.5-1.2-4 0-.6-1.3-4.8-2.9-9.5-1.5-4.7-2.9-9-3-9.7-.1-.7-.5-1.6-.9-1.9-.4-.4-.7-1.7-.7-2.9s-.3-2.5-.7-2.9c-.5-.4-.8-1.1-.8-1.4-.1-.4-.4-1.6-.7-2.7-.4-1.1-2.3-7.4-4.3-14s-3.9-12.7-4.2-13.5c-.4-.8-.7-1.7-.8-2-.1-.3-1.2-3.9-2.5-8s-2.4-7.7-2.5-8c-.1-.4-2.6-8.6-3-10-.1-.3-.4-1.2-.7-2-1.7-4.3-9.8-30.9-9.8-31.9 0-.6-.4-1.9-.9-2.9-.6-.9-2-5.1-3.2-9.2-2.7-9-2.4-8.2-3.1-10-.3-.8-1.1-3.5-1.8-6s-1.6-5.4-2.1-6.5c-1.4-3.6-9.2-29-9.2-30.3 0-.6-.5-1.2-1-1.2-.6 0-.8-.3-.4-.6.3-.3.1-1.8-.5-3.3-.5-1.4-1.1-3.3-1.3-4.1-1.4-5.6-7.1-22.6-7.7-22.8-.5-.2-.6-.7-.3-1.1.2-.4-1.1-5.5-2.9-11.2-6.2-19.1-9-28.4-8.8-29.2.1-.4-.2-.7-.6-.7-.5 0-.9-.6-.9-1.3 0-1.2-5.8-20.3-9.5-31.2-1.1-3.3-2.1-6.5-2.2-7-.1-.6-.7-2.6-1.3-4.5-1.6-5-11-35-13.9-44.5-1.4-4.4-2.8-8.7-3.1-9.5-.3-.8-.7-2-.9-2.7-.3-1.4-3.3-11.1-4.1-13.3-.3-.8-.7-2.2-.9-3-.2-.8-1.5-4.9-2.9-9s-2.8-8.5-3.1-9.8c-.2-1.3-1.2-4.4-2.1-7-.8-2.6-1.7-5.2-1.8-5.7-.1-.6-.5-1.7-.8-2.5-.3-.8-2.9-8.9-5.7-18-8.5-27.5-11.3-35.5-12.1-35.8-.5-.2-.9-1-.9-1.7 0-2.3-9.2-10.4-15-13.3l-5.5-2.7-142.5-.2c-121.3-.1-143.4.1-148.5 1.3z"/><path d="M138.7 286.6c-.1.1-2.7.4-5.7.7-8.9 1-24.7 7.3-27.9 11.1-.8.9-1.7 1.6-2.2 1.6-1.6 0-9.2 8.5-13.3 15-6.2 9.6-8.7 17.1-8.9 26.2-.1 3.2-.5 5.8-.9 5.8s-.5.6-.3 1.2c.2.7.6 3.3.9 5.8 1.2 12.7 7.1 25.4 16.1 34.8 5.8 6.1 17.1 14.2 19.8 14.2.7 0 1.7.4 2.3.8 2.8 2.5 23.9 5.9 25 4.1.3-.5 1.1-.6 1.9-.3 1.1.4 10.9-1.2 13.5-2.2.3-.1 1.6-.5 2.9-.9 1.3-.5 4.2-1.9 6.5-3.2 2.2-1.3 4.9-2.6 5.9-2.9.9-.4 1.7-1 1.7-1.5s.4-.9.9-.9c.9 0 7.6-6.4 11.9-11.4 2.7-3.2 7.5-12.5 9.7-18.7 2.5-6.9 3.6-19.9 2.3-26.4-.5-2.2-1-4.9-1.2-6-3.6-22.2-29.2-45.3-50.8-45.9-1.6-.1-2.8-.3-2.8-.6 0-.4-6.8-.8-7.3-.4zM87 455.9c0 .3-1.7.7-3.8.7-4.9.2-11.3 1.4-13.4 2.5-1 .5-1.8.7-1.8.4 0-.3-1.3.1-3 1-1.6.9-3 1.3-3 .9s-.7 0-1.7.7c-.9.8-1.8 1.3-2 1.1-.6-.5-12.3 5.7-17.2 9.1-9.9 6.8-18.9 16-25.5 26-3.8 5.8-10.5 19.4-11.1 22.6-.1.9-.8 3.4-1.3 5.6C1 534.6.8 536.7.5 548.7c-.2 10.7.5 17.7 2.9 26.8 1.5 5.8 2.3 7.9 4.9 13.5 9.6 20.7 27.2 38.5 46.7 47.2 15.4 6.9 24.9 8.8 41.5 8.4 13.5-.4 15.4-.6 24.5-3.4 3-.9 5.8-1.5 6.3-1.4.4.1.7-.2.7-.6 0-.5.6-.9 1.4-.9 1.4 0 14.6-6.3 15.6-7.4.3-.3 3.2-2.5 6.5-4.9 6-4.4 19.5-17.7 19.5-19.3 0-.4.8-1.7 1.9-2.8 1-1.1 2.7-3.7 3.7-5.9s2.3-4 2.7-4c.5 0 .5-.5.2-1-.3-.6-.1-1 .5-1s.9-.4.5-.9c-.3-.5-.1-1.2.4-1.5.9-.6 3.9-8.6 4.6-12.4.2-.9.4-1.8.5-2 .2-.1.4-.7.5-1.2.1-.6.3-1.1.5-1.3.8-1 2.2-11.9 2.4-19.2.7-18-4.2-37.1-13.1-51.3-1.8-2.9-3.3-5.5-3.3-5.7 0-2.5-17.9-19.7-25.6-24.8-6.7-4.4-17.7-9.9-22.4-11.2-.3 0-3.1-.9-6.4-1.9-3.2-.9-8.3-1.8-11.2-1.9-3-.1-5.4-.4-5.4-.7 0-.3-3.4-.5-7.5-.6-4.1 0-7.5.2-7.5.5zM127.1 709.6c-3.6.7-7.9 2-9.7 2.9-1.8.8-3.5 1.5-3.8 1.5-1.5 0-11.7 7.3-15.9 11.4-4.9 4.7-11.6 14.4-13.4 19.3-.6 1.5-1.5 3.7-1.9 4.8-3.2 8.4-3.9 23-1.5 33.5 4.7 20.5 24.7 40.8 43.9 44.5.9.2 1.7.4 1.7.6 0 1 17.4 1.7 21.9.7 2.2-.4 5.6-1.1 7.5-1.3 1.8-.3 4.3-1.1 5.5-1.7 1.1-.7 2.3-1.3 2.6-1.4 4.5-1 14.1-7.6 19.1-12.9 5.3-5.7 7.1-8 8.6-11 .9-1.7 1.9-3.2 2.2-3.5.6-.5 4-9.5 4.6-12.1.2-.9.7-3.2 1.2-5 1.9-7.1.6-23.4-2.4-30.7-.7-1.7-1.1-3.2-.8-3.2.5 0-6.1-11.5-7.9-13.8-8-10.1-22.7-19.8-33.6-22.2-8.1-1.8-20.6-2-27.9-.4zM77.1 979.1c-9.6 2.4-14.4 5.1-21.1 11.8-14.9 14.7-17.6 36.6-6.7 54.6 3.2 5.4 12.3 14.5 14.4 14.5.7 0 1.3.4 1.3.8 0 .7 5.4 3.1 8.3 3.8.4.1.8.2 1 .4 1.7 1.3 19.1 1.9 23.6.7 5.8-1.5 9.1-2.9 9.1-3.8 0-.5.3-.8.8-.7 1 .3 7.2-3.5 7.2-4.4 0-.4.7-.8 1.5-.8s1.5-.4 1.5-.9c0-.4 1.5-2.4 3.3-4.4 3.8-3.9 7.4-10.9 9.2-17.8 1.7-6.3 1-20-1.3-25.9-.5-1.4-.9-2.7-.9-3 .3-1.1-6.8-10.5-10.4-13.9-11-10.5-26.3-14.7-40.8-11z"/></svg>