<?xml version="1.0" standalone="no"?>
<!DOCTYPE svg PUBLIC "-//W3C//DTD SVG 20010904//EN"
 "http://www.w3.org/TR/2001/REC-SVG-20010904/DTD/svg10.dtd">
<svg version="1.0" xmlns="http://www.w3.org/2000/svg"
 width="700.000000pt" height="700.000000pt" viewBox="0 0 700.000000 700.000000"
 preserveAspectRatio="xMidYMid meet">
<metadata>
Created by potrace 1.14, written by Peter Selinger 2001-2017
</metadata>
<g transform="translate(0.000000,700.000000) scale(0.100000,-0.100000)"
fill="#000000" stroke="none">
<path d="M1602 5459 c-78 -15 -157 -81 -189 -158 -20 -47 -20 -147 -1 -192 20
-46 82 -115 120 -135 16 -8 63 -22 104 -29 116 -23 178 -63 219 -144 49 -98
39 -205 -28 -292 -39 -52 -124 -99 -178 -99 l-39 0 0 -479 0 -479 37 -7 c276
-51 285 -443 12 -508 l-49 -12 0 -321 0 -321 -39 -6 c-53 -7 -103 -32 -145
-74 -106 -106 -82 -297 47 -377 39 -24 64 -31 130 -36 45 -4 96 -14 113 -23
68 -35 133 -128 134 -189 l0 -28 276 0 276 0 29 29 29 29 0 1361 c0 749 3
1361 8 1361 4 0 95 -271 204 -603 108 -331 305 -935 438 -1342 133 -407 249
-753 258 -769 9 -16 33 -37 52 -48 33 -17 58 -18 387 -16 l353 3 35 35 c33 34
59 107 475 1384 242 742 441 1352 442 1355 2 3 5 -607 8 -1357 l5 -1364 33
-29 32 -29 356 0 c385 0 398 2 422 55 9 20 12 470 12 1909 0 1882 0 1883 -20
1909 -12 15 -38 31 -58 37 -51 14 -1124 14 -1175 -1 -90 -25 -60 55 -473
-1259 -206 -657 -393 -1253 -415 -1324 -22 -70 -44 -124 -49 -120 -4 5 -191
594 -415 1309 -224 715 -415 1313 -424 1330 -9 16 -32 38 -51 50 -34 19 -51
20 -645 22 -335 0 -629 -3 -653 -8z"/>
<path d="M1134 4922 c-88 -31 -143 -88 -169 -176 -19 -62 -19 -80 0 -143 19
-63 80 -134 140 -162 89 -42 217 -21 288 47 77 72 102 204 58 296 -31 63 -98
121 -162 140 -66 20 -92 20 -155 -2z"/>
<path d="M948 4199 c-127 -18 -253 -114 -311 -237 -30 -62 -32 -75 -32 -172 0
-97 2 -110 31 -170 168 -350 660 -318 775 51 90 289 -157 571 -463 528z"/>
<path d="M1112 3075 c-55 -24 -98 -63 -125 -114 -72 -132 -27 -284 104 -356
44 -24 66 -29 119 -29 75 1 121 18 175 65 140 123 103 351 -70 430 -49 22
-156 24 -203 4z"/>
<path d="M930 1908 c-123 -35 -177 -181 -106 -288 43 -66 139 -99 217 -75 42
13 91 56 110 99 68 149 -66 309 -221 264z"/>
</g>
</svg>
