<?xml version="1.0" encoding="utf-8"?>
<svg xmlns="http://www.w3.org/2000/svg" width="2724.325" height="305.3949" viewBox="0 0 2724.325 305.3949" version="1.1" style="clip-rule:evenodd;fill-rule:evenodd;stroke-linejoin:round;stroke-miterlimit:1.41420996" id="svg3977" xmlns:bx="https://boxy-svg.com">
  <defs id="defs3981">
    <bx:export>
      <bx:file format="svg" href="#g3975"/>
      <bx:file format="svg" path="Untitled 2.svg"/>
      <bx:file format="png" excluded="true"/>
    </bx:export>
  </defs>
  <g transform="matrix(0.64,0,0,0.64,-1004.0861,-921.71007)" id="g3975">
    <g id="Layer-1" transform="scale(4.16667)">
      <g transform="matrix(1, 0, 0, 0.810653, 393.005017, 435.691206)" id="g3924" style="">
        <path d="m 0,0 c 0,3.084 -2.5,5.584 -5.584,5.584 -3.083,0 -5.583,-2.5 -5.583,-5.584 0,-3.084 2.5,-5.584 5.583,-5.584 C -2.5,-5.584 0,-3.084 0,0" style="fill:#231f20;fill-rule:nonzero" id="path3922"/>
      </g>
      <g transform="matrix(1, 0, 0, 0.810653, 401.605023, 410.016187)" id="g3928" style="">
        <path d="m 0,0 c 0,4.193 -3.399,7.591 -7.591,7.591 -4.193,0 -7.592,-3.398 -7.592,-7.591 0,-4.193 3.399,-7.591 7.592,-7.591 C -3.399,-7.591 0,-4.193 0,0" style="fill:#231f20;fill-rule:nonzero" id="path3926"/>
      </g>
      <g transform="matrix(1, 0, 0, 0.810653, 401.683026, 367.341777)" id="g3932" style="">
        <path d="m 0,0 c 0,4.193 -3.399,7.591 -7.591,7.591 -4.193,0 -7.592,-3.398 -7.592,-7.591 0,-4.193 3.399,-7.591 7.592,-7.591 C -3.399,-7.591 0,-4.193 0,0" style="fill:#231f20;fill-rule:nonzero" id="path3930"/>
      </g>
      <g>
        <path d="M 404.715 395.523 Q 404.16 395.523 403.595 395.487 Q 403.03 395.452 402.606 395.341 L 402.606 388.549 Q 402.828 388.508 403.08 388.473 Q 403.332 388.438 403.595 388.418 Q 403.857 388.397 404.115 388.387 Q 404.372 388.377 404.604 388.377 Q 405.24 388.377 405.785 388.473 Q 406.33 388.569 406.728 388.791 Q 407.127 389.013 407.349 389.376 Q 407.571 389.74 407.571 390.275 Q 407.571 390.769 407.334 391.122 Q 407.097 391.476 406.673 391.688 Q 407.309 391.9 407.612 392.313 Q 407.914 392.727 407.914 393.363 Q 407.914 394.443 407.127 394.983 Q 406.34 395.523 404.715 395.523 Z M 403.857 392.293 L 403.857 394.423 Q 404.069 394.443 404.311 394.453 Q 404.554 394.463 404.755 394.463 Q 405.149 394.463 405.487 394.413 Q 405.825 394.362 406.072 394.236 Q 406.32 394.11 406.466 393.898 Q 406.612 393.686 406.612 393.353 Q 406.612 392.757 406.178 392.525 Q 405.744 392.293 404.977 392.293 Z M 403.857 391.294 L 404.755 391.294 Q 405.482 391.294 405.896 391.087 Q 406.31 390.88 406.31 390.345 Q 406.31 389.841 405.881 389.629 Q 405.452 389.417 404.765 389.417 Q 404.473 389.417 404.246 389.427 Q 404.019 389.437 403.857 389.457 Z M 408.881 392.828 Q 408.881 392.132 409.088 391.607 Q 409.295 391.082 409.638 390.734 Q 409.981 390.386 410.425 390.209 Q 410.869 390.032 411.334 390.032 Q 412.424 390.032 413.034 390.709 Q 413.645 391.385 413.645 392.727 Q 413.645 392.828 413.64 392.954 Q 413.635 393.08 413.625 393.181 L 410.143 393.181 Q 410.193 393.817 410.592 394.165 Q 410.99 394.513 411.747 394.513 Q 412.191 394.513 412.56 394.433 Q 412.928 394.352 413.14 394.261 L 413.302 395.26 Q 413.201 395.311 413.024 395.366 Q 412.847 395.422 412.62 395.467 Q 412.393 395.513 412.131 395.543 Q 411.868 395.573 411.596 395.573 Q 410.9 395.573 410.385 395.366 Q 409.87 395.159 409.537 394.791 Q 409.204 394.423 409.043 393.923 Q 408.881 393.423 408.881 392.828 Z M 412.424 392.283 Q 412.424 392.031 412.353 391.804 Q 412.282 391.577 412.146 391.41 Q 412.01 391.244 411.813 391.148 Q 411.616 391.052 411.344 391.052 Q 411.061 391.052 410.849 391.158 Q 410.637 391.264 410.491 391.435 Q 410.344 391.607 410.264 391.829 Q 410.183 392.051 410.153 392.283 Z M 414.876 388.771 L 416.097 388.569 L 416.097 390.164 L 417.974 390.164 L 417.974 391.183 L 416.097 391.183 L 416.097 393.333 Q 416.097 393.968 416.299 394.241 Q 416.501 394.513 416.985 394.513 Q 417.318 394.513 417.576 394.443 Q 417.833 394.372 417.984 394.312 L 418.186 395.281 Q 417.974 395.371 417.631 395.467 Q 417.288 395.563 416.824 395.563 Q 416.259 395.563 415.88 395.412 Q 415.502 395.26 415.28 394.973 Q 415.058 394.685 414.967 394.276 Q 414.876 393.868 414.876 393.343 Z M 419.095 388.771 L 420.316 388.569 L 420.316 390.164 L 422.193 390.164 L 422.193 391.183 L 420.316 391.183 L 420.316 393.333 Q 420.316 393.968 420.518 394.241 Q 420.72 394.513 421.204 394.513 Q 421.537 394.513 421.795 394.443 Q 422.052 394.372 422.204 394.312 L 422.405 395.281 Q 422.193 395.371 421.85 395.467 Q 421.507 395.563 421.043 395.563 Q 420.478 395.563 420.099 395.412 Q 419.721 395.26 419.499 394.973 Q 419.277 394.685 419.186 394.276 Q 419.095 393.868 419.095 393.343 Z M 422.99 392.828 Q 422.99 392.132 423.197 391.607 Q 423.404 391.082 423.747 390.734 Q 424.09 390.386 424.534 390.209 Q 424.978 390.032 425.442 390.032 Q 426.532 390.032 427.143 390.709 Q 427.753 391.385 427.753 392.727 Q 427.753 392.828 427.748 392.954 Q 427.743 393.08 427.733 393.181 L 424.251 393.181 Q 424.302 393.817 424.7 394.165 Q 425.099 394.513 425.856 394.513 Q 426.3 394.513 426.668 394.433 Q 427.037 394.352 427.249 394.261 L 427.41 395.26 Q 427.309 395.311 427.133 395.366 Q 426.956 395.422 426.729 395.467 Q 426.502 395.513 426.24 395.543 Q 425.977 395.573 425.705 395.573 Q 425.008 395.573 424.494 395.366 Q 423.979 395.159 423.646 394.791 Q 423.313 394.423 423.151 393.923 Q 422.99 393.423 422.99 392.828 Z M 426.532 392.283 Q 426.532 392.031 426.462 391.804 Q 426.391 391.577 426.255 391.41 Q 426.118 391.244 425.922 391.148 Q 425.725 391.052 425.452 391.052 Q 425.17 391.052 424.958 391.158 Q 424.746 391.264 424.6 391.435 Q 424.453 391.607 424.372 391.829 Q 424.292 392.051 424.261 392.283 Z M 432.053 391.264 Q 431.901 391.213 431.634 391.158 Q 431.367 391.102 431.013 391.102 Q 430.811 391.102 430.584 391.143 Q 430.357 391.183 430.266 391.213 L 430.266 395.442 L 429.045 395.442 L 429.045 390.416 Q 429.398 390.285 429.928 390.169 Q 430.458 390.053 431.104 390.053 Q 431.225 390.053 431.387 390.068 Q 431.548 390.083 431.71 390.108 Q 431.871 390.133 432.023 390.169 Q 432.174 390.204 432.265 390.234 Z" transform="matrix(16.90238, 0, 0, 12.954001, -6390.860542, -4683.081194)" style="fill: rgb(35, 31, 32); text-wrap-mode: nowrap;"/>
        <path transform="matrix(16.90238, 0, 0, 12.954001, -6390.860542, -4683.081194)" style="fill: rgb(35, 31, 32); text-wrap-mode: nowrap;"/>
        <path transform="matrix(16.90238, 0, 0, 12.954001, -6390.860542, -4683.081194)" style="fill: rgb(35, 31, 32); text-wrap-mode: nowrap;"/>
        <path d="M 948.665 408.08 Q 949.531 408.08 950.012 407.765 Q 950.492 407.449 950.492 406.744 Q 950.492 406.338 950.338 406.065 Q 950.183 405.793 949.926 405.606 Q 949.67 405.419 949.338 405.285 Q 949.007 405.152 948.644 405.002 Q 948.184 404.82 947.821 404.628 Q 947.458 404.436 947.201 404.195 Q 946.945 403.955 946.811 403.645 Q 946.677 403.335 946.677 402.918 Q 946.677 401.967 947.308 401.476 Q 947.938 400.984 949.06 400.984 Q 949.36 400.984 949.648 401.027 Q 949.937 401.069 950.188 401.139 Q 950.439 401.208 950.647 401.294 Q 950.856 401.379 950.995 401.476 L 950.738 402.085 Q 950.428 401.871 949.985 401.743 Q 949.541 401.614 949.028 401.614 Q 948.676 401.614 948.382 401.684 Q 948.088 401.753 947.874 401.908 Q 947.661 402.063 947.538 402.298 Q 947.415 402.533 947.415 402.865 Q 947.415 403.207 947.543 403.442 Q 947.671 403.677 947.901 403.848 Q 948.131 404.019 948.441 404.158 Q 948.751 404.297 949.114 404.446 Q 949.552 404.628 949.942 404.81 Q 950.332 404.991 950.621 405.237 Q 950.909 405.483 951.08 405.836 Q 951.251 406.188 951.251 406.701 Q 951.251 407.706 950.551 408.208 Q 949.851 408.71 948.654 408.71 Q 948.227 408.71 947.874 408.657 Q 947.522 408.603 947.244 408.523 Q 946.966 408.443 946.774 408.358 Q 946.581 408.272 946.474 408.208 L 946.709 407.578 Q 946.816 407.642 946.998 407.727 Q 947.18 407.813 947.425 407.893 Q 947.671 407.973 947.981 408.026 Q 948.291 408.08 948.665 408.08 Z M 953.249 407.556 Q 953.346 407.631 953.49 407.716 Q 953.634 407.802 953.827 407.877 Q 954.019 407.952 954.243 408 Q 954.468 408.048 954.714 408.048 Q 955.226 408.048 955.574 407.871 Q 955.921 407.695 956.135 407.391 Q 956.349 407.086 956.445 406.675 Q 956.541 406.263 956.541 405.804 Q 956.541 404.714 955.996 404.131 Q 955.451 403.549 954.553 403.549 Q 954.04 403.549 953.725 403.597 Q 953.41 403.645 953.249 403.698 Z M 953.249 410.527 L 952.555 410.527 L 952.555 403.217 Q 952.865 403.111 953.346 403.014 Q 953.827 402.918 954.564 402.918 Q 955.173 402.918 955.67 403.116 Q 956.167 403.314 956.525 403.688 Q 956.883 404.062 957.081 404.596 Q 957.278 405.13 957.278 405.804 Q 957.278 406.434 957.113 406.963 Q 956.947 407.492 956.626 407.871 Q 956.306 408.251 955.841 408.464 Q 955.376 408.678 954.778 408.678 Q 954.233 408.678 953.832 408.523 Q 953.431 408.368 953.249 408.229 Z M 960.525 408.048 Q 960.931 408.048 961.236 408.021 Q 961.54 407.994 961.754 407.952 L 961.754 406.007 Q 961.636 405.953 961.38 405.894 Q 961.123 405.836 960.675 405.836 Q 960.418 405.836 960.14 405.873 Q 959.862 405.91 959.627 406.033 Q 959.392 406.156 959.243 406.37 Q 959.093 406.584 959.093 406.936 Q 959.093 407.246 959.195 407.46 Q 959.296 407.674 959.483 407.802 Q 959.67 407.93 959.932 407.989 Q 960.194 408.048 960.525 408.048 Z M 960.461 402.897 Q 961.006 402.897 961.385 403.052 Q 961.765 403.207 962 403.479 Q 962.235 403.752 962.342 404.126 Q 962.449 404.5 962.449 404.938 L 962.449 408.422 Q 962.342 408.454 962.139 408.491 Q 961.936 408.529 961.668 408.571 Q 961.401 408.614 961.075 408.641 Q 960.749 408.668 960.407 408.668 Q 959.969 408.668 959.601 408.571 Q 959.232 408.475 958.959 408.267 Q 958.687 408.058 958.532 407.732 Q 958.377 407.407 958.377 406.936 Q 958.377 406.487 958.548 406.167 Q 958.719 405.846 959.029 405.638 Q 959.339 405.43 959.766 405.333 Q 960.194 405.237 960.696 405.237 Q 960.846 405.237 961.011 405.253 Q 961.177 405.269 961.332 405.296 Q 961.487 405.323 961.599 405.349 Q 961.711 405.376 961.754 405.397 L 961.754 405.056 Q 961.754 404.767 961.711 404.494 Q 961.668 404.222 961.524 404.003 Q 961.38 403.784 961.118 403.65 Q 960.856 403.517 960.429 403.517 Q 959.82 403.517 959.52 403.602 Q 959.221 403.688 959.082 403.741 L 958.986 403.132 Q 959.168 403.046 959.547 402.972 Q 959.927 402.897 960.461 402.897 Z M 966.51 408.668 Q 965.869 408.668 965.377 408.464 Q 964.886 408.261 964.56 407.882 Q 964.234 407.503 964.063 406.974 Q 963.892 406.445 963.892 405.804 Q 963.892 405.152 964.068 404.617 Q 964.245 404.083 964.576 403.698 Q 964.907 403.314 965.377 403.105 Q 965.848 402.897 966.435 402.897 Q 966.884 402.897 967.274 402.972 Q 967.664 403.046 967.878 403.164 L 967.696 403.762 Q 967.483 403.656 967.216 403.591 Q 966.948 403.527 966.5 403.527 Q 965.58 403.527 965.105 404.12 Q 964.629 404.714 964.629 405.804 Q 964.629 406.295 964.736 406.707 Q 964.843 407.118 965.084 407.412 Q 965.324 407.706 965.703 407.871 Q 966.083 408.037 966.628 408.037 Q 967.077 408.037 967.381 407.936 Q 967.686 407.834 967.825 407.759 L 967.974 408.358 Q 967.782 408.464 967.37 408.566 Q 966.959 408.668 966.51 408.668 Z M 968.807 405.782 Q 968.807 405.056 969.016 404.516 Q 969.224 403.976 969.561 403.613 Q 969.897 403.249 970.33 403.073 Q 970.763 402.897 971.223 402.897 Q 972.238 402.897 972.842 403.559 Q 973.445 404.222 973.445 405.601 Q 973.445 405.686 973.44 405.771 Q 973.435 405.857 973.424 405.932 L 969.545 405.932 Q 969.577 406.947 970.047 407.492 Q 970.517 408.037 971.543 408.037 Q 972.11 408.037 972.441 407.93 Q 972.772 407.823 972.922 407.749 L 973.05 408.347 Q 972.9 408.432 972.489 408.55 Q 972.077 408.668 971.522 408.668 Q 970.795 408.668 970.282 408.454 Q 969.769 408.24 969.438 407.855 Q 969.107 407.471 968.957 406.942 Q 968.807 406.413 968.807 405.782 Z M 972.729 405.344 Q 972.708 404.478 972.323 403.998 Q 971.939 403.517 971.233 403.517 Q 970.859 403.517 970.565 403.666 Q 970.271 403.816 970.052 404.067 Q 969.833 404.318 969.71 404.649 Q 969.588 404.981 969.566 405.344 Z" transform="matrix(16.082888, 0, 0, 11.930882, -14265.392027, -4427.36146)" style="fill: rgb(51, 51, 51); line-height: 17.0985px; text-wrap-mode: nowrap;"/>
      </g>
      <g transform="matrix(1, 0, 0, 0.810653, 400.215008, 387.882916)" id="g3936" style="">
        <path d="m 0,0 c 0,6.54 -5.302,11.841 -11.841,11.841 -6.54,0 -11.842,-5.301 -11.842,-11.841 0,-6.54 5.302,-11.841 11.842,-11.841 C -5.302,-11.841 0,-6.54 0,0" style="fill:#231f20;fill-rule:nonzero" id="path3934"/>
      </g>
      <g transform="matrix(1, 0, 0, 0.810653, 527.383988, 439.904951)" id="g3968" style="">
        <path d="M -96.54 -115.791 L -96.541 -111.148 L -119.209 -112.177 L -120.689 -112.177 C -124.882 -112.177 -128.281 -108.778 -128.281 -104.586 C -128.281 -100.961 -125.738 -97.934 -122.34 -97.179 L -121.412 -97.066 L -121.413 -97.065 C -117.575 -96.687 -114.576 -93.45 -114.576 -89.512 C -114.576 -85.319 -117.974 -81.921 -122.167 -81.921 C -122.181 -81.921 -122.195 -81.923 -122.209 -81.923 L -122.209 -54.332 C -118.184 -54.332 -114.922 -51.069 -114.922 -47.044 C -114.922 -43.019 -118.184 -39.756 -122.209 -39.756 L -122.209 -21.023 C -118.337 -21.023 -115.198 -17.884 -115.198 -14.011 C -115.198 -10.139 -118.336 -7 -122.209 -7 C -118.336 -6.999 -115.198 -3.86 -115.198 0.012 L -100.439 0.012 C -98.789 0.012 -97.439 -1.338 -97.439 -2.988 L -97.439 -52.371 L -97.439 -76.655 L -97.439 -79.655 L -96.509 -76.803 C -99.185 -77.338 -113.54 -56.007 -97.583 -52.816" style="fill:#231f20;fill-rule:nonzero" id="path3966"/>
      </g>
      <g transform="matrix(1, 0, 0, 0.810653, 405.173993, 434.231153)" id="g3972" style="">
        <path d="m 0,-14.024 c -3.873,0 -7.012,3.139 -7.012,7.012 C -7.012,-3.139 -3.873,0 0,0 h 0.001 c 3.872,-0.001 7.011,-3.14 7.011,-7.012 0,-3.873 -3.139,-7.012 -7.012,-7.012" style="fill:#231f20;fill-rule:nonzero" id="path3970"/>
      </g>
    </g>
  </g>
</svg>
