<?xml version="1.0" encoding="utf-8"?>
<svg width="100%" height="100%" viewBox="0 0 1022 115" version="1.1" xmlns="http://www.w3.org/2000/svg" style="fill-rule:evenodd;clip-rule:evenodd;stroke-linejoin:round;stroke-miterlimit:1.41421;" xmlns:bx="https://boxy-svg.com">
  <defs>
    <bx:export>
      <bx:file format="svg"/>
    </bx:export>
  </defs>
  <path d="M16.474,106.991c0,3.084 -2.5,5.584 -5.584,5.584c-3.083,0 -5.583,-2.5 -5.583,-5.584c0,-3.084 2.5,-5.584 5.583,-5.584c3.084,0 5.584,2.5 5.584,5.584" style="fill-rule: nonzero; fill: rgb(34, 197, 94);"/>
  <path d="M25.073,75.319c0,4.193 -3.399,7.591 -7.591,7.591c-4.193,0 -7.592,-3.398 -7.592,-7.591c0,-4.193 3.399,-7.591 7.592,-7.591c4.192,0 7.591,3.398 7.591,7.591" style="fill-rule: nonzero; fill: rgb(34, 197, 94);"/>
  <path d="M25.151,22.677c0,4.193 -3.399,7.591 -7.591,7.591c-4.193,0 -7.592,-3.398 -7.592,-7.591c0,-4.193 3.399,-7.591 7.592,-7.591c4.192,0 7.591,3.398 7.591,7.591" style="fill-rule: nonzero; fill: rgb(34, 197, 94);"/>
  <path d="M23.683,48.016c0,6.54 -5.302,11.841 -11.841,11.841c-6.54,0 -11.842,-5.301 -11.842,-11.841c0,-6.54 5.302,-11.841 11.842,-11.841c6.539,0 11.841,5.301 11.841,11.841" style="fill:#fff;fill-rule:nonzero;"/>
  <path d="M 50.624 -1.242 C 50.13 -2.817 50.429 -0.684 48.779 -0.684 L 46.594 0 L 46.594 0.012 L 31.643 0.012 L 30.163 0.012 C 25.97 0.012 22.571 3.411 22.571 7.603 C 22.571 11.228 25.114 14.255 28.512 15.01 L 29.44 15.123 L 29.439 15.124 C 33.277 15.502 36.276 18.739 36.276 22.677 C 36.276 26.87 32.878 30.268 28.685 30.268 C 28.671 30.268 28.657 30.266 28.643 30.266 L 28.643 57.857 C 32.668 57.857 35.93 61.12 35.93 65.145 C 35.93 69.17 32.668 72.433 28.643 72.433 L 28.643 91.166 C 32.515 91.166 35.654 94.305 35.654 98.178 C 35.654 102.05 32.516 99.715 28.643 99.715 C 32.516 99.716 35.654 94.645 35.654 98.517 L 47.676 96.464 C 49.326 96.464 53.413 97.851 53.413 96.201 L 53.413 59.818 L 53.413 35.534 L 53.413 32.534 L 54.343 35.386 L 61.501 57.315 C 61.5 57.316 61.499 57.317 61.498 57.317 L 54.096 71.006" style="fill-rule: nonzero; fill: rgb(34, 197, 94);"/>
  <circle cx="28.642" cy="98.178" r="7.012" style="fill:#fff;"/>
  <path d="M 74.261 106.537 C 67.936 106.537 61.549 106.354 55.107 105.987 C 48.666 105.63 43.028 104.886 38.194 103.755 L 38.194 -0.104 C 40.725 -0.522 43.427 -0.909 46.299 -1.265 C 49.172 -1.622 52.108 -1.903 55.107 -2.106 C 58.096 -2.32 61.06 -2.479 64.001 -2.581 C 66.93 -2.682 69.719 -2.733 72.363 -2.733 C 79.615 -2.733 86.35 -2.244 92.562 -1.265 C 98.777 -0.287 104.153 1.334 108.693 3.597 C 113.242 5.859 116.782 8.842 119.314 12.543 C 121.844 16.254 123.107 20.836 123.107 26.289 C 123.107 31.325 121.757 35.643 119.055 39.241 C 116.353 42.849 112.585 45.735 107.752 47.896 C 115.003 50.057 120.356 53.244 123.809 57.453 C 127.255 61.673 128.975 67.025 128.975 73.509 C 128.975 84.518 124.488 92.776 115.515 98.281 C 106.541 103.785 92.79 106.537 74.261 106.537 Z M 59.587 57.147 L 59.587 89.717 C 62.004 89.922 64.592 90.074 67.356 90.175 C 70.125 90.278 72.656 90.329 74.948 90.329 C 79.44 90.329 83.614 90.074 87.466 89.565 C 91.321 89.044 94.656 88.143 97.472 86.858 C 100.299 85.573 102.546 83.851 104.21 81.689 C 105.877 79.529 106.707 76.75 106.707 73.356 C 106.707 67.28 104.234 63.06 99.285 60.695 C 94.337 58.329 87.489 57.147 78.742 57.147 L 59.587 57.147 Z M 59.587 41.872 L 74.948 41.872 C 83.236 41.872 89.742 40.816 94.463 38.706 C 99.183 36.596 101.543 32.814 101.543 27.36 C 101.543 22.222 99.096 18.573 94.205 16.412 C 89.314 14.251 82.95 13.17 75.119 13.17 C 71.787 13.17 68.831 13.22 66.243 13.323 C 63.656 13.424 61.435 13.578 59.587 13.781 L 59.587 41.872 Z M 145.514 65.328 C 145.514 58.232 146.694 52.009 149.054 46.658 C 151.414 41.305 154.548 36.855 158.461 33.309 C 162.372 29.76 166.859 27.085 171.92 25.28 C 176.985 23.476 182.162 22.574 187.469 22.574 C 199.896 22.574 209.585 26.025 216.546 32.925 C 223.507 39.817 226.992 50.103 226.992 63.784 C 226.992 64.812 226.964 65.97 226.908 67.255 C 226.852 68.54 226.768 69.696 226.655 70.726 L 167.098 70.726 C 167.666 77.209 170.227 82.224 174.777 85.772 C 179.313 89.32 185.9 91.094 194.533 91.094 C 199.597 91.094 204.231 90.686 208.436 89.871 C 212.631 89.044 215.939 88.168 218.35 87.24 L 221.124 102.517 C 219.975 103.036 218.396 103.576 216.368 104.137 C 214.35 104.707 212.052 105.223 209.463 105.682 C 206.876 106.15 204.082 106.537 201.101 106.844 C 198.102 107.15 195.056 107.302 191.945 107.302 C 184.012 107.302 177.107 106.247 171.237 104.137 C 165.363 102.027 160.529 99.096 156.734 95.344 C 152.936 91.593 150.12 87.169 148.284 82.072 C 146.435 76.975 145.514 71.394 145.514 65.328 Z M 206.11 56.994 C 206.11 54.425 205.707 51.984 204.895 49.67 C 204.082 47.355 202.905 45.348 201.354 43.645 C 199.802 41.952 197.906 40.617 195.654 39.638 C 193.412 38.66 190.739 38.171 187.637 38.171 C 184.414 38.171 181.592 38.712 179.172 39.792 C 176.752 40.872 174.712 42.284 173.051 44.026 C 171.374 45.781 170.079 47.788 169.169 50.052 C 168.243 52.315 167.61 54.629 167.267 56.994 L 206.11 56.994 Z M 248.043 3.292 L 268.925 0.203 L 268.925 24.592 L 301.03 24.592 L 301.03 40.174 L 268.925 40.174 L 268.925 73.05 C 268.925 79.523 270.084 84.152 272.382 86.934 C 274.691 89.707 278.596 91.094 284.118 91.094 C 287.911 91.094 291.285 90.736 294.228 90.023 C 297.152 89.3 299.478 88.632 301.197 88.021 L 304.655 102.837 C 302.245 103.755 299.077 104.703 295.162 105.682 C 291.257 106.66 286.65 107.15 281.362 107.15 C 274.924 107.15 269.542 106.379 265.216 104.84 C 260.909 103.291 257.489 101.053 254.957 98.127 C 252.425 95.192 250.64 91.639 249.603 87.47 C 248.566 83.31 248.043 78.554 248.043 73.203 L 248.043 3.292 Z M 320.202 3.292 L 341.085 0.203 L 341.085 24.592 L 373.189 24.592 L 373.189 40.174 L 341.085 40.174 L 341.085 73.05 C 341.085 79.523 342.234 84.152 344.543 86.934 C 346.841 89.707 350.755 91.094 356.277 91.094 C 360.071 91.094 363.444 90.736 366.378 90.023 C 369.312 89.3 371.647 88.632 373.376 88.021 L 376.815 102.837 C 374.395 103.755 371.236 104.703 367.321 105.682 C 363.416 106.66 358.809 107.15 353.521 107.15 C 347.074 107.15 341.692 106.379 337.375 104.84 C 333.068 103.291 329.649 101.053 327.116 98.127 C 324.584 95.192 322.8 91.639 321.763 87.47 C 320.725 83.31 320.202 78.554 320.202 73.203 L 320.202 3.292 Z M 386.821 65.328 C 386.821 58.232 387.999 52.009 390.363 46.658 C 392.717 41.305 395.857 36.855 399.762 33.309 C 403.677 29.76 408.162 27.085 413.226 25.28 C 418.29 23.476 423.467 22.574 428.755 22.574 C 441.182 22.574 450.88 26.025 457.85 32.925 C 464.802 39.817 468.277 50.103 468.277 63.784 C 468.277 64.812 468.249 65.97 468.194 67.255 C 468.138 68.54 468.054 69.696 467.941 70.726 L 408.386 70.726 C 408.965 77.209 411.525 82.224 416.067 85.772 C 420.616 89.32 427.203 91.094 435.837 91.094 C 440.901 91.094 445.527 90.686 449.722 89.871 C 453.936 89.044 457.242 88.168 459.662 87.24 L 462.419 102.517 C 461.261 103.036 459.681 103.576 457.673 104.137 C 455.664 104.707 453.356 105.223 450.768 105.682 C 448.18 106.15 445.396 106.537 442.406 106.844 C 439.407 107.15 436.351 107.302 433.259 107.302 C 425.307 107.302 418.402 106.247 412.543 104.137 C 406.667 102.027 401.836 99.096 398.043 95.344 C 394.24 91.593 391.418 87.169 389.578 82.072 C 387.737 76.975 386.821 71.394 386.821 65.328 Z M 447.394 56.994 C 447.394 54.425 447.002 51.984 446.198 49.67 C 445.396 47.355 444.209 45.348 442.658 43.645 C 441.098 41.952 439.201 40.617 436.968 39.638 C 434.716 38.66 432.044 38.171 428.923 38.171 C 425.709 38.171 422.897 38.712 420.476 39.792 C 418.056 40.872 416.02 42.284 414.356 44.026 C 412.684 45.781 411.375 47.788 410.451 50.052 C 409.544 52.315 408.909 54.629 408.554 56.994 L 447.394 56.994 Z M 541.82 41.412 C 540.091 40.892 537.7 40.353 534.654 39.792 C 531.617 39.22 528.076 38.936 524.039 38.936 C 521.731 38.936 519.283 39.144 516.695 39.561 C 514.107 39.97 512.294 40.327 511.257 40.632 L 511.257 105.299 L 490.375 105.299 L 490.375 28.446 C 494.402 27.111 499.438 25.851 505.484 24.669 C 511.519 23.486 518.228 22.896 525.591 22.896 C 526.973 22.896 528.59 22.971 530.43 23.124 C 532.271 23.278 534.112 23.481 535.962 23.735 C 537.793 23.991 539.578 24.301 541.306 24.669 C 543.034 25.025 544.408 25.357 545.445 25.663 L 541.82 41.412 Z" style="text-wrap-mode: nowrap; stroke-width: 39.809; fill: rgb(34, 197, 94);"/>
  <path style="fill: rgb(35, 31, 32); text-wrap-mode: nowrap; stroke-width: 39.809;"/>
  <path style="fill: rgb(35, 31, 32); text-wrap-mode: nowrap; stroke-width: 39.809;"/>
  <path d="M 621.806 102.641 C 631.197 102.641 638.513 101.162 643.726 98.205 C 648.931 95.238 651.537 90.446 651.537 83.826 C 651.537 80.013 650.697 76.826 649.033 74.263 C 647.351 71.71 645.109 69.554 642.324 67.798 C 639.55 66.042 636.354 64.537 632.757 63.277 C 629.169 62.03 625.404 60.701 621.47 59.292 C 616.472 57.583 612.005 55.827 608.071 54.025 C 604.129 52.223 600.765 50.19 597.981 47.927 C 595.205 45.673 593.085 43.092 591.636 40.182 C 590.179 37.27 589.46 33.858 589.46 29.943 C 589.46 21.014 592.879 14.244 599.718 9.634 C 606.558 5.014 616.06 2.705 628.234 2.705 C 631.486 2.705 634.682 2.907 637.803 3.311 C 640.933 3.705 643.866 4.231 646.585 4.888 C 649.314 5.536 651.799 6.263 654.06 7.071 C 656.33 7.869 658.217 8.724 659.722 9.634 L 655.536 18.21 C 652.172 16.202 648.09 14.596 643.287 13.395 C 638.466 12.184 633.28 11.578 627.711 11.578 C 623.889 11.578 620.386 11.906 617.2 12.563 C 614.014 13.211 611.257 14.262 608.931 15.718 C 606.624 17.173 604.802 19.004 603.465 21.21 C 602.129 23.417 601.465 26.079 601.465 29.195 C 601.465 32.407 602.157 35.115 603.54 37.321 C 604.932 39.529 606.875 41.435 609.37 43.039 C 611.865 44.645 614.798 46.101 618.163 47.406 C 621.526 48.711 625.17 50.063 629.113 51.462 C 633.869 53.171 638.354 54.879 642.586 56.589 C 646.819 58.288 650.5 60.291 653.64 62.602 C 656.76 64.912 659.255 67.723 661.105 71.037 C 662.965 74.343 663.889 78.403 663.889 83.22 C 663.889 92.656 660.086 99.73 652.5 104.445 C 644.903 109.157 634.616 111.514 621.629 111.514 C 616.995 111.514 612.762 111.264 608.931 110.768 C 605.119 110.261 601.699 109.631 598.682 108.88 C 595.664 108.129 593.113 107.355 591.029 106.556 C 588.936 105.748 587.31 105.045 586.152 104.445 L 589.973 95.571 C 591.132 96.172 592.701 96.872 594.682 97.67 C 596.654 98.477 598.971 99.256 601.625 100.007 C 604.287 100.76 607.315 101.383 610.678 101.881 C 614.042 102.389 617.751 102.641 621.806 102.641 Z M 696.405 95.262 C 697.46 95.966 698.759 96.716 700.329 97.515 C 701.889 98.322 703.72 99.078 705.804 99.783 C 707.887 100.487 710.149 101.064 712.588 101.514 C 715.017 101.965 717.576 102.19 720.249 102.19 C 725.799 102.19 730.461 101.359 734.245 99.698 C 738.002 98.046 741.048 95.792 743.374 92.937 C 745.691 90.075 747.373 86.713 748.41 82.854 C 749.456 78.986 749.97 74.896 749.97 70.588 C 749.97 60.353 747.018 52.499 741.113 47.026 C 735.199 41.562 727.368 38.829 717.623 38.829 C 712.054 38.829 707.57 39.054 704.15 39.505 C 700.731 39.955 698.152 40.429 696.405 40.928 L 696.405 95.262 Z M 696.405 137.103 L 685.108 137.103 L 685.108 34.153 C 688.472 33.157 692.761 32.205 697.983 31.295 C 703.207 30.393 709.803 29.943 717.801 29.943 C 724.407 29.943 730.414 30.871 735.806 32.731 C 741.197 34.59 745.831 37.275 749.718 40.788 C 753.596 44.298 756.614 48.561 758.763 53.575 C 760.903 58.588 761.968 64.26 761.968 70.588 C 761.968 76.502 761.07 81.943 759.286 86.909 C 757.483 91.877 754.847 96.139 751.363 99.698 C 747.887 103.266 743.636 106.05 738.581 108.049 C 733.535 110.059 727.771 111.063 721.286 111.063 C 715.372 111.063 710.242 110.336 705.888 108.88 C 701.544 107.425 698.376 106.045 696.405 104.74 L 696.405 137.103 Z M 814.814 102.19 C 819.215 102.19 823.074 102.063 826.382 101.811 C 829.679 101.556 832.492 101.233 834.819 100.838 L 834.819 73.446 C 833.529 72.938 831.501 72.409 828.727 71.855 C 825.942 71.31 822.112 71.037 817.252 71.037 C 814.468 71.037 811.563 71.211 808.545 71.559 C 805.527 71.906 802.742 72.658 800.191 73.812 C 797.651 74.967 795.567 76.55 793.941 78.558 C 792.324 80.568 791.512 83.224 791.512 86.53 C 791.512 89.44 792.063 91.9 793.175 93.909 C 794.259 95.919 795.828 97.524 797.856 98.725 C 799.883 99.928 802.322 100.806 805.162 101.359 C 808.003 101.914 811.217 102.19 814.814 102.19 Z M 813.768 29.646 C 819.683 29.646 824.699 30.375 828.811 31.83 C 832.931 33.285 836.266 35.289 838.817 37.843 C 841.368 40.407 843.218 43.443 844.377 46.955 C 845.545 50.468 846.124 54.278 846.124 58.39 L 846.124 107.458 C 844.956 107.759 843.284 108.082 841.079 108.43 C 838.873 108.786 836.322 109.162 833.417 109.556 C 830.521 109.96 827.297 110.288 823.765 110.543 C 820.224 110.795 816.599 110.922 812.89 110.922 C 808.143 110.922 803.761 110.467 799.771 109.556 C 795.773 108.655 792.287 107.229 789.325 105.275 C 786.382 103.313 784.056 100.8 782.383 97.74 C 780.692 94.688 779.861 90.952 779.861 86.53 C 779.861 82.314 780.785 78.704 782.635 75.7 C 784.495 72.686 787.102 70.202 790.465 68.249 C 793.829 66.297 797.828 64.865 802.462 63.953 C 807.106 63.052 812.151 62.602 817.599 62.602 C 819.215 62.602 820.934 62.677 822.719 62.827 C 824.522 62.978 826.26 63.18 827.942 63.432 C 829.623 63.687 831.081 63.935 832.296 64.18 C 833.501 64.433 834.342 64.658 834.819 64.856 L 834.819 60.053 C 834.819 57.339 834.575 54.702 834.108 52.138 C 833.651 49.585 832.632 47.279 831.072 45.223 C 829.502 43.166 827.306 41.51 824.466 40.252 C 821.625 39.003 817.888 38.378 813.244 38.378 C 806.639 38.378 801.715 38.777 798.463 39.576 C 795.211 40.384 792.838 41.035 791.334 41.534 L 789.764 32.956 C 791.745 32.148 794.782 31.398 798.892 30.703 C 803.014 29.999 807.975 29.646 813.768 29.646 Z M 912.21 110.922 C 905.259 110.922 899.111 109.965 893.766 108.049 C 888.45 106.143 884.011 103.411 880.48 99.853 C 876.939 96.294 874.248 92.032 872.388 87.065 C 870.529 82.098 869.604 76.606 869.604 70.588 C 869.604 64.466 870.566 58.894 872.472 53.87 C 874.388 48.856 877.145 44.542 880.733 40.928 C 884.33 37.321 888.674 34.539 893.766 32.576 C 898.877 30.622 904.624 29.646 910.986 29.646 C 915.854 29.646 920.414 29.999 924.647 30.703 C 928.879 31.398 932.15 32.299 934.477 33.407 L 931.514 41.828 C 929.197 40.833 926.6 40.03 923.703 39.421 C 920.797 38.82 916.911 38.519 912.043 38.519 C 902.073 38.519 894.495 41.303 889.347 46.871 C 884.18 52.447 881.601 60.353 881.601 70.588 C 881.601 75.198 882.18 79.437 883.339 83.305 C 884.498 87.164 886.386 90.473 889.001 93.233 C 891.608 95.995 894.962 98.149 899.083 99.698 C 903.194 101.256 908.221 102.035 914.126 102.035 C 919.003 102.035 923.087 101.561 926.384 100.613 C 929.692 99.655 932.103 98.825 933.607 98.12 L 936.037 106.556 C 933.953 107.551 930.673 108.527 926.206 109.486 C 921.741 110.443 917.078 110.922 912.21 110.922 Z M 949.585 70.277 C 949.585 63.461 950.725 57.518 952.996 52.447 C 955.247 47.377 958.209 43.138 961.862 39.73 C 965.506 36.313 969.673 33.777 974.374 32.126 C 979.073 30.473 983.913 29.646 988.912 29.646 C 999.916 29.646 1008.71 32.753 1015.26 38.97 C 1021.8 45.195 1025.08 54.781 1025.08 67.728 C 1025.08 68.527 1025.05 69.325 1024.98 70.122 C 1024.93 70.93 1024.85 71.685 1024.73 72.39 L 961.601 72.39 C 961.947 81.921 964.675 89.242 969.767 94.36 C 974.869 99.477 982.988 102.035 994.116 102.035 C 1000.26 102.035 1005.13 101.533 1008.73 100.529 C 1012.33 99.524 1014.93 98.674 1016.56 97.98 L 1018.64 106.401 C 1017.02 107.2 1013.97 108.152 1009.51 109.261 C 1005.05 110.369 999.796 110.922 993.77 110.922 C 985.894 110.922 979.167 109.917 973.598 107.908 C 968.029 105.899 963.451 103.087 959.863 99.472 C 956.265 95.867 953.659 91.581 952.033 86.614 C 950.408 81.648 949.585 76.203 949.585 70.277 Z M 1013.42 64.108 C 1013.19 55.978 1010.99 49.659 1006.82 45.153 C 1002.64 40.636 996.732 38.378 989.071 38.378 C 985.015 38.378 981.39 39.078 978.204 40.477 C 975.009 41.884 972.233 43.768 969.851 46.124 C 967.478 48.481 965.619 51.213 964.282 54.321 C 962.965 57.438 962.181 60.701 961.937 64.108 L 1013.42 64.108 Z" style="line-height: 17.0985px; text-wrap-mode: nowrap; stroke-width: 37.352; fill: rgb(255, 255, 255);"/>
</svg>
