<?xml version="1.0" encoding="utf-8"?>
<svg width="100%" height="100%" viewBox="0 0 496 113" version="1.1" xmlns="http://www.w3.org/2000/svg" style="fill-rule:evenodd;clip-rule:evenodd;stroke-linejoin:round;stroke-miterlimit:1.41421;">
  <path d="M 14.511 103.957 C 14.511 106.834 12.235 109.166 9.432 109.166 C 6.618 109.166 4.342 106.834 4.342 103.957 C 4.342 101.081 6.618 98.749 9.432 98.749 C 12.235 98.749 14.511 101.081 14.511 103.957" style="fill-rule: nonzero; fill: rgb(34, 197, 94); stroke-width: 1;"/>
  <path d="M 22.341 74.415 C 22.341 78.326 19.246 81.496 15.431 81.496 C 11.616 81.496 8.52 78.326 8.52 74.415 C 8.52 70.504 11.616 67.334 15.431 67.334 C 19.246 67.334 22.341 70.504 22.341 74.415" style="fill-rule: nonzero; fill: rgb(34, 197, 94); stroke-width: 1;"/>
  <path d="M 22.414 25.312 C 22.414 29.223 19.319 32.393 15.504 32.393 C 11.68 32.393 8.593 29.223 8.593 25.312 C 8.593 21.401 11.68 18.232 15.504 18.232 C 19.319 18.232 22.414 21.401 22.414 25.312" style="fill-rule: nonzero; fill: rgb(34, 197, 94); stroke-width: 1;"/>
  <path d="M 21.076 48.948 C 21.076 55.048 16.251 59.993 10.297 59.993 C 4.342 59.993 -0.484 55.048 -0.484 48.948 C -0.484 42.847 4.342 37.903 10.297 37.903 C 16.251 37.903 21.076 42.847 21.076 48.948" style="fill: rgb(255, 255, 255); fill-rule: nonzero; stroke-width: 1;"/>
  <path d="M 45.603 3.002 C 45.158 1.532 45.431 3.522 43.928 3.522 L 41.934 4.16 L 41.934 4.171 L 28.323 4.171 L 26.975 4.171 C 23.161 4.171 20.065 7.342 20.065 11.252 C 20.065 14.633 22.378 17.457 25.473 18.161 L 26.32 18.266 L 26.32 18.267 C 29.807 18.62 32.539 21.639 32.539 25.312 C 32.539 29.223 29.452 32.393 25.628 32.393 C 25.619 32.393 25.61 32.391 25.592 32.391 L 25.592 58.127 C 29.261 58.127 32.229 61.171 32.229 64.925 C 32.229 68.679 29.261 71.723 25.592 71.723 L 25.592 89.196 C 29.115 89.196 31.974 92.124 31.974 95.737 C 31.974 99.349 29.115 97.171 25.592 97.171 C 29.115 97.172 31.974 92.442 31.974 96.053 L 42.918 94.138 C 44.42 94.138 48.144 95.432 48.144 93.893 L 48.144 59.956 L 48.144 37.305 L 48.144 34.507 L 48.991 37.167 L 55.509 57.621 C 55.509 57.622 55.509 57.623 55.509 57.623 L 48.763 70.392" style="fill-rule: nonzero; fill: rgb(34, 197, 94); stroke-width: 1;"/>
  <circle cx="-13.709" cy="94.769" r="7.012" style="fill: rgb(255, 255, 255); stroke-width: 1;" transform="matrix(0.910453, 0, 0, 0.932764, 38.073175, 7.339864)"/>
  <path d="M 67.127 103.534 C 61.363 103.534 55.555 103.363 49.682 103.021 C 43.82 102.688 38.694 101.994 34.286 100.939 L 34.286 4.063 C 36.59 3.673 39.049 3.312 41.671 2.98 C 44.283 2.647 46.96 2.385 49.682 2.196 C 52.405 1.996 55.109 1.848 57.785 1.753 C 60.453 1.658 62.993 1.611 65.396 1.611 C 71.998 1.611 78.134 2.067 83.788 2.98 C 89.451 3.892 94.34 5.404 98.474 7.515 C 102.616 9.625 105.839 12.408 108.145 15.86 C 110.447 19.321 111.598 23.595 111.598 28.682 C 111.598 33.379 110.368 37.407 107.909 40.763 C 105.449 44.128 102.018 46.82 97.618 48.836 C 104.22 50.851 109.093 53.824 112.237 57.75 C 115.374 61.686 116.94 66.679 116.94 72.727 C 116.94 82.995 112.856 90.698 104.685 95.833 C 96.516 100.967 83.997 103.534 67.127 103.534 Z M 53.761 57.465 L 53.761 87.845 C 55.965 88.036 58.323 88.178 60.835 88.272 C 63.357 88.368 65.661 88.416 67.755 88.416 C 71.843 88.416 75.639 88.178 79.144 87.703 C 82.659 87.217 85.691 86.377 88.258 85.178 C 90.835 83.98 92.874 82.373 94.395 80.357 C 95.906 78.342 96.662 75.75 96.662 72.584 C 96.662 66.916 94.413 62.98 89.906 60.774 C 85.408 58.567 79.172 57.465 71.206 57.465 L 53.761 57.465 Z M 53.761 43.217 L 67.755 43.217 C 75.293 43.217 81.22 42.232 85.518 40.264 C 89.815 38.296 91.964 34.768 91.964 29.68 C 91.964 24.888 89.733 21.484 85.281 19.469 C 80.829 17.453 75.039 16.445 67.91 16.445 C 64.878 16.445 62.182 16.491 59.825 16.587 C 57.467 16.681 55.445 16.825 53.761 17.014 L 53.761 43.217 Z M 131.999 65.096 C 131.999 58.477 133.072 52.672 135.221 47.681 C 137.37 42.688 140.223 38.537 143.786 35.23 C 147.347 31.919 151.431 29.424 156.04 27.74 C 160.651 26.058 165.365 25.216 170.196 25.216 C 181.511 25.216 190.332 28.435 196.67 34.871 C 203.007 41.3 206.18 50.894 206.18 63.656 C 206.18 64.614 206.155 65.695 206.103 66.893 C 206.053 68.092 205.976 69.17 205.874 70.131 L 151.649 70.131 C 152.166 76.178 154.498 80.856 158.641 84.165 C 162.77 87.475 168.768 89.129 176.627 89.129 C 181.239 89.129 185.457 88.749 189.286 87.989 C 193.105 87.217 196.117 86.4 198.312 85.534 L 200.837 99.784 C 199.791 100.268 198.354 100.772 196.507 101.295 C 194.67 101.827 192.578 102.308 190.22 102.736 C 187.866 103.173 185.321 103.534 182.607 103.82 C 179.877 104.106 177.104 104.248 174.272 104.248 C 167.049 104.248 160.762 103.263 155.417 101.295 C 150.07 99.327 145.668 96.593 142.213 93.094 C 138.756 89.595 136.192 85.468 134.52 80.714 C 132.837 75.96 131.999 70.754 131.999 65.096 Z M 187.168 57.322 C 187.168 54.926 186.802 52.649 186.062 50.49 C 185.321 48.331 184.25 46.459 182.838 44.871 C 181.425 43.291 179.698 42.046 177.648 41.133 C 175.607 40.221 173.173 39.765 170.35 39.765 C 167.415 39.765 164.846 40.269 162.642 41.277 C 160.439 42.284 158.582 43.601 157.069 45.226 C 155.543 46.863 154.363 48.735 153.535 50.847 C 152.692 52.958 152.116 55.116 151.803 57.322 L 187.168 57.322 Z M 225.346 7.231 L 244.358 4.349 L 244.358 27.099 L 273.588 27.099 L 273.588 41.633 L 244.358 41.633 L 244.358 72.298 C 244.358 78.336 245.413 82.654 247.506 85.249 C 249.608 87.836 253.163 89.129 258.19 89.129 C 261.644 89.129 264.716 88.795 267.395 88.13 C 270.058 87.456 272.175 86.833 273.74 86.263 L 276.889 100.083 C 274.695 100.939 271.81 101.823 268.245 102.736 C 264.69 103.649 260.496 104.106 255.682 104.106 C 249.82 104.106 244.92 103.387 240.981 101.951 C 237.06 100.506 233.946 98.419 231.64 95.689 C 229.336 92.952 227.711 89.638 226.766 85.749 C 225.822 81.869 225.346 77.432 225.346 72.441 L 225.346 7.231 Z M 291.044 7.231 L 310.057 4.349 L 310.057 27.099 L 339.286 27.099 L 339.286 41.633 L 310.057 41.633 L 310.057 72.298 C 310.057 78.336 311.102 82.654 313.204 85.249 C 315.297 87.836 318.86 89.129 323.888 89.129 C 327.342 89.129 330.413 88.795 333.084 88.13 C 335.756 87.456 337.882 86.833 339.456 86.263 L 342.587 100.083 C 340.384 100.939 337.507 101.823 333.943 102.736 C 330.388 103.649 326.193 104.106 321.379 104.106 C 315.509 104.106 310.609 103.387 306.678 101.951 C 302.757 100.506 299.644 98.419 297.338 95.689 C 295.033 92.952 293.409 89.638 292.465 85.749 C 291.519 81.869 291.044 77.432 291.044 72.441 L 291.044 7.231 Z M 351.697 65.096 C 351.697 58.477 352.77 52.672 354.921 47.681 C 357.065 42.688 359.924 38.537 363.479 35.23 C 367.043 31.919 371.127 29.424 375.737 27.74 C 380.348 26.058 385.061 25.216 389.876 25.216 C 401.19 25.216 410.019 28.435 416.365 34.871 C 422.695 41.3 425.859 50.894 425.859 63.656 C 425.859 64.614 425.833 65.695 425.783 66.893 C 425.732 68.092 425.655 69.17 425.553 70.131 L 371.331 70.131 C 371.858 76.178 374.189 80.856 378.323 84.165 C 382.465 87.475 388.463 89.129 396.324 89.129 C 400.934 89.129 405.146 88.749 408.965 87.989 C 412.802 87.217 415.812 86.4 418.015 85.534 L 420.526 99.784 C 419.471 100.268 418.033 100.772 416.204 101.295 C 414.375 101.827 412.273 102.308 409.918 102.736 C 407.562 103.173 405.026 103.534 402.305 103.82 C 399.574 104.106 396.792 104.248 393.977 104.248 C 386.736 104.248 380.45 103.263 375.116 101.295 C 369.766 99.327 365.368 96.593 361.914 93.094 C 358.452 89.595 355.882 85.468 354.207 80.714 C 352.531 75.96 351.697 70.754 351.697 65.096 Z M 406.846 57.322 C 406.846 54.926 406.489 52.649 405.757 50.49 C 405.026 48.331 403.945 46.459 402.533 44.871 C 401.113 43.291 399.387 42.046 397.353 41.133 C 395.303 40.221 392.87 39.765 390.029 39.765 C 387.102 39.765 384.542 40.269 382.338 41.277 C 380.135 42.284 378.281 43.601 376.766 45.226 C 375.244 46.863 374.053 48.735 373.21 50.847 C 372.385 52.958 371.807 55.116 371.484 57.322 L 406.846 57.322 Z M 492.816 42.788 C 491.242 42.303 489.065 41.8 486.291 41.277 C 483.526 40.743 480.303 40.478 476.627 40.478 C 474.526 40.478 472.297 40.672 469.941 41.061 C 467.584 41.443 465.935 41.776 464.99 42.06 L 464.99 102.379 L 445.978 102.379 L 445.978 30.693 C 449.644 29.448 454.229 28.273 459.734 27.17 C 465.228 26.067 471.337 25.517 478.04 25.517 C 479.299 25.517 480.771 25.587 482.446 25.729 C 484.122 25.873 485.798 26.062 487.483 26.299 C 489.149 26.538 490.774 26.827 492.348 27.17 C 493.921 27.502 495.173 27.812 496.116 28.098 L 492.816 42.788 Z" style="text-wrap-mode: nowrap; stroke-width: 39.809; fill: rgb(34, 197, 94);"/>
</svg>
