<?xml version="1.0" encoding="utf-8"?>
<svg width="100%" height="100%" viewBox="0 0 1022 115" version="1.1" xmlns="http://www.w3.org/2000/svg" style="fill-rule:evenodd;clip-rule:evenodd;stroke-linejoin:round;stroke-miterlimit:1.41421;">
  <path d="M 20.347 90.949 C 20.347 93.278 17.916 95.167 14.92 95.167 C 11.924 95.167 9.493 93.278 9.493 90.949 C 9.493 88.619 11.924 86.73 14.92 86.73 C 17.916 86.73 20.347 88.619 20.347 90.949" style="fill-rule: nonzero; stroke-width: 1; fill: rgb(255, 255, 255);"/>
  <path d="M 28.712 67.022 C 28.712 70.19 25.405 72.757 21.33 72.757 C 17.255 72.757 13.947 70.19 13.947 67.022 C 13.947 63.855 17.255 61.288 21.33 61.288 C 25.405 61.288 28.712 63.855 28.712 67.022" style="fill-rule: nonzero; stroke-width: 1; fill: rgb(255, 255, 255);"/>
  <path d="M 28.79 27.256 C 28.79 30.424 25.484 32.99 21.407 32.99 C 17.332 32.99 14.026 30.424 14.026 27.256 C 14.026 24.088 17.332 21.522 21.407 21.522 C 25.484 21.522 28.79 24.088 28.79 27.256" style="fill-rule: nonzero; stroke-width: 1; fill: rgb(255, 255, 255);"/>
  <path d="M 27.361 46.397 C 27.361 51.338 22.205 55.342 15.845 55.342 C 9.484 55.342 4.328 51.338 4.328 46.397 C 4.328 41.457 9.484 37.453 15.845 37.453 C 22.205 37.453 27.361 41.457 27.361 46.397" style="fill-rule: nonzero; stroke-width: 1; fill: rgb(255, 255, 255);"/>
  <path d="M 53.564 9.187 C 53.087 7.998 53.38 9.609 51.775 9.609 L 49.645 10.126 L 49.645 10.134 L 35.102 10.134 L 33.662 10.134 C 29.588 10.134 26.281 12.702 26.281 15.869 C 26.281 18.607 28.751 20.894 32.058 21.464 L 32.962 21.55 L 32.962 21.551 C 36.697 21.836 39.616 24.282 39.616 27.256 C 39.616 30.424 36.309 32.99 32.224 32.99 C 32.215 32.99 32.205 32.989 32.185 32.989 L 32.185 53.832 C 36.105 53.832 39.275 56.296 39.275 59.337 C 39.275 62.377 36.105 64.843 32.185 64.843 L 32.185 78.994 C 35.949 78.994 39.002 81.366 39.002 84.291 C 39.002 87.216 35.959 85.452 32.185 85.452 C 35.959 85.452 39.002 81.622 39.002 84.547 L 50.695 82.996 C 52.31 82.996 56.277 84.044 56.277 82.797 L 56.277 55.313 L 56.277 36.968 L 56.277 34.702 L 57.181 36.857 L 64.146 53.422 C 64.146 53.423 64.146 53.424 64.146 53.424 L 56.948 63.764" style="fill-rule: nonzero; stroke-width: 1; fill: rgb(255, 255, 255);"/>
  <circle cx="19.895" cy="82.25" r="7.012" style="stroke-width: 1; fill: rgb(255, 255, 255);" transform="matrix(0.972655, 0, 0, 0.755418, 12.833604, 22.157864)"/>
  <path d="M 76.557 90.605 C 70.41 90.605 64.195 90.467 57.931 90.19 C 51.657 89.921 46.182 89.358 41.474 88.504 L 41.474 10.047 C 43.935 9.732 46.57 9.439 49.362 9.17 C 52.153 8.9 55.013 8.688 57.931 8.534 C 60.84 8.373 63.718 8.253 66.577 8.175 C 69.428 8.099 72.142 8.061 74.71 8.061 C 81.761 8.061 88.316 8.431 94.357 9.17 C 100.407 9.908 105.631 11.133 110.046 12.843 C 114.471 14.552 117.914 16.805 120.375 19.6 C 122.836 22.404 124.072 25.865 124.072 29.985 C 124.072 33.789 122.758 37.051 120.122 39.769 C 117.496 42.494 113.829 44.675 109.131 46.307 C 116.183 47.94 121.387 50.347 124.752 53.527 C 128.098 56.715 129.771 60.758 129.771 65.655 C 129.771 73.972 125.414 80.211 116.678 84.369 C 107.955 88.527 94.581 90.605 76.557 90.605 Z M 62.288 53.295 L 62.288 77.9 C 64.633 78.054 67.151 78.169 69.836 78.246 C 72.53 78.323 75.001 78.362 77.228 78.362 C 81.595 78.362 85.651 78.169 89.406 77.785 C 93.151 77.391 96.4 76.71 99.133 75.74 C 101.885 74.769 104.063 73.468 105.688 71.835 C 107.312 70.203 108.12 68.104 108.12 65.54 C 108.12 60.95 105.707 57.762 100.893 55.975 C 96.088 54.188 89.426 53.295 80.915 53.295 L 62.288 53.295 Z M 62.288 41.757 L 77.228 41.757 C 85.282 41.757 91.614 40.959 96.205 39.365 C 100.796 37.771 103.091 34.914 103.091 30.794 C 103.091 26.912 100.718 24.156 95.952 22.524 C 91.195 20.891 85.01 20.075 77.393 20.075 C 74.155 20.075 71.276 20.112 68.756 20.19 C 66.247 20.266 64.078 20.383 62.288 20.536 L 62.288 41.757 Z M 145.858 59.476 C 145.858 54.115 147.007 49.414 149.302 45.372 C 151.598 41.328 154.651 37.966 158.454 35.288 C 162.258 32.607 166.625 30.586 171.546 29.222 C 176.468 27.859 181.507 27.178 186.672 27.178 C 198.752 27.178 208.178 29.785 214.951 34.997 C 221.721 40.204 225.111 47.974 225.111 58.309 C 225.111 59.086 225.084 59.961 225.03 60.931 C 224.975 61.902 224.894 62.775 224.784 63.553 L 166.858 63.553 C 167.403 68.451 169.902 72.239 174.328 74.919 C 178.734 77.599 185.144 78.94 193.538 78.94 C 198.47 78.94 202.973 78.631 207.068 78.016 C 211.143 77.391 214.361 76.729 216.707 76.028 L 219.404 87.568 C 218.287 87.961 216.751 88.369 214.779 88.792 C 212.816 89.223 210.579 89.613 208.06 89.959 C 205.55 90.313 202.828 90.605 199.928 90.838 C 197.01 91.069 194.044 91.183 191.019 91.183 C 183.306 91.183 176.594 90.386 170.885 88.792 C 165.166 87.198 160.468 84.984 156.773 82.151 C 153.086 79.317 150.343 75.974 148.553 72.124 C 146.753 68.274 145.858 64.058 145.858 59.476 Z M 204.802 53.18 C 204.802 51.239 204.413 49.395 203.615 47.647 C 202.828 45.899 201.679 44.382 200.172 43.096 C 198.664 41.817 196.826 40.809 194.628 40.068 C 192.448 39.33 189.852 38.961 186.837 38.961 C 183.695 38.961 180.952 39.369 178.598 40.185 C 176.244 41.001 174.26 42.068 172.646 43.383 C 171.012 44.709 169.757 46.226 168.872 47.936 C 167.968 49.645 167.354 51.393 167.023 53.18 L 204.802 53.18 Z M 245.587 12.613 L 265.898 10.279 L 265.898 28.703 L 297.124 28.703 L 297.124 40.474 L 265.898 40.474 L 265.898 65.308 C 265.898 70.198 267.026 73.695 269.26 75.797 C 271.506 77.892 275.305 78.94 280.676 78.94 C 284.365 78.94 287.647 78.669 290.508 78.131 C 293.352 77.584 295.616 77.079 297.287 76.618 L 300.65 87.811 C 298.307 88.504 295.225 89.22 291.417 89.959 C 287.62 90.699 283.139 91.069 277.995 91.069 C 271.733 91.069 266.499 90.486 262.29 89.324 C 258.101 88.153 254.775 86.462 252.312 84.253 C 249.849 82.035 248.113 79.351 247.104 76.202 C 246.095 73.06 245.587 69.467 245.587 65.424 L 245.587 12.613 Z M 315.773 12.613 L 336.085 10.279 L 336.085 28.703 L 367.31 28.703 L 367.31 40.474 L 336.085 40.474 L 336.085 65.308 C 336.085 70.198 337.203 73.695 339.448 75.797 C 341.684 77.892 345.49 78.94 350.862 78.94 C 354.551 78.94 357.833 78.669 360.686 78.131 C 363.54 77.584 365.811 77.079 367.493 76.618 L 370.838 87.811 C 368.484 88.504 365.411 89.22 361.603 89.959 C 357.805 90.699 353.323 91.069 348.181 91.069 C 341.909 91.069 336.676 90.486 332.475 89.324 C 328.287 88.153 324.961 86.462 322.498 84.253 C 320.035 82.035 318.299 79.351 317.291 76.202 C 316.281 73.06 315.773 69.467 315.773 65.424 L 315.773 12.613 Z M 380.57 59.476 C 380.57 54.115 381.715 49.414 384.015 45.372 C 386.304 41.328 389.359 37.966 393.157 35.288 C 396.965 32.607 401.327 30.586 406.253 29.222 C 411.178 27.859 416.214 27.178 421.357 27.178 C 433.444 27.178 442.877 29.785 449.657 34.997 C 456.418 40.204 459.799 47.974 459.799 58.309 C 459.799 59.086 459.771 59.961 459.717 60.931 C 459.663 61.902 459.582 62.775 459.472 63.553 L 401.545 63.553 C 402.109 68.451 404.599 72.239 409.016 74.919 C 413.441 77.599 419.848 78.94 428.246 78.94 C 433.171 78.94 437.671 78.631 441.751 78.016 C 445.849 77.391 449.065 76.729 451.419 76.028 L 454.1 87.568 C 452.974 87.961 451.437 88.369 449.484 88.792 C 447.531 89.223 445.286 89.613 442.768 89.959 C 440.251 90.313 437.543 90.605 434.636 90.838 C 431.718 91.069 428.746 91.183 425.738 91.183 C 418.003 91.183 411.287 90.386 405.588 88.792 C 399.873 87.198 395.175 84.984 391.485 82.151 C 387.786 79.317 385.042 75.974 383.252 72.124 C 381.461 68.274 380.57 64.058 380.57 59.476 Z M 439.487 53.18 C 439.487 51.239 439.105 49.395 438.323 47.647 C 437.543 45.899 436.389 44.382 434.88 43.096 C 433.363 41.817 431.517 40.809 429.346 40.068 C 427.156 39.33 424.556 38.961 421.52 38.961 C 418.394 38.961 415.659 39.369 413.305 40.185 C 410.951 41.001 408.971 42.068 407.352 43.383 C 405.726 44.709 404.453 46.226 403.553 47.936 C 402.671 49.645 402.054 51.393 401.709 53.18 L 439.487 53.18 Z M 531.331 41.409 C 529.649 41.016 527.323 40.609 524.361 40.185 C 521.406 39.753 517.963 39.538 514.035 39.538 C 511.791 39.538 509.41 39.696 506.892 40.011 C 504.375 40.32 502.612 40.59 501.604 40.82 L 501.604 89.67 L 481.293 89.67 L 481.293 31.614 C 485.209 30.606 490.107 29.654 495.988 28.761 C 501.858 27.867 508.383 27.421 515.545 27.421 C 516.89 27.421 518.462 27.478 520.252 27.594 C 522.042 27.71 523.834 27.864 525.633 28.055 C 527.414 28.249 529.15 28.483 530.83 28.761 C 532.511 29.03 533.847 29.281 534.857 29.512 L 531.331 41.409 Z" style="text-wrap-mode: nowrap; stroke-width: 39.809; fill: rgb(255, 255, 255);"/>
  <path style="text-wrap-mode: nowrap; stroke-width: 39.809; fill: rgb(255, 255, 255);"/>
  <path style="text-wrap-mode: nowrap; stroke-width: 39.809; fill: rgb(255, 255, 255);"/>
  <path d="M 609.129 87.662 C 618.263 87.662 625.378 86.545 630.45 84.311 C 635.512 82.07 638.047 78.45 638.047 73.449 C 638.047 70.569 637.23 68.161 635.611 66.226 C 633.975 64.297 631.795 62.668 629.087 61.342 C 626.388 60.015 623.279 58.878 619.78 57.926 C 616.291 56.984 612.628 55.98 608.802 54.916 C 603.941 53.625 599.596 52.298 595.77 50.937 C 591.936 49.576 588.664 48.04 585.956 46.33 C 583.255 44.628 581.193 42.678 579.784 40.48 C 578.367 38.28 577.668 35.702 577.668 32.745 C 577.668 26 580.993 20.886 587.645 17.403 C 594.298 13.913 603.54 12.169 615.382 12.169 C 618.545 12.169 621.652 12.322 624.688 12.626 C 627.733 12.924 630.586 13.322 633.23 13.818 C 635.884 14.307 638.302 14.857 640.501 15.467 C 642.709 16.07 644.545 16.716 646.007 17.403 L 641.937 23.881 C 638.665 22.365 634.695 21.151 630.022 20.245 C 625.334 19.329 620.289 18.871 614.873 18.871 C 611.155 18.871 607.748 19.12 604.649 19.616 C 601.55 20.105 598.869 20.899 596.606 21.999 C 594.362 23.098 592.59 24.482 591.29 26.148 C 589.991 27.815 589.344 29.826 589.344 32.18 C 589.344 34.607 590.017 36.652 591.362 38.318 C 592.716 39.987 594.606 41.426 597.033 42.638 C 599.459 43.851 602.313 44.951 605.586 45.937 C 608.856 46.923 612.401 47.944 616.237 49.001 C 620.862 50.292 625.224 51.582 629.341 52.873 C 633.458 54.157 637.039 55.67 640.093 57.416 C 643.127 59.161 645.554 61.285 647.353 63.788 C 649.163 66.286 650.061 69.352 650.061 72.992 C 650.061 80.12 646.362 85.464 638.984 89.025 C 631.594 92.585 621.589 94.366 608.957 94.366 C 604.45 94.366 600.332 94.177 596.606 93.801 C 592.898 93.418 589.572 92.943 586.637 92.376 C 583.702 91.808 581.22 91.223 579.193 90.62 C 577.159 90.009 575.576 89.478 574.45 89.025 L 578.167 82.321 C 579.295 82.776 580.82 83.305 582.747 83.908 C 584.666 84.516 586.919 85.106 589.499 85.672 C 592.09 86.242 595.034 86.712 598.306 87.088 C 601.577 87.472 605.185 87.662 609.129 87.662 Z M 681.688 82.088 C 682.714 82.62 683.978 83.186 685.505 83.79 C 687.022 84.4 688.804 84.971 690.83 85.503 C 692.856 86.036 695.056 86.471 697.428 86.811 C 699.792 87.152 702.28 87.322 704.88 87.322 C 710.278 87.322 714.812 86.694 718.494 85.44 C 722.148 84.191 725.11 82.489 727.374 80.332 C 729.626 78.17 731.263 75.63 732.271 72.715 C 733.288 69.793 733.789 66.703 733.789 63.449 C 733.789 55.718 730.917 49.784 725.174 45.649 C 719.421 41.522 711.805 39.458 702.326 39.458 C 696.909 39.458 692.549 39.628 689.221 39.968 C 685.895 40.308 683.387 40.666 681.688 41.043 L 681.688 82.088 Z M 681.688 113.696 L 670.699 113.696 L 670.699 35.926 C 673.972 35.173 678.144 34.454 683.223 33.767 C 688.303 33.085 694.72 32.745 702.499 32.745 C 708.924 32.745 714.768 33.446 720.012 34.851 C 725.255 36.255 729.763 38.284 733.544 40.937 C 737.315 43.589 740.25 46.81 742.341 50.597 C 744.423 54.384 745.458 58.668 745.458 63.449 C 745.458 67.916 744.585 72.027 742.85 75.778 C 741.095 79.531 738.532 82.751 735.144 85.44 C 731.762 88.134 727.628 90.238 722.711 91.748 C 717.802 93.266 712.196 94.025 705.888 94.025 C 700.136 94.025 695.147 93.475 690.912 92.376 C 686.687 91.277 683.605 90.234 681.688 89.248 L 681.688 113.696 Z M 796.859 87.322 C 801.14 87.322 804.893 87.226 808.11 87.035 C 811.317 86.843 814.054 86.599 816.316 86.3 L 816.316 65.608 C 815.062 65.224 813.089 64.825 810.393 64.406 C 807.683 63.994 803.958 63.788 799.23 63.788 C 796.523 63.788 793.697 63.92 790.762 64.183 C 787.826 64.444 785.118 65.013 782.636 65.885 C 780.165 66.757 778.138 67.953 776.557 69.47 C 774.985 70.988 774.194 72.994 774.194 75.492 C 774.194 77.69 774.73 79.548 775.812 81.066 C 776.866 82.584 778.393 83.797 780.365 84.704 C 782.336 85.613 784.708 86.276 787.47 86.694 C 790.235 87.113 793.36 87.322 796.859 87.322 Z M 795.841 32.521 C 801.595 32.521 806.474 33.071 810.473 34.17 C 814.481 35.27 817.724 36.784 820.206 38.712 C 822.687 40.65 824.486 42.944 825.614 45.596 C 826.75 48.25 827.312 51.128 827.312 54.235 L 827.312 91.302 C 826.178 91.528 824.551 91.773 822.406 92.036 C 820.261 92.305 817.779 92.589 814.953 92.886 C 812.137 93.192 809.001 93.439 805.566 93.631 C 802.121 93.822 798.596 93.918 794.987 93.918 C 790.37 93.918 786.108 93.575 782.228 92.886 C 778.339 92.206 774.948 91.128 772.067 89.652 C 769.204 88.17 766.942 86.272 765.315 83.96 C 763.67 81.654 762.862 78.832 762.862 75.492 C 762.862 72.307 763.761 69.58 765.56 67.311 C 767.369 65.034 769.905 63.157 773.176 61.682 C 776.448 60.207 780.338 59.126 784.845 58.437 C 789.362 57.756 794.269 57.416 799.568 57.416 C 801.14 57.416 802.812 57.473 804.547 57.586 C 806.302 57.701 807.992 57.853 809.628 58.043 C 811.263 58.236 812.682 58.423 813.864 58.608 C 815.035 58.8 815.853 58.969 816.316 59.119 L 816.316 55.491 C 816.316 53.44 816.08 51.449 815.625 49.511 C 815.182 47.583 814.189 45.841 812.673 44.287 C 811.145 42.734 809.01 41.483 806.247 40.533 C 803.483 39.589 799.849 39.117 795.332 39.117 C 788.908 39.117 784.118 39.418 780.955 40.022 C 777.792 40.633 775.484 41.124 774.021 41.501 L 772.494 35.021 C 774.421 34.411 777.375 33.844 781.373 33.319 C 785.382 32.787 790.207 32.521 795.841 32.521 Z M 891.592 93.918 C 884.832 93.918 878.851 93.195 873.652 91.748 C 868.482 90.308 864.164 88.244 860.73 85.556 C 857.285 82.868 854.667 79.648 852.859 75.896 C 851.051 72.144 850.151 67.995 850.151 63.449 C 850.151 58.825 851.087 54.615 852.941 50.82 C 854.805 47.032 857.486 43.773 860.976 41.043 C 864.474 38.318 868.699 36.217 873.652 34.734 C 878.624 33.258 884.213 32.521 890.401 32.521 C 895.136 32.521 899.571 32.787 903.689 33.319 C 907.805 33.844 910.987 34.525 913.25 35.361 L 910.368 41.723 C 908.115 40.972 905.588 40.365 902.771 39.905 C 899.944 39.451 896.164 39.223 891.43 39.223 C 881.732 39.223 874.362 41.326 869.354 45.533 C 864.328 49.745 861.819 55.718 861.819 63.449 C 861.819 66.931 862.383 70.134 863.51 73.055 C 864.637 75.971 866.474 78.471 869.018 80.556 C 871.553 82.642 874.815 84.269 878.824 85.44 C 882.822 86.616 887.713 87.204 893.455 87.204 C 898.2 87.204 902.171 86.846 905.378 86.13 C 908.596 85.407 910.941 84.78 912.404 84.247 L 914.767 90.62 C 912.74 91.371 909.55 92.109 905.204 92.834 C 900.863 93.556 896.327 93.918 891.592 93.918 Z M 927.945 63.214 C 927.945 58.065 929.053 53.576 931.263 49.745 C 933.452 45.915 936.333 42.712 939.886 40.138 C 943.431 37.557 947.484 35.641 952.056 34.394 C 956.626 33.145 961.334 32.521 966.197 32.521 C 976.9 32.521 985.451 34.868 991.821 39.564 C 998.182 44.267 1001.37 51.508 1001.37 61.288 C 1001.37 61.892 1001.34 62.495 1001.27 63.097 C 1001.22 63.708 1001.14 64.278 1001.03 64.81 L 939.632 64.81 C 939.97 72.01 942.623 77.541 947.575 81.407 C 952.538 85.272 960.434 87.204 971.258 87.204 C 977.234 87.204 981.971 86.826 985.471 86.067 C 988.968 85.307 991.504 84.666 993.089 84.141 L 995.11 90.503 C 993.535 91.107 990.563 91.825 986.223 92.664 C 981.893 93.5 976.782 93.918 970.921 93.918 C 963.261 93.918 956.717 93.159 951.301 91.641 C 945.885 90.123 941.431 88 937.942 85.269 C 934.442 82.546 931.908 79.307 930.326 75.555 C 928.746 71.804 927.945 67.691 927.945 63.214 Z M 990.028 58.554 C 989.809 52.412 987.669 47.638 983.615 44.235 C 979.549 40.822 973.802 39.117 966.351 39.117 C 962.406 39.117 958.88 39.646 955.782 40.703 C 952.673 41.765 949.973 43.188 947.656 44.968 C 945.349 46.749 943.54 48.812 942.24 51.16 C 940.959 53.515 940.196 55.98 939.96 58.554 L 990.028 58.554 Z" style="line-height: 17.0985px; text-wrap-mode: nowrap; stroke-width: 37.352; fill: rgb(255, 255, 255);"/>
</svg>