<?xml version="1.0" encoding="UTF-8" standalone="no"?>
<!DOCTYPE svg PUBLIC "-//W3C//DTD SVG 1.1//EN" "http://www.w3.org/Graphics/SVG/1.1/DTD/svg11.dtd">
<svg width="100%" height="100%" viewBox="0 0 371 42" version="1.1" xmlns="http://www.w3.org/2000/svg" xmlns:xlink="http://www.w3.org/1999/xlink" xml:space="preserve" xmlns:serif="http://www.serif.com/" style="fill-rule:evenodd;clip-rule:evenodd;stroke-linejoin:round;stroke-miterlimit:1.41421;">
    <g transform="matrix(1,0,0,1,-235.772,-625.543)">
        <g transform="matrix(1,0,0,1,241.743,664.328)">
            <path d="M0,0C0,1.118 -0.906,2.024 -2.024,2.024C-3.142,2.024 -4.048,1.118 -4.048,0C-4.048,-1.118 -3.142,-2.024 -2.024,-2.024C-0.906,-2.024 0,-1.118 0,0" style="fill:rgb(248,199,17);fill-rule:nonzero;"/>
        </g>
        <g transform="matrix(1,0,0,1,244.861,652.846)">
            <path d="M0,0C0,1.52 -1.232,2.752 -2.752,2.752C-4.272,2.752 -5.504,1.52 -5.504,0C-5.504,-1.52 -4.272,-2.752 -2.752,-2.752C-1.232,-2.752 0,-1.52 0,0" style="fill:rgb(248,199,17);fill-rule:nonzero;"/>
        </g>
        <g transform="matrix(1,0,0,1,244.889,633.763)">
            <path d="M0,0C0,1.52 -1.232,2.752 -2.752,2.752C-4.272,2.752 -5.504,1.52 -5.504,0C-5.504,-1.52 -4.272,-2.752 -2.752,-2.752C-1.232,-2.752 0,-1.52 0,0" style="fill:rgb(248,199,17);fill-rule:nonzero;"/>
        </g>
        <g transform="matrix(1,0,0,1,244.357,642.949)">
            <path d="M0,0C0,2.371 -1.922,4.292 -4.292,4.292C-6.663,4.292 -8.585,2.371 -8.585,0C-8.585,-2.371 -6.663,-4.292 -4.292,-4.292C-1.922,-4.292 0,-2.371 0,0" style="fill:rgb(76,81,71);fill-rule:nonzero;"/>
        </g>
        <g transform="matrix(1,0,0,1,468.934,666.204)">
            <path d="M0,-40.653L-1.678,-40.653C-2.278,-40.653 -2.77,-40.16 -2.77,-39.558L-2.77,-7.358C-2.77,-6.756 -2.796,-6.263 -2.827,-6.263C-2.858,-6.263 -3.163,-6.669 -3.503,-7.165L-14.698,-23.458L-25.892,-39.751C-26.233,-40.247 -27.003,-40.653 -27.604,-40.653L-29.736,-40.653C-30.337,-40.653 -30.828,-40.16 -30.828,-39.558L-30.828,-1.095C-30.828,-0.492 -30.337,0 -29.736,0L-28.058,0C-27.457,0 -26.966,-0.492 -26.966,-1.095L-26.966,-33.295L-26.966,-34.39L-26.852,-34.39L-15.038,-17.195L-3.844,-0.901C-3.503,-0.406 -2.733,0 -2.132,0L0,0C0.601,0 1.092,-0.492 1.092,-1.095L1.092,-39.558C1.092,-40.16 0.601,-40.653 0,-40.653" style="fill:rgb(79,80,80);fill-rule:nonzero;"/>
        </g>
        <g transform="matrix(1,0,0,1,513.741,666.204)">
            <path d="M0,-40.653L-29.963,-40.653C-30.563,-40.653 -31.055,-40.16 -31.055,-39.558L-31.055,-38.446C-31.055,-37.843 -30.563,-37.351 -29.963,-37.351L-16.913,-37.351L-16.913,-1.095C-16.913,-0.492 -16.421,0 -15.82,0L-14.142,0C-13.542,0 -13.05,-0.492 -13.05,-1.095L-13.05,-36.256L-13.05,-37.351L0,-37.351C0.601,-37.351 1.092,-37.843 1.092,-38.446L1.092,-39.558C1.092,-40.16 0.601,-40.653 0,-40.653" style="fill:rgb(79,80,80);fill-rule:nonzero;"/>
        </g>
        <g transform="matrix(1,0,0,1,557.957,666.204)">
            <path d="M0,-40.653L-1.678,-40.653C-2.278,-40.653 -2.77,-40.16 -2.77,-39.558L-2.77,-7.358C-2.77,-6.756 -2.796,-6.263 -2.827,-6.263C-2.858,-6.263 -3.162,-6.669 -3.503,-7.165L-14.697,-23.458L-25.892,-39.751C-26.233,-40.247 -27.003,-40.653 -27.604,-40.653L-29.735,-40.653C-30.336,-40.653 -30.828,-40.16 -30.828,-39.558L-30.828,-1.095C-30.828,-0.492 -30.336,0 -29.735,0L-28.058,0C-27.457,0 -26.966,-0.492 -26.966,-1.095L-26.966,-33.295C-26.966,-33.897 -26.94,-34.39 -26.909,-34.39C-26.878,-34.39 -26.573,-33.984 -26.233,-33.488L-15.038,-17.195L-3.844,-0.901C-3.503,-0.406 -2.733,0 -2.132,0L0,0C0.601,0 1.092,-0.492 1.092,-1.095L1.092,-39.558C1.092,-40.16 0.601,-40.653 0,-40.653" style="fill:rgb(79,80,80);fill-rule:nonzero;"/>
        </g>
        <g transform="matrix(1,0,0,1,605.026,667.058)">
            <path d="M0,-41.507L-1.678,-41.507C-2.279,-41.507 -2.77,-41.014 -2.77,-40.412L-2.77,-16.341C-2.713,-6.889 -7.2,-3.302 -14.697,-3.302C-22.138,-3.302 -26.625,-6.889 -26.568,-16.341L-26.568,-17.436L-26.568,-40.412C-26.568,-41.014 -27.059,-41.507 -27.66,-41.507L-29.338,-41.507C-29.939,-41.507 -30.43,-41.014 -30.43,-40.412L-30.43,-15.487C-30.43,-7.117 -25.943,0 -14.697,0C-3.395,0 1.092,-7.117 1.092,-15.487L1.092,-16.582L1.092,-40.412C1.092,-41.014 0.601,-41.507 0,-41.507" style="fill:rgb(79,80,80);fill-rule:nonzero;"/>
        </g>
        <g transform="matrix(1,0,0,1,323.546,642.168)">
            <path d="M0,7.428L-7.242,7.428L-8.33,7.428L-7.97,6.402L-3.981,-4.972L-3.981,-4.973L-3.621,-5.999L-3.261,-4.973L-3.261,-4.972L0.041,4.444L1.088,7.428L0,7.428ZM1.878,-15.608C1.659,-16.165 0.991,-16.621 0.393,-16.621L-7.299,-16.621C-7.898,-16.621 -8.565,-16.165 -8.782,-15.608L-23.84,23.036C-24.057,23.593 -23.746,24.049 -23.148,24.049L-15.615,24.049C-15.017,24.049 -14.354,23.592 -14.14,23.033L-11.488,16.075L-11.1,15.059L3.799,15.059L4.326,16.464L6.788,23.031C6.998,23.591 7.659,24.049 8.258,24.049L16.358,24.049C16.956,24.049 17.267,23.593 17.048,23.037L1.878,-15.608Z" style="fill:rgb(248,199,17);fill-rule:nonzero;"/>
        </g>
        <g transform="matrix(1,0,0,1,374.677,636.267)">
            <path d="M0,19.229L-8.687,8.509L-7.972,7.689L7.372,-9.9C7.765,-10.351 7.597,-10.72 6.999,-10.72L-2.423,-10.72C-3.021,-10.72 -3.825,-10.345 -4.21,-9.887L-10.059,-2.924L-15.907,4.038L-15.908,4.038L-16.607,4.871L-16.607,3.784L-16.607,-9.633C-16.607,-10.231 -17.096,-10.72 -17.694,-10.72L-24.836,-10.72C-25.434,-10.72 -25.923,-10.231 -25.923,-9.633L-25.923,28.862C-25.923,29.46 -25.434,29.949 -24.836,29.949L-17.694,29.949C-17.096,29.949 -16.607,29.46 -16.607,28.862L-16.607,14.082L-16.607,12.994L-4.138,29.09C-3.771,29.563 -2.982,29.949 -2.384,29.949L7.599,29.949C8.197,29.949 8.379,29.57 8.002,29.105L0,19.229Z" style="fill:rgb(248,199,17);fill-rule:nonzero;"/>
        </g>
        <g transform="matrix(1,0,0,1,414.351,633.178)">
            <path d="M0,25.408L-13.221,25.408L-14.308,25.408L-14.308,24.32L-14.308,16.933L-14.308,15.845L-1.405,15.845C-0.807,15.845 -0.317,15.356 -0.317,14.757L-0.317,9.302C-0.317,8.704 -0.807,8.214 -1.405,8.214L-13.221,8.214L-14.308,8.214L-14.308,7.127L-14.308,1.087L-14.308,0L-0.112,0C0.486,0 0.975,-0.49 0.975,-1.088L0.975,-6.543C0.975,-7.142 0.486,-7.631 -0.112,-7.631L-22.537,-7.631C-23.135,-7.631 -23.625,-7.142 -23.625,-6.543L-23.625,31.951C-23.625,32.549 -23.135,33.039 -22.537,33.039L0,33.039C0.598,33.039 1.088,32.549 1.088,31.951L1.088,26.496C1.088,25.897 0.598,25.408 0,25.408" style="fill:rgb(248,199,17);fill-rule:nonzero;"/>
        </g>
        <g transform="matrix(1,0,0,1,290.457,666.212)">
            <path d="M0,-40.665L-11.668,-40.665C-12.267,-40.665 -12.903,-40.198 -13.082,-39.627L-21.607,-12.459L-21.608,-12.461L-21.608,-12.466L-30.133,-39.631C-30.312,-40.202 -30.948,-40.669 -31.546,-40.669L-37.794,-40.669L-37.794,-40.665L-43.214,-40.665L-43.751,-40.665C-45.271,-40.665 -46.503,-39.433 -46.503,-37.913C-46.503,-36.599 -45.581,-35.502 -44.349,-35.228L-44.013,-35.187C-42.622,-35.05 -41.535,-33.876 -41.535,-32.449C-41.535,-30.929 -42.767,-29.697 -44.287,-29.697C-44.292,-29.697 -44.297,-29.698 -44.302,-29.698L-44.302,-19.696C-42.843,-19.696 -41.66,-18.513 -41.66,-17.054C-41.66,-15.595 -42.843,-14.412 -44.302,-14.412L-44.302,-7.621C-42.898,-7.621 -41.76,-6.483 -41.76,-5.079C-41.76,-3.675 -42.898,-2.537 -44.302,-2.537C-42.898,-2.537 -41.76,-1.399 -41.76,0.004L-36.41,0.004C-35.812,0.004 -35.322,-0.485 -35.322,-1.083L-35.322,-18.985L-35.322,-27.788L-35.322,-28.875L-34.985,-27.842L-32.391,-19.892C-32.391,-19.892 -32.391,-19.891 -32.392,-19.891L-30.61,-14.433L-26.235,-1.029C-26.05,-0.461 -25.409,0.004 -24.81,0.004L-18.404,0.004C-17.806,0.004 -17.165,-0.461 -16.979,-1.029L-12.604,-14.433L-8.229,-27.837L-8.229,-27.838L-7.892,-28.871L-7.892,-1.083C-7.892,-0.485 -7.402,0.004 -6.804,0.004L0,0.004C0.598,0.004 1.088,-0.485 1.088,-1.083L1.088,-39.577C1.088,-40.176 0.598,-40.665 0,-40.665" style="fill:rgb(248,199,17);fill-rule:nonzero;"/>
        </g>
        <g transform="matrix(1,0,0,1,246.155,663.675)">
            <circle cx="0" cy="-2.542" r="2.542" style="fill:rgb(76,81,71);"/>
        </g>
    </g>
</svg>
