<?xml version="1.0" encoding="utf-8"?>
<svg width="100%" height="100%" viewBox="0 0 154 113" version="1.1" xmlns="http://www.w3.org/2000/svg" style="fill-rule:evenodd;clip-rule:evenodd;stroke-linejoin:round;stroke-miterlimit:1.41421;">
  <path d="M 25.412 107.018 C 25.412 109.931 23.005 112.292 20.04 112.292 C 17.065 112.292 14.658 109.931 14.658 107.018 C 14.658 104.106 17.065 101.744 20.04 101.744 C 23.005 101.744 25.412 104.106 25.412 107.018" style="fill-rule: nonzero; fill: rgb(34, 197, 94); stroke-width: 1;"/>
  <path d="M 33.692 77.106 C 33.692 81.066 30.419 84.275 26.385 84.275 C 22.351 84.275 19.077 81.066 19.077 77.106 C 19.077 73.146 22.351 69.937 26.385 69.937 C 30.419 69.937 33.692 73.146 33.692 77.106" style="fill-rule: nonzero; fill: rgb(34, 197, 94); stroke-width: 1;"/>
  <path d="M 33.769 27.389 C 33.769 31.349 30.496 34.558 26.462 34.558 C 22.418 34.558 19.154 31.349 19.154 27.389 C 19.154 23.429 22.418 20.219 26.462 20.219 C 30.496 20.219 33.769 23.429 33.769 27.389" style="fill-rule: nonzero; fill: rgb(34, 197, 94); stroke-width: 1;"/>
  <path d="M 32.354 51.32 C 32.354 57.497 27.251 62.503 20.955 62.503 C 14.658 62.503 9.556 57.497 9.556 51.32 C 9.556 45.143 14.658 40.137 20.955 40.137 C 27.251 40.137 32.354 45.143 32.354 51.32" style="fill: rgb(255, 255, 255); fill-rule: nonzero; stroke-width: 1;"/>
  <path d="M 58.29 4.799 C 57.818 3.311 58.107 5.326 56.519 5.326 L 54.41 5.972 L 54.41 5.983 L 40.017 5.983 L 38.592 5.983 C 34.558 5.983 31.285 9.193 31.285 13.152 C 31.285 16.576 33.73 19.435 37.004 20.148 L 37.899 20.254 L 37.899 20.255 C 41.586 20.612 44.475 23.669 44.475 27.389 C 44.475 31.349 41.211 34.558 37.167 34.558 C 37.158 34.558 37.138 34.556 37.129 34.556 L 37.129 60.614 C 40.999 60.614 44.147 63.696 44.147 67.497 C 44.147 71.299 40.999 74.38 37.129 74.38 L 37.129 92.072 C 40.855 92.072 43.878 95.037 43.878 98.695 C 43.878 102.352 40.855 100.147 37.129 100.147 C 40.855 100.147 43.878 95.358 43.878 99.015 L 55.45 97.076 C 57.038 97.076 60.976 98.386 60.976 96.828 L 60.976 62.466 L 60.976 39.531 L 60.976 36.698 L 61.871 39.392 L 68.763 60.102 C 68.762 60.103 68.761 60.104 68.76 60.104 L 61.631 73.033" style="fill-rule: nonzero; fill: rgb(34, 197, 94); stroke-width: 1;"/>
  <circle cx="33.391" cy="97.895" r="7.012" style="fill: rgb(255, 255, 255); stroke-width: 1;" transform="matrix(0.962745, 0, 0, 0.94444, 4.981824, 6.238898)"/>
  <path d="M 81.047 106.589 C 74.958 106.589 68.809 106.417 62.603 106.07 C 56.403 105.733 50.973 105.03 46.323 103.962 L 46.323 5.873 C 48.759 5.479 51.358 5.113 54.131 4.777 C 56.894 4.44 59.715 4.174 62.603 3.983 C 65.485 3.781 68.338 3.63 71.17 3.534 C 73.989 3.439 76.675 3.39 79.22 3.39 C 86.202 3.39 92.686 3.852 98.667 4.777 C 104.65 5.701 109.826 7.232 114.197 9.369 C 118.576 11.505 121.984 14.322 124.422 17.818 C 126.858 21.323 128.074 25.65 128.074 30.8 C 128.074 35.556 126.774 39.634 124.173 43.032 C 121.571 46.44 117.944 49.166 113.291 51.207 C 120.272 53.247 125.425 56.257 128.749 60.233 C 132.067 64.218 133.723 69.273 133.723 75.396 C 133.723 85.794 129.403 93.593 120.764 98.792 C 112.125 103.99 98.886 106.589 81.047 106.589 Z M 66.92 59.944 L 66.92 90.704 C 69.247 90.898 71.739 91.041 74.4 91.137 C 77.065 91.234 79.502 91.282 81.709 91.282 C 86.033 91.282 90.052 91.041 93.76 90.56 C 97.472 90.068 100.683 89.217 103.394 88.004 C 106.115 86.79 108.279 85.164 109.881 83.122 C 111.486 81.082 112.285 78.457 112.285 75.252 C 112.285 69.514 109.904 65.528 105.139 63.294 C 100.375 61.06 93.783 59.944 85.361 59.944 L 66.92 59.944 Z M 66.92 45.517 L 81.709 45.517 C 89.688 45.517 95.952 44.52 100.497 42.527 C 105.041 40.534 107.313 36.962 107.313 31.812 C 107.313 26.959 104.957 23.513 100.248 21.472 C 95.54 19.431 89.413 18.41 81.873 18.41 C 78.666 18.41 75.82 18.457 73.328 18.554 C 70.837 18.65 68.699 18.795 66.92 18.987 L 66.92 45.517 Z" style="text-wrap-mode: nowrap; stroke-width: 39.809; fill: rgb(34, 197, 94);"/>
</svg>
