<?xml version="1.0" encoding="UTF-8" standalone="no"?>
<svg
   xmlns:serif="http://www.serif.com/"
   xmlns:dc="http://purl.org/dc/elements/1.1/"
   xmlns:cc="http://creativecommons.org/ns#"
   xmlns:rdf="http://www.w3.org/1999/02/22-rdf-syntax-ns#"
   xmlns:svg="http://www.w3.org/2000/svg"
   xmlns="http://www.w3.org/2000/svg"
   xmlns:sodipodi="http://sodipodi.sourceforge.net/DTD/sodipodi-0.dtd"
   xmlns:inkscape="http://www.inkscape.org/namespaces/inkscape"
   width="2724.325"
   height="305.3949"
   viewBox="0 0 2724.325 305.3949"
   version="1.1"
   xml:space="preserve"
   style="clip-rule:evenodd;fill-rule:evenodd;stroke-linejoin:round;stroke-miterlimit:1.41420996"
   id="svg3977"
   sodipodi:docname="logo_black.svg"
   inkscape:version="0.92.2 2405546, 2018-03-11"><metadata
   id="metadata3983"><rdf:RDF><cc:Work
       rdf:about=""><dc:format>image/svg+xml</dc:format><dc:type
         rdf:resource="http://purl.org/dc/dcmitype/StillImage" /><dc:title></dc:title></cc:Work></rdf:RDF></metadata><defs
   id="defs3981" /><sodipodi:namedview
   pagecolor="#ffffff"
   bordercolor="#666666"
   borderopacity="1"
   objecttolerance="10"
   gridtolerance="10"
   guidetolerance="10"
   inkscape:pageopacity="0"
   inkscape:pageshadow="2"
   inkscape:window-width="1366"
   inkscape:window-height="723"
   id="namedview3979"
   showgrid="false"
   inkscape:zoom="0.43019833"
   inkscape:cx="1362.1625"
   inkscape:cy="152.69744"
   inkscape:window-x="0"
   inkscape:window-y="22"
   inkscape:window-maximized="0"
   inkscape:current-layer="svg3977" />
    <g
   transform="matrix(0.64,0,0,0.64,-1004.0861,-921.71007)"
   id="g3975">
        <g
   id="Layer-1"
   serif:id="Layer 1"
   transform="scale(4.16667)">
            <g
   transform="translate(393.005,452.632)"
   id="g3924">
                <path
   d="m 0,0 c 0,3.084 -2.5,5.584 -5.584,5.584 -3.083,0 -5.583,-2.5 -5.583,-5.584 0,-3.084 2.5,-5.584 5.583,-5.584 C -2.5,-5.584 0,-3.084 0,0"
   style="fill:#231f20;fill-rule:nonzero"
   id="path3922"
   inkscape:connector-curvature="0" />
            </g>
            <g
   transform="translate(401.605,420.96)"
   id="g3928">
                <path
   d="m 0,0 c 0,4.193 -3.399,7.591 -7.591,7.591 -4.193,0 -7.592,-3.398 -7.592,-7.591 0,-4.193 3.399,-7.591 7.592,-7.591 C -3.399,-7.591 0,-4.193 0,0"
   style="fill:#231f20;fill-rule:nonzero"
   id="path3926"
   inkscape:connector-curvature="0" />
            </g>
            <g
   transform="translate(401.683,368.318)"
   id="g3932">
                <path
   d="m 0,0 c 0,4.193 -3.399,7.591 -7.591,7.591 -4.193,0 -7.592,-3.398 -7.592,-7.591 0,-4.193 3.399,-7.591 7.592,-7.591 C -3.399,-7.591 0,-4.193 0,0"
   style="fill:#231f20;fill-rule:nonzero"
   id="path3930"
   inkscape:connector-curvature="0" />
            </g>
            <g
   transform="translate(400.215,393.657)"
   id="g3936">
                <path
   d="m 0,0 c 0,6.54 -5.302,11.841 -11.841,11.841 -6.54,0 -11.842,-5.301 -11.842,-11.841 0,-6.54 5.302,-11.841 11.842,-11.841 C -5.302,-11.841 0,-6.54 0,0"
   style="fill:#231f20;fill-rule:nonzero"
   id="path3934"
   inkscape:connector-curvature="0" />
            </g>
            <g
   transform="translate(1019.72,457.808)"
   id="g3940">
                <path
   d="m 0,-112.144 h -4.628 c -1.657,0 -3.013,1.359 -3.013,3.02 v 88.826 c 0,1.661 -0.071,3.021 -0.157,3.021 -0.086,0 -0.926,-1.12 -1.866,-2.488 l -30.88,-44.946 -30.881,-44.946 c -0.94,-1.368 -3.064,-2.487 -4.722,-2.487 h -5.881 c -1.657,0 -3.013,1.359 -3.013,3.02 V -3.02 c 0,1.661 1.356,3.02 3.013,3.02 h 4.628 c 1.657,0 3.013,-1.359 3.013,-3.02 v -88.827 -3.02 h 0.314 l 32.589,47.434 30.88,44.946 C -9.664,-1.119 -7.539,0 -5.882,0 H 0 c 1.657,0 3.013,-1.359 3.013,-3.02 v -106.104 c 0,-1.661 -1.356,-3.02 -3.013,-3.02"
   style="fill:#231f20;fill-rule:nonzero"
   id="path3938"
   inkscape:connector-curvature="0" />
            </g>
            <g
   transform="translate(1143.33,457.808)"
   id="g3944">
                <path
   d="m 0,-112.144 h -82.654 c -1.657,0 -3.013,1.359 -3.013,3.02 v 3.069 c 0,1.662 1.356,3.021 3.013,3.021 h 36 V -3.02 c 0,1.661 1.356,3.02 3.013,3.02 h 4.629 C -37.355,0 -36,-1.359 -36,-3.02 v -96.994 -3.02 H 0 c 1.657,0 3.013,-1.359 3.013,-3.021 v -3.069 c 0,-1.661 -1.356,-3.02 -3.013,-3.02"
   style="fill:#231f20;fill-rule:nonzero"
   id="path3942"
   inkscape:connector-curvature="0" />
            </g>
            <g
   transform="translate(1265.3,457.808)"
   id="g3948">
                <path
   d="m 0,-112.144 h -4.628 c -1.657,0 -3.013,1.359 -3.013,3.02 v 88.826 c 0,1.661 -0.071,3.021 -0.157,3.021 -0.086,0 -0.925,-1.12 -1.865,-2.488 l -30.88,-44.946 -30.881,-44.946 c -0.94,-1.368 -3.064,-2.487 -4.722,-2.487 h -5.881 c -1.657,0 -3.013,1.359 -3.013,3.02 V -3.02 c 0,1.661 1.356,3.02 3.013,3.02 h 4.628 c 1.657,0 3.013,-1.359 3.013,-3.02 v -88.827 c 0,-1.661 0.07,-3.02 0.156,-3.02 0.086,0 0.926,1.119 1.866,2.488 l 61.76,89.892 C -9.664,-1.119 -7.539,0 -5.882,0 H 0 c 1.657,0 3.013,-1.359 3.013,-3.02 v -106.104 c 0,-1.661 -1.356,-3.02 -3.013,-3.02"
   style="fill:#231f20;fill-rule:nonzero"
   id="path3946"
   inkscape:connector-curvature="0" />
            </g>
            <g
   transform="translate(1395.14,460.164)"
   id="g3952">
                <path
   d="m 0,-114.5 h -4.628 c -1.658,0 -3.013,1.359 -3.013,3.02 v 66.403 c 0.157,26.072 -12.221,35.968 -32.902,35.968 -20.526,0 -32.904,-9.896 -32.747,-35.968 v -3.021 -63.382 c 0,-1.661 -1.355,-3.02 -3.012,-3.02 h -4.629 c -1.657,0 -3.013,1.359 -3.013,3.02 v 68.758 C -83.944,-19.633 -71.566,0 -40.543,0 -9.365,0 3.013,-19.633 3.013,-42.722 v -3.02 -65.738 c 0,-1.661 -1.356,-3.02 -3.013,-3.02"
   style="fill:#231f20;fill-rule:nonzero"
   id="path3950"
   inkscape:connector-curvature="0" />
            </g>
            <g
   transform="translate(618.661,391.503)"
   id="g3956">
                <path
   d="m 0,20.49 h -19.978 -3 l 0.993,-2.831 11.003,-31.376 10e-4,-10e-4 0.992,-2.83 0.993,2.83 v 10e-4 L 0.114,12.259 3,20.49 Z M 5.18,-43.057 C 4.577,-44.593 2.734,-45.85 1.084,-45.85 h -21.22 c -1.65,0 -3.49,1.258 -4.089,2.795 l -41.54,106.6 c -0.599,1.537 0.261,2.795 1.911,2.795 h 20.778 c 1.65,0 3.481,-1.262 4.069,-2.804 l 7.317,-19.193 1.069,-2.803 h 41.1 l 1.454,3.876 6.793,18.115 c 0.579,1.545 2.403,2.809 4.053,2.809 h 22.345 c 1.65,0 2.507,-1.257 1.904,-2.793 z"
   style="fill:#231f20;fill-rule:nonzero"
   id="path3954"
   inkscape:connector-curvature="0" />
            </g>
            <g
   transform="translate(759.71,375.226)"
   id="g3960">
                <path
   d="m 0,53.043 -23.963,-29.573 1.972,-2.261 42.326,-48.521 c 1.085,-1.244 0.622,-2.261 -1.028,-2.261 H -6.684 c -1.65,0 -3.868,1.034 -4.929,2.297 l -16.134,19.208 -16.134,19.207 h -10e-4 l -1.929,2.297 v -3 -37.009 c 0,-1.65 -1.35,-3 -3,-3 h -19.7 c -1.65,0 -3,1.35 -3,3 V 79.616 c 0,1.65 1.35,3 3,3 h 19.7 c 1.65,0 3,-1.35 3,-3 v -40.772 -3 l 34.397,44.401 c 1.011,1.304 3.187,2.371 4.837,2.371 h 27.54 c 1.65,0 2.15,-1.048 1.111,-2.33 z"
   style="fill:#231f20;fill-rule:nonzero"
   id="path3958"
   inkscape:connector-curvature="0" />
            </g>
            <g
   transform="translate(869.153,366.703)"
   id="g3964">
                <path
   d="m 0,70.09 h -36.47 -3 v -3 -20.38 -3 h 35.595 c 1.65,0 3,-1.35 3,-3 V 25.66 c 0,-1.65 -1.35,-3 -3,-3 h -32.595 -3 v -3 V 3 0 h 39.16 c 1.65,0 3,-1.35 3,-3 v -15.05 c 0,-1.65 -1.35,-3 -3,-3 h -61.86 c -1.65,0 -3,1.35 -3,3 V 88.14 c 0,1.65 1.35,3 3,3 H 0 c 1.65,0 3,-1.35 3,-3 V 73.09 c 0,-1.65 -1.35,-3 -3,-3"
   style="fill:#231f20;fill-rule:nonzero"
   id="path3962"
   inkscape:connector-curvature="0" />
            </g>
            <g
   transform="translate(527.384,457.83)"
   id="g3968">
                <path
   d="m 0,-112.177 h -32.188 c -1.65,0 -3.405,1.288 -3.899,2.862 l -23.518,74.946 -0.002,-0.006 v -0.013 l -23.516,-74.938 c -0.494,-1.575 -2.248,-2.863 -3.898,-2.863 h -17.237 v 0.012 h -14.951 -1.48 c -4.193,0 -7.592,3.399 -7.592,7.591 0,3.625 2.543,6.652 5.941,7.407 l 0.928,0.113 -10e-4,0.001 c 3.838,0.378 6.837,3.615 6.837,7.553 0,4.193 -3.398,7.591 -7.591,7.591 -0.014,0 -0.028,-0.002 -0.042,-0.002 v 27.591 c 4.025,0 7.287,3.263 7.287,7.288 0,4.025 -3.262,7.288 -7.287,7.288 v 18.733 c 3.872,0 7.011,3.139 7.011,7.012 0,3.872 -3.138,7.011 -7.011,7.011 3.873,0.001 7.011,3.14 7.011,7.012 h 14.759 c 1.65,0 3,-1.35 3,-3 v -49.383 -24.284 -3 l 0.93,2.852 7.158,21.929 c -0.001,0.001 -0.002,0.002 -0.003,0.002 l 4.914,15.057 12.068,36.976 c 0.512,1.568 2.281,2.851 3.931,2.851 h 17.672 c 1.65,0 3.419,-1.283 3.931,-2.851 l 12.069,-36.976 12.068,-36.976 v -0.001 l 0.931,-2.851 v 76.655 c 0,1.65 1.35,3 3,3 H 0 c 1.65,0 3,-1.35 3,-3 v -106.189 c 0,-1.65 -1.35,-3 -3,-3"
   style="fill:#231f20;fill-rule:nonzero"
   id="path3966"
   inkscape:connector-curvature="0" />
            </g>
            <g
   transform="translate(405.174,450.831)"
   id="g3972">
                <path
   d="m 0,-14.024 c -3.873,0 -7.012,3.139 -7.012,7.012 C -7.012,-3.139 -3.873,0 0,0 h 0.001 c 3.872,-0.001 7.011,-3.14 7.011,-7.012 0,-3.873 -3.139,-7.012 -7.012,-7.012"
   style="fill:#231f20;fill-rule:nonzero"
   id="path3970"
   inkscape:connector-curvature="0" />
            </g>
        </g>
    </g>
</svg>