<?xml version="1.0" encoding="UTF-8" standalone="no"?><!DOCTYPE svg PUBLIC "-//W3C//DTD SVG 1.1//EN" "http://www.w3.org/Graphics/SVG/1.1/DTD/svg11.dtd"><svg width="100%" height="100%" viewBox="0 0 496 113" version="1.1" xmlns="http://www.w3.org/2000/svg" xmlns:xlink="http://www.w3.org/1999/xlink" xml:space="preserve" xmlns:serif="http://www.serif.com/" style="fill-rule:evenodd;clip-rule:evenodd;stroke-linejoin:round;stroke-miterlimit:1.41421;"><path d="M16.474,106.991c0,3.084 -2.5,5.584 -5.584,5.584c-3.083,0 -5.583,-2.5 -5.583,-5.584c0,-3.084 2.5,-5.584 5.583,-5.584c3.084,0 5.584,2.5 5.584,5.584" style="fill:#f9c70d;fill-rule:nonzero;"/><path d="M25.073,75.319c0,4.193 -3.399,7.591 -7.591,7.591c-4.193,0 -7.592,-3.398 -7.592,-7.591c0,-4.193 3.399,-7.591 7.592,-7.591c4.192,0 7.591,3.398 7.591,7.591" style="fill:#f9c70d;fill-rule:nonzero;"/><path d="M25.151,22.677c0,4.193 -3.399,7.591 -7.591,7.591c-4.193,0 -7.592,-3.398 -7.592,-7.591c0,-4.193 3.399,-7.591 7.592,-7.591c4.192,0 7.591,3.398 7.591,7.591" style="fill:#f9c70d;fill-rule:nonzero;"/><path d="M23.683,48.016c0,6.54 -5.302,11.841 -11.841,11.841c-6.54,0 -11.842,-5.301 -11.842,-11.841c0,-6.54 5.302,-11.841 11.842,-11.841c6.539,0 11.841,5.301 11.841,11.841" style="fill:#fff;fill-rule:nonzero;"/><path d="M242.129,66.352l-19.978,0l-3,0l0.993,-2.831l11.003,-31.376l0.001,-0.001l0.992,-2.83l0.993,2.83l0,0.001l9.11,25.976l2.886,8.231l-3,0Zm5.18,-63.547c-0.603,-1.536 -2.446,-2.793 -4.096,-2.793l-21.22,0c-1.65,0 -3.49,1.258 -4.089,2.795l-41.54,106.6c-0.599,1.537 0.261,2.795 1.911,2.795l20.778,0c1.65,0 3.481,-1.262 4.069,-2.804l7.317,-19.193l1.069,-2.803l41.1,0l1.454,3.876l6.793,18.115c0.579,1.545 2.403,2.809 4.053,2.809l22.345,0c1.65,0 2.507,-1.257 1.904,-2.793l-41.848,-106.604Z" style="fill:#f9c70d;fill-rule:nonzero;"/><path d="M383.178,82.628l-23.963,-29.573l1.972,-2.261l42.326,-48.521c1.085,-1.244 0.622,-2.261 -1.028,-2.261l-25.991,0c-1.65,0 -3.868,1.034 -4.929,2.297l-16.134,19.208l-16.134,19.207l-0.001,0l-1.929,2.297l0,-3l0,-37.009c0,-1.65 -1.35,-3 -3,-3l-19.7,0c-1.65,0 -3,1.35 -3,3l0,106.189c0,1.65 1.35,3 3,3l19.7,0c1.65,0 3,-1.35 3,-3l0,-40.772l0,-3l34.397,44.401c1.011,1.304 3.187,2.371 4.837,2.371l27.54,0c1.65,0 2.15,-1.048 1.111,-2.33l-22.074,-27.243Z" style="fill:#f9c70d;fill-rule:nonzero;"/><path d="M492.621,91.152l-36.47,0l-3,0l0,-3l0,-20.38l0,-3l35.595,0c1.65,0 3,-1.35 3,-3l0,-15.05c0,-1.65 -1.35,-3 -3,-3l-32.595,0l-3,0l0,-3l0,-16.66l0,-3l39.16,0c1.65,0 3,-1.35 3,-3l0,-15.05c0,-1.65 -1.35,-3 -3,-3l-61.86,0c-1.65,0 -3,1.35 -3,3l0,106.19c0,1.65 1.35,3 3,3l62.17,0c1.65,0 3,-1.35 3,-3l0,-15.05c0,-1.65 -1.35,-3 -3,-3" style="fill:#f9c70d;fill-rule:nonzero;"/><path d="M150.852,0.012l-32.188,0c-1.65,0 -3.405,1.288 -3.899,2.862l-23.518,74.946l-0.002,-0.006l0,-0.013l-23.516,-74.938c-0.494,-1.575 -2.248,-2.863 -3.898,-2.863l-17.237,0l0,0.012l-14.951,0l-1.48,0c-4.193,0 -7.592,3.399 -7.592,7.591c0,3.625 2.543,6.652 5.941,7.407l0.928,0.113l-0.001,0.001c3.838,0.378 6.837,3.615 6.837,7.553c0,4.193 -3.398,7.591 -7.591,7.591c-0.014,0 -0.028,-0.002 -0.042,-0.002l0,27.591c4.025,0 7.287,3.263 7.287,7.288c0,4.025 -3.262,7.288 -7.287,7.288l0,18.733c3.872,0 7.011,3.139 7.011,7.012c0,3.872 -3.138,7.011 -7.011,7.011c3.873,0.001 7.011,3.14 7.011,7.012l14.759,0c1.65,0 3,-1.35 3,-3l0,-49.383l0,-24.284l0,-3l0.93,2.852l7.158,21.929c-0.001,0.001 -0.002,0.002 -0.003,0.002l4.914,15.057l12.068,36.976c0.512,1.568 2.281,2.851 3.931,2.851l17.672,0c1.65,0 3.419,-1.283 3.931,-2.851l12.069,-36.976l12.068,-36.976l0,-0.001l0.931,-2.851l0,76.655c0,1.65 1.35,3 3,3l18.77,0c1.65,0 3,-1.35 3,-3l0,-106.189c0,-1.65 -1.35,-3 -3,-3" style="fill:#f9c70d;fill-rule:nonzero;"/><circle cx="28.642" cy="98.178" r="7.012" style="fill:#fff;"/></svg>