<?xml version="1.0" encoding="UTF-8" standalone="no"?>
<!DOCTYPE svg PUBLIC "-//W3C//DTD SVG 1.1//EN" "http://www.w3.org/Graphics/SVG/1.1/DTD/svg11.dtd">
<svg width="100%" height="100%" viewBox="0 0 5008 2112" version="1.1" xmlns="http://www.w3.org/2000/svg" xmlns:xlink="http://www.w3.org/1999/xlink" xml:space="preserve" xmlns:serif="http://www.serif.com/" style="fill-rule:evenodd;clip-rule:evenodd;stroke-linejoin:round;stroke-miterlimit:1.41421;">
    <g transform="matrix(0.64,0,0,0.64,0,0)">
        <g id="Layer-1" serif:id="Layer 1" transform="matrix(4.16667,0,0,4.16667,0,0)">
            <g transform="matrix(1,0,0,1,393.005,452.632)">
                <path d="M0,0C0,3.084 -2.5,5.584 -5.584,5.584C-8.667,5.584 -11.167,3.084 -11.167,0C-11.167,-3.084 -8.667,-5.584 -5.584,-5.584C-2.5,-5.584 0,-3.084 0,0" style="fill:rgb(35,31,32);fill-rule:nonzero;"/>
            </g>
            <g transform="matrix(1,0,0,1,401.605,420.96)">
                <path d="M0,0C0,4.193 -3.399,7.591 -7.591,7.591C-11.784,7.591 -15.183,4.193 -15.183,0C-15.183,-4.193 -11.784,-7.591 -7.591,-7.591C-3.399,-7.591 0,-4.193 0,0" style="fill:rgb(35,31,32);fill-rule:nonzero;"/>
            </g>
            <g transform="matrix(1,0,0,1,401.683,368.318)">
                <path d="M0,0C0,4.193 -3.399,7.591 -7.591,7.591C-11.784,7.591 -15.183,4.193 -15.183,0C-15.183,-4.193 -11.784,-7.591 -7.591,-7.591C-3.399,-7.591 0,-4.193 0,0" style="fill:rgb(35,31,32);fill-rule:nonzero;"/>
            </g>
            <g transform="matrix(1,0,0,1,400.215,393.657)">
                <path d="M0,0C0,6.54 -5.302,11.841 -11.841,11.841C-18.381,11.841 -23.683,6.54 -23.683,0C-23.683,-6.54 -18.381,-11.841 -11.841,-11.841C-5.302,-11.841 0,-6.54 0,0" style="fill:rgb(35,31,32);fill-rule:nonzero;"/>
            </g>
            <g transform="matrix(1,0,0,1,1019.72,457.808)">
                <path d="M0,-112.144L-4.628,-112.144C-6.285,-112.144 -7.641,-110.785 -7.641,-109.124L-7.641,-20.298C-7.641,-18.637 -7.712,-17.277 -7.798,-17.277C-7.884,-17.277 -8.724,-18.397 -9.664,-19.765L-40.544,-64.711L-71.425,-109.657C-72.365,-111.025 -74.489,-112.144 -76.147,-112.144L-82.028,-112.144C-83.685,-112.144 -85.041,-110.785 -85.041,-109.124L-85.041,-3.02C-85.041,-1.359 -83.685,0 -82.028,0L-77.4,0C-75.743,0 -74.387,-1.359 -74.387,-3.02L-74.387,-91.847L-74.387,-94.867L-74.073,-94.867L-41.484,-47.433L-10.604,-2.487C-9.664,-1.119 -7.539,0 -5.882,0L0,0C1.657,0 3.013,-1.359 3.013,-3.02L3.013,-109.124C3.013,-110.785 1.657,-112.144 0,-112.144" style="fill:rgb(35,31,32);fill-rule:nonzero;"/>
            </g>
            <g transform="matrix(1,0,0,1,1143.33,457.808)">
                <path d="M0,-112.144L-82.654,-112.144C-84.311,-112.144 -85.667,-110.785 -85.667,-109.124L-85.667,-106.055C-85.667,-104.393 -84.311,-103.034 -82.654,-103.034L-46.654,-103.034L-46.654,-3.02C-46.654,-1.359 -45.298,0 -43.641,0L-39.012,0C-37.355,0 -36,-1.359 -36,-3.02L-36,-100.014L-36,-103.034L0,-103.034C1.657,-103.034 3.013,-104.393 3.013,-106.055L3.013,-109.124C3.013,-110.785 1.657,-112.144 0,-112.144" style="fill:rgb(35,31,32);fill-rule:nonzero;"/>
            </g>
            <g transform="matrix(1,0,0,1,1265.3,457.808)">
                <path d="M0,-112.144L-4.628,-112.144C-6.285,-112.144 -7.641,-110.785 -7.641,-109.124L-7.641,-20.298C-7.641,-18.637 -7.712,-17.277 -7.798,-17.277C-7.884,-17.277 -8.723,-18.397 -9.663,-19.765L-40.543,-64.711L-71.424,-109.657C-72.364,-111.025 -74.488,-112.144 -76.146,-112.144L-82.027,-112.144C-83.684,-112.144 -85.04,-110.785 -85.04,-109.124L-85.04,-3.02C-85.04,-1.359 -83.684,0 -82.027,0L-77.399,0C-75.742,0 -74.386,-1.359 -74.386,-3.02L-74.386,-91.847C-74.386,-93.508 -74.316,-94.867 -74.23,-94.867C-74.144,-94.867 -73.304,-93.748 -72.364,-92.379L-10.604,-2.487C-9.664,-1.119 -7.539,0 -5.882,0L0,0C1.657,0 3.013,-1.359 3.013,-3.02L3.013,-109.124C3.013,-110.785 1.657,-112.144 0,-112.144" style="fill:rgb(35,31,32);fill-rule:nonzero;"/>
            </g>
            <g transform="matrix(1,0,0,1,1395.14,460.164)">
                <path d="M0,-114.5L-4.628,-114.5C-6.286,-114.5 -7.641,-113.141 -7.641,-111.48L-7.641,-45.077C-7.484,-19.005 -19.862,-9.109 -40.543,-9.109C-61.069,-9.109 -73.447,-19.005 -73.29,-45.077L-73.29,-48.098L-73.29,-111.48C-73.29,-113.141 -74.645,-114.5 -76.302,-114.5L-80.931,-114.5C-82.588,-114.5 -83.944,-113.141 -83.944,-111.48L-83.944,-42.722C-83.944,-19.633 -71.566,0 -40.543,0C-9.365,0 3.013,-19.633 3.013,-42.722L3.013,-45.742L3.013,-111.48C3.013,-113.141 1.657,-114.5 0,-114.5" style="fill:rgb(35,31,32);fill-rule:nonzero;"/>
            </g>
            <g transform="matrix(1,0,0,1,618.661,391.503)">
                <path d="M0,20.49L-19.978,20.49L-22.978,20.49L-21.985,17.659L-10.982,-13.717L-10.981,-13.718L-9.989,-16.548L-8.996,-13.718L-8.996,-13.717L0.114,12.259L3,20.49L0,20.49ZM5.18,-43.057C4.577,-44.593 2.734,-45.85 1.084,-45.85L-20.136,-45.85C-21.786,-45.85 -23.626,-44.592 -24.225,-43.055L-65.765,63.545C-66.364,65.082 -65.504,66.34 -63.854,66.34L-43.076,66.34C-41.426,66.34 -39.595,65.078 -39.007,63.536L-31.69,44.343L-30.621,41.54L10.479,41.54L11.933,45.416L18.726,63.531C19.305,65.076 21.129,66.34 22.779,66.34L45.124,66.34C46.774,66.34 47.631,65.083 47.028,63.547L5.18,-43.057Z" style="fill:rgb(35,31,32);fill-rule:nonzero;"/>
            </g>
            <g transform="matrix(1,0,0,1,759.71,375.226)">
                <path d="M0,53.043L-23.963,23.47L-21.991,21.209L20.335,-27.312C21.42,-28.556 20.957,-29.573 19.307,-29.573L-6.684,-29.573C-8.334,-29.573 -10.552,-28.539 -11.613,-27.276L-27.747,-8.068L-43.881,11.139L-43.882,11.139L-45.811,13.436L-45.811,10.436L-45.811,-26.573C-45.811,-28.223 -47.161,-29.573 -48.811,-29.573L-68.511,-29.573C-70.161,-29.573 -71.511,-28.223 -71.511,-26.573L-71.511,79.616C-71.511,81.266 -70.161,82.616 -68.511,82.616L-48.811,82.616C-47.161,82.616 -45.811,81.266 -45.811,79.616L-45.811,38.844L-45.811,35.844L-11.414,80.245C-10.403,81.549 -8.227,82.616 -6.577,82.616L20.963,82.616C22.613,82.616 23.113,81.568 22.074,80.286L0,53.043Z" style="fill:rgb(35,31,32);fill-rule:nonzero;"/>
            </g>
            <g transform="matrix(1,0,0,1,869.153,366.703)">
                <path d="M0,70.09L-36.47,70.09L-39.47,70.09L-39.47,67.09L-39.47,46.71L-39.47,43.71L-3.875,43.71C-2.225,43.71 -0.875,42.36 -0.875,40.71L-0.875,25.66C-0.875,24.01 -2.225,22.66 -3.875,22.66L-36.47,22.66L-39.47,22.66L-39.47,19.66L-39.47,3L-39.47,0L-0.31,0C1.34,0 2.69,-1.35 2.69,-3L2.69,-18.05C2.69,-19.7 1.34,-21.05 -0.31,-21.05L-62.17,-21.05C-63.82,-21.05 -65.17,-19.7 -65.17,-18.05L-65.17,88.14C-65.17,89.79 -63.82,91.14 -62.17,91.14L0,91.14C1.65,91.14 3,89.79 3,88.14L3,73.09C3,71.44 1.65,70.09 0,70.09" style="fill:rgb(35,31,32);fill-rule:nonzero;"/>
            </g>
            <g transform="matrix(1,0,0,1,527.384,457.83)">
                <path d="M0,-112.177L-32.188,-112.177C-33.838,-112.177 -35.593,-110.889 -36.087,-109.315L-59.605,-34.369L-59.607,-34.375L-59.607,-34.388L-83.123,-109.326C-83.617,-110.901 -85.371,-112.189 -87.021,-112.189L-104.258,-112.189L-104.258,-112.177L-119.209,-112.177L-120.689,-112.177C-124.882,-112.177 -128.281,-108.778 -128.281,-104.586C-128.281,-100.961 -125.738,-97.934 -122.34,-97.179L-121.412,-97.066L-121.413,-97.065C-117.575,-96.687 -114.576,-93.45 -114.576,-89.512C-114.576,-85.319 -117.974,-81.921 -122.167,-81.921C-122.181,-81.921 -122.195,-81.923 -122.209,-81.923L-122.209,-54.332C-118.184,-54.332 -114.922,-51.069 -114.922,-47.044C-114.922,-43.019 -118.184,-39.756 -122.209,-39.756L-122.209,-21.023C-118.337,-21.023 -115.198,-17.884 -115.198,-14.011C-115.198,-10.139 -118.336,-7 -122.209,-7C-118.336,-6.999 -115.198,-3.86 -115.198,0.012L-100.439,0.012C-98.789,0.012 -97.439,-1.338 -97.439,-2.988L-97.439,-52.371L-97.439,-76.655L-97.439,-79.655L-96.509,-76.803L-89.351,-54.874C-89.352,-54.873 -89.353,-54.872 -89.354,-54.872L-84.44,-39.815L-72.372,-2.839C-71.86,-1.271 -70.091,0.012 -68.441,0.012L-50.769,0.012C-49.119,0.012 -47.35,-1.271 -46.838,-2.839L-34.769,-39.815L-22.701,-76.791L-22.701,-76.792L-21.77,-79.643L-21.77,-2.988C-21.77,-1.338 -20.42,0.012 -18.77,0.012L0,0.012C1.65,0.012 3,-1.338 3,-2.988L3,-109.177C3,-110.827 1.65,-112.177 0,-112.177" style="fill:rgb(35,31,32);fill-rule:nonzero;"/>
            </g>
            <g transform="matrix(1,0,0,1,405.174,450.831)">
                <path d="M0,-14.024C-3.873,-14.024 -7.012,-10.885 -7.012,-7.012C-7.012,-3.139 -3.873,0 0,0L0.001,0C3.873,-0.001 7.012,-3.14 7.012,-7.012C7.012,-10.885 3.873,-14.024 0,-14.024" style="fill:rgb(35,31,32);fill-rule:nonzero;"/>
            </g>
        </g>
    </g>
</svg>
