<?xml version="1.0" encoding="UTF-8" standalone="no"?>
<!DOCTYPE svg PUBLIC "-//W3C//DTD SVG 1.1//EN" "http://www.w3.org/Graphics/SVG/1.1/DTD/svg11.dtd">
<svg width="100%" height="100%" viewBox="0 0 642 470" version="1.1" xmlns="http://www.w3.org/2000/svg" xmlns:xlink="http://www.w3.org/1999/xlink" xml:space="preserve" xmlns:serif="http://www.serif.com/" style="fill-rule:evenodd;clip-rule:evenodd;stroke-linejoin:round;stroke-miterlimit:1.41421;">
    <g transform="matrix(1,0,0,1,-1568.88,-1440.17)">
        <g transform="matrix(4.16667,0,0,4.16667,0,0)">
            <g transform="matrix(1,0,0,1,393.005,452.632)">
                <path d="M0,0C0,3.084 -2.5,5.584 -5.584,5.584C-8.667,5.584 -11.167,3.084 -11.167,0C-11.167,-3.084 -8.667,-5.584 -5.584,-5.584C-2.5,-5.584 0,-3.084 0,0" style="fill:rgb(249,199,13);fill-rule:nonzero;"/>
            </g>
        </g>
        <g transform="matrix(4.16667,0,0,4.16667,0,0)">
            <g transform="matrix(1,0,0,1,401.605,420.96)">
                <path d="M0,0C0,4.193 -3.399,7.591 -7.591,7.591C-11.784,7.591 -15.183,4.193 -15.183,0C-15.183,-4.193 -11.784,-7.591 -7.591,-7.591C-3.399,-7.591 0,-4.193 0,0" style="fill:rgb(249,199,13);fill-rule:nonzero;"/>
            </g>
        </g>
        <g transform="matrix(4.16667,0,0,4.16667,0,0)">
            <g transform="matrix(1,0,0,1,401.683,368.318)">
                <path d="M0,0C0,4.193 -3.399,7.591 -7.591,7.591C-11.784,7.591 -15.183,4.193 -15.183,0C-15.183,-4.193 -11.784,-7.591 -7.591,-7.591C-3.399,-7.591 0,-4.193 0,0" style="fill:rgb(249,199,13);fill-rule:nonzero;"/>
            </g>
        </g>
        <g transform="matrix(4.16667,0,0,4.16667,0,0)">
            <g transform="matrix(1,0,0,1,400.215,393.657)">
                <path d="M0,0C0,6.54 -5.302,11.841 -11.841,11.841C-18.381,11.841 -23.683,6.54 -23.683,0C-23.683,-6.54 -18.381,-11.841 -11.841,-11.841C-5.302,-11.841 0,-6.54 0,0" style="fill:rgb(249,199,13);fill-rule:nonzero;"/>
            </g>
        </g>
        <g transform="matrix(4.16667,0,0,4.16667,0,0)">
            <g transform="matrix(1,0,0,1,527.384,457.83)">
                <path d="M0,-112.177L-32.188,-112.177C-33.838,-112.177 -35.593,-110.889 -36.087,-109.315L-59.605,-34.369L-59.607,-34.375L-59.607,-34.388L-83.123,-109.326C-83.617,-110.901 -85.371,-112.189 -87.021,-112.189L-104.258,-112.189L-104.258,-112.177L-119.209,-112.177L-120.689,-112.177C-124.882,-112.177 -128.281,-108.778 -128.281,-104.586C-128.281,-100.961 -125.738,-97.934 -122.34,-97.179L-121.412,-97.066L-121.413,-97.065C-117.575,-96.687 -114.576,-93.45 -114.576,-89.512C-114.576,-85.319 -117.974,-81.921 -122.167,-81.921C-122.181,-81.921 -122.195,-81.923 -122.209,-81.923L-122.209,-54.332C-118.184,-54.332 -114.922,-51.069 -114.922,-47.044C-114.922,-43.019 -118.184,-39.756 -122.209,-39.756L-122.209,-21.023C-118.337,-21.023 -115.198,-17.884 -115.198,-14.011C-115.198,-10.139 -118.336,-7 -122.209,-7C-118.336,-6.999 -115.198,-3.86 -115.198,0.012L-100.439,0.012C-98.789,0.012 -97.439,-1.338 -97.439,-2.988L-97.439,-52.371L-97.439,-76.655L-97.439,-79.655L-96.509,-76.803L-89.351,-54.874C-89.352,-54.873 -89.353,-54.872 -89.354,-54.872L-84.44,-39.815L-72.372,-2.839C-71.86,-1.271 -70.091,0.012 -68.441,0.012L-50.769,0.012C-49.119,0.012 -47.35,-1.271 -46.838,-2.839L-34.769,-39.815L-22.701,-76.791L-22.701,-76.792L-21.77,-79.643L-21.77,-2.988C-21.77,-1.338 -20.42,0.012 -18.77,0.012L0,0.012C1.65,0.012 3,-1.338 3,-2.988L3,-109.177C3,-110.827 1.65,-112.177 0,-112.177" style="fill:rgb(249,199,13);fill-rule:nonzero;"/>
            </g>
        </g>
        <g transform="matrix(4.16667,0,0,4.16667,0,0)">
            <g transform="matrix(1,0,0,1,405.174,450.831)">
                <circle cx="0" cy="-7.012" r="7.012" style="fill:rgb(249,199,13);"/>
            </g>
        </g>
    </g>
</svg>
